solid front-fix-a
facet normal 0.0 -0.9997426093226983 -0.022687333572781382
  outer loop
    vertex 47.49107844388561 0.48570841561836714 9.456323306592353
    vertex 42.679495 0.49803644005849074 8.913075186136732
    vertex 47.67949500000001 0.49803644005849074 8.913075186136732
  endloop
endfacet
facet normal 0.0 -0.9997426093226983 -0.022687333572781382
  outer loop
    vertex 42.679495 0.49803644005849074 8.913075186136732
    vertex 47.49107844388561 0.48570841561836714 9.456323306592353
    vertex 42.8679115561144 0.48570841561836714 9.456323306592353
  endloop
endfacet
facet normal 0.0 -0.9997426093226983 -0.022687333572781382
  outer loop
    vertex 42.8679115561144 0.48570841561836714 9.456323306592353
    vertex 47.49107844388561 0.48570841561836714 9.456323306592353
    vertex 47.186219890460386 0.4746442386573591 9.943878580971393
  endloop
endfacet
facet normal 0.0 -0.9997426093226983 -0.022687333572781382
  outer loop
    vertex 42.8679115561144 0.48570841561836714 9.456323306592353
    vertex 47.186219890460386 0.4746442386573591 9.943878580971393
    vertex 43.172770109539634 0.4746442386573591 9.943878580971393
  endloop
endfacet
facet normal 0.0 -0.9997426093226983 -0.022687333572781382
  outer loop
    vertex 43.172770109539634 0.4746442386573591 9.943878580971393
    vertex 47.186219890460386 0.4746442386573591 9.943878580971393
    vertex 46.78027605935822 0.46540124785486764 10.351181259939128
  endloop
endfacet
facet normal 0.0 -0.9997426093226983 -0.022687333572781382
  outer loop
    vertex 43.172770109539634 0.4746442386573591 9.943878580971393
    vertex 46.78027605935822 0.46540124785486764 10.351181259939128
    vertex 43.5787139406418 0.46540124785486764 10.351181259939128
  endloop
endfacet
facet normal 0.0 -0.9997426093226983 -0.022687333572781382
  outer loop
    vertex 43.5787139406418 0.46540124785486764 10.351181259939128
    vertex 46.78027605935822 0.46540124785486764 10.351181259939128
    vertex 46.29369566533982 0.4584450428036803 10.657714179135995
  endloop
endfacet
facet normal 0.0 -0.9997426093226983 -0.022687333572781382
  outer loop
    vertex 43.5787139406418 0.46540124785486764 10.351181259939128
    vertex 46.29369566533982 0.4584450428036803 10.657714179135995
    vertex 44.065294334660194 0.4584450428036803 10.657714179135995
  endloop
endfacet
facet normal 0.0 -0.9997426093226983 -0.022687333572781382
  outer loop
    vertex 44.065294334660194 0.4584450428036803 10.657714179135995
    vertex 46.29369566533982 0.4584450428036803 10.657714179135995
    vertex 45.75098934983655 0.45412603023992715 10.848036275663212
  endloop
endfacet
facet normal 0.0 -0.9997426093226983 -0.022687333572781382
  outer loop
    vertex 44.065294334660194 0.4584450428036803 10.657714179135995
    vertex 45.75098934983655 0.45412603023992715 10.848036275663212
    vertex 44.60800065016346 0.45412603023992715 10.848036275663212
  endloop
endfacet
facet normal 0.0 -0.9997426093226983 -0.022687333572781382
  outer loop
    vertex 44.60800065016346 0.45412603023992715 10.848036275663212
    vertex 45.75098934983655 0.45412603023992715 10.848036275663212
    vertex 45.17949500000001 0.452661772912928 10.912560404782129
  endloop
endfacet
facet normal 0.0 0.9997426093226983 0.02268733357278126
  outer loop
    vertex 42.40559486733727 10.485206370671882 9.59189774454675
    vertex 48.17949500000001 10.500000000000032 8.940000000000007
    vertex 42.17949500000001 10.500000000000032 8.940000000000007
  endloop
endfacet
facet normal 0.0 0.9997426093226983 0.02268733357278126
  outer loop
    vertex 48.17949500000001 10.500000000000032 8.940000000000007
    vertex 42.40559486733727 10.485206370671882 9.59189774454675
    vertex 47.953395132662735 10.485206370671882 9.59189774454675
  endloop
endfacet
facet normal 0.0 0.9997426093226983 0.02268733357278126
  outer loop
    vertex 47.953395132662735 10.485206370671882 9.59189774454675
    vertex 42.40559486733727 10.485206370671882 9.59189774454675
    vertex 42.77142513144755 10.471929358318675 10.1769640738016
  endloop
endfacet
facet normal 0.0 0.9997426093226983 0.02268733357278126
  outer loop
    vertex 47.953395132662735 10.485206370671882 9.59189774454675
    vertex 42.77142513144755 10.471929358318675 10.1769640738016
    vertex 47.58756486855245 10.471929358318675 10.1769640738016
  endloop
endfacet
facet normal 0.0 0.9997426093226983 0.02268733357278126
  outer loop
    vertex 47.58756486855245 10.471929358318675 10.1769640738016
    vertex 42.77142513144755 10.471929358318675 10.1769640738016
    vertex 43.25855772877016 10.460837769355685 10.665727288562882
  endloop
endfacet
facet normal 0.0 0.9997426093226983 0.02268733357278126
  outer loop
    vertex 47.58756486855245 10.471929358318675 10.1769640738016
    vertex 43.25855772877016 10.460837769355685 10.665727288562882
    vertex 47.100432271229856 10.460837769355685 10.665727288562882
  endloop
endfacet
facet normal 0.0 0.9997426093226983 0.02268733357278126
  outer loop
    vertex 47.100432271229856 10.460837769355685 10.665727288562882
    vertex 43.25855772877016 10.460837769355685 10.665727288562882
    vertex 43.84245420159223 10.45249032329426 11.033566791599123
  endloop
endfacet
facet normal 0.0 0.9997426093226983 0.02268733357278126
  outer loop
    vertex 47.100432271229856 10.460837769355685 10.665727288562882
    vertex 43.84245420159223 10.45249032329426 11.033566791599123
    vertex 46.51653579840777 10.45249032329426 11.033566791599123
  endloop
endfacet
facet normal 0.0 0.9997426093226983 0.02268733357278126
  outer loop
    vertex 46.51653579840777 10.45249032329426 11.033566791599123
    vertex 43.84245420159223 10.45249032329426 11.033566791599123
    vertex 44.49370178019615 10.447307508217754 11.261953307431783
  endloop
endfacet
facet normal 0.0 0.9997426093226983 0.02268733357278126
  outer loop
    vertex 46.51653579840777 10.45249032329426 11.033566791599123
    vertex 44.49370178019615 10.447307508217754 11.261953307431783
    vertex 45.86528821980386 10.447307508217754 11.261953307431783
  endloop
endfacet
facet normal 0.0 0.9997426093226983 0.02268733357278126
  outer loop
    vertex 45.86528821980386 10.447307508217754 11.261953307431783
    vertex 44.49370178019615 10.447307508217754 11.261953307431783
    vertex 45.179495 10.445550399425356 11.339382262374485
  endloop
endfacet
facet normal 0.43381812575695655 -0.04351793711916095 0.8999489001680119
  outer loop
    vertex 46.29369566533982 0.4584450428036803 10.657714179135995
    vertex 45.86528821980386 10.447307508217754 11.261953307431783
    vertex 45.75098934983655 0.45412603023992715 10.848036275663212
  endloop
endfacet
facet normal 0.22345806730575457 -0.042889321873691266 0.9737694789965394
  outer loop
    vertex 45.86528821980386 10.447307508217754 11.261953307431783
    vertex 46.29369566533982 0.4584450428036803 10.657714179135995
    vertex 46.51653579840777 10.45249032329426 11.033566791599123
  endloop
endfacet
facet normal 0.900567781160426 -0.04749548688188103 0.43211323777644245
  outer loop
    vertex 47.49107844388561 0.48570841561836714 9.456323306592353
    vertex 47.58756486855245 10.471929358318675 10.1769640738016
    vertex 47.186219890460386 0.4746442386573591 9.943878580971393
  endloop
endfacet
facet normal 0.7837961714595812 -0.04590516064260003 0.6193192051209778
  outer loop
    vertex 47.58756486855245 10.471929358318675 10.1769640738016
    vertex 47.49107844388561 0.48570841561836714 9.456323306592353
    vertex 47.953395132662735 10.485206370671882 9.59189774454675
  endloop
endfacet
facet normal -0.6255540377325941 -0.04454807117136052 0.7789079632609747
  outer loop
    vertex 43.25855772877016 10.460837769355685 10.665727288562882
    vertex 43.172770109539634 0.4746442386573591 9.943878580971393
    vertex 43.5787139406418 0.46540124785486764 10.351181259939128
  endloop
endfacet
facet normal -0.7816263875332886 -0.045881887625617464 0.6220571056579705
  outer loop
    vertex 43.172770109539634 0.4746442386573591 9.943878580971393
    vertex 43.25855772877016 10.460837769355685 10.665727288562882
    vertex 42.77142513144755 10.471929358318675 10.1769640738016
  endloop
endfacet
facet normal -0.43381812575695977 -0.043517937119161396 0.8999489001680104
  outer loop
    vertex 44.065294334660194 0.4584450428036803 10.657714179135995
    vertex 44.49370178019615 10.447307508217754 11.261953307431783
    vertex 43.84245420159223 10.45249032329426 11.033566791599123
  endloop
endfacet
facet normal -0.22345806730575454 -0.042889321873691516 0.9737694789965394
  outer loop
    vertex 44.49370178019615 10.447307508217754 11.261953307431783
    vertex 44.065294334660194 0.4584450428036803 10.657714179135995
    vertex 44.60800065016346 0.45412603023992715 10.848036275663212
  endloop
endfacet
facet normal 0.9440324409251699 -0.048070823297828795 0.3263310381013959
  outer loop
    vertex 47.67949500000001 0.49803644005849074 8.913075186136732
    vertex 47.953395132662735 10.485206370671882 9.59189774454675
    vertex 47.49107844388561 0.48570841561836714 9.456323306592353
  endloop
endfacet
facet normal 0.9022993350769822 -0.047526316052771855 0.42848239077246564
  outer loop
    vertex 47.953395132662735 10.485206370671882 9.59189774454675
    vertex 47.67949500000001 0.49803644005849074 8.913075186136732
    vertex 48.17949500000001 10.500000000000032 8.940000000000007
  endloop
endfacet
facet normal 0.6233786812958861 -0.04453324204461695 0.7806508887196617
  outer loop
    vertex 46.78027605935822 0.46540124785486764 10.351181259939128
    vertex 46.51653579840777 10.45249032329426 11.033566791599123
    vertex 46.29369566533982 0.4584450428036803 10.657714179135995
  endloop
endfacet
facet normal 0.4355651644759634 -0.04352512809371184 0.8991043046940957
  outer loop
    vertex 46.51653579840777 10.45249032329426 11.033566791599123
    vertex 46.78027605935822 0.46540124785486764 10.351181259939128
    vertex 47.100432271229856 10.460837769355685 10.665727288562882
  endloop
endfacet
facet normal 0.0 0.0026919430515452455 -0.9999963767147395
  outer loop
    vertex 48.17949500000001 10.500000000000032 8.940000000000007
    vertex 42.679495 0.49803644005849074 8.913075186136732
    vertex 42.17949500000001 10.500000000000032 8.940000000000007
  endloop
endfacet
facet normal 0.0 0.0026919430515452455 -0.9999963767147395
  outer loop
    vertex 42.679495 0.49803644005849074 8.913075186136732
    vertex 48.17949500000001 10.500000000000032 8.940000000000007
    vertex 47.67949500000001 0.49803644005849074 8.913075186136732
  endloop
endfacet
facet normal -0.7837961714595783 -0.045905160642600806 0.6193192051209814
  outer loop
    vertex 42.77142513144755 10.471929358318675 10.1769640738016
    vertex 42.8679115561144 0.48570841561836714 9.456323306592353
    vertex 43.172770109539634 0.4746442386573591 9.943878580971393
  endloop
endfacet
facet normal -0.9005677811604279 -0.04749548688188185 0.4321132377764384
  outer loop
    vertex 42.8679115561144 0.48570841561836714 9.456323306592353
    vertex 42.77142513144755 10.471929358318675 10.1769640738016
    vertex 42.40559486733727 10.485206370671882 9.59189774454675
  endloop
endfacet
facet normal 0.7816263875332918 -0.04588188762561671 0.6220571056579666
  outer loop
    vertex 47.186219890460386 0.4746442386573591 9.943878580971393
    vertex 47.100432271229856 10.460837769355685 10.665727288562882
    vertex 46.78027605935822 0.46540124785486764 10.351181259939128
  endloop
endfacet
facet normal 0.6255540377325951 -0.04454807117136005 0.7789079632609739
  outer loop
    vertex 47.100432271229856 10.460837769355685 10.665727288562882
    vertex 47.186219890460386 0.4746442386573591 9.943878580971393
    vertex 47.58756486855245 10.471929358318675 10.1769640738016
  endloop
endfacet
facet normal -0.22248779678723848 -0.042887428968693256 0.9739917087517819
  outer loop
    vertex 44.60800065016346 0.45412603023992715 10.848036275663212
    vertex 45.179495 10.445550399425356 11.339382262374485
    vertex 44.49370178019615 10.447307508217754 11.261953307431783
  endloop
endfacet
facet normal -2.6711196856435487e-17 -0.042673651882161455 0.9990890648160655
  outer loop
    vertex 45.179495 10.445550399425356 11.339382262374485
    vertex 44.60800065016346 0.45412603023992715 10.848036275663212
    vertex 45.17949500000001 0.452661772912928 10.912560404782129
  endloop
endfacet
facet normal -0.6233786812958854 -0.04453324204461743 0.7806508887196624
  outer loop
    vertex 43.5787139406418 0.46540124785486764 10.351181259939128
    vertex 43.84245420159223 10.45249032329426 11.033566791599123
    vertex 43.25855772877016 10.460837769355685 10.665727288562882
  endloop
endfacet
facet normal -0.43556516447596677 -0.043525128093712284 0.899104304694094
  outer loop
    vertex 43.84245420159223 10.45249032329426 11.033566791599123
    vertex 43.5787139406418 0.46540124785486764 10.351181259939128
    vertex 44.065294334660194 0.4584450428036803 10.657714179135995
  endloop
endfacet
facet normal 6.214830876687755e-17 -0.04267365188216146 0.9990890648160655
  outer loop
    vertex 45.17949500000001 0.452661772912928 10.912560404782129
    vertex 45.86528821980386 10.447307508217754 11.261953307431783
    vertex 45.179495 10.445550399425356 11.339382262374485
  endloop
endfacet
facet normal 0.22345806730575457 -0.042889321873691266 0.9737694789965394
  outer loop
    vertex 45.86528821980386 10.447307508217754 11.261953307431783
    vertex 45.17949500000001 0.452661772912928 10.912560404782129
    vertex 45.75098934983655 0.45412603023992715 10.848036275663212
  endloop
endfacet
facet normal -0.9022993350769841 -0.04752631605277265 0.4284823907724613
  outer loop
    vertex 42.40559486733727 10.485206370671882 9.59189774454675
    vertex 42.679495 0.49803644005849074 8.913075186136732
    vertex 42.8679115561144 0.48570841561836714 9.456323306592353
  endloop
endfacet
facet normal -0.9440324409251729 -0.04807082329782939 0.32633103810138725
  outer loop
    vertex 42.679495 0.49803644005849074 8.913075186136732
    vertex 42.40559486733727 10.485206370671882 9.59189774454675
    vertex 42.17949500000001 10.500000000000032 8.940000000000007
  endloop
endfacet
endsolid front-fix-a
