<?xml version="1.0" encoding="UTF-8" standalone="no"?>
<!-- Created with Inkscape (http://www.inkscape.org/) -->

<svg
   xmlns:dc="http://purl.org/dc/elements/1.1/"
   xmlns:cc="http://creativecommons.org/ns#"
   xmlns:rdf="http://www.w3.org/1999/02/22-rdf-syntax-ns#"
   xmlns:svg="http://www.w3.org/2000/svg"
   xmlns="http://www.w3.org/2000/svg"
   xmlns:sodipodi="http://sodipodi.sourceforge.net/DTD/sodipodi-0.dtd"
   xmlns:inkscape="http://www.inkscape.org/namespaces/inkscape"
   width="885.82672"
   height="885.82672"
   id="svg3850"
   version="1.1"
   inkscape:version="0.48.4 r9939"
   sodipodi:docname="front.svg">
  <defs
     id="defs3852" />
  <sodipodi:namedview
     id="base"
     pagecolor="#ffffff"
     bordercolor="#666666"
     borderopacity="1.0"
     inkscape:pageopacity="0.0"
     inkscape:pageshadow="2"
     inkscape:zoom="0.98994949"
     inkscape:cx="227.67311"
     inkscape:cy="450.29124"
     inkscape:document-units="px"
     inkscape:current-layer="layer1"
     showgrid="false"
     units="mm"
     inkscape:window-width="1920"
     inkscape:window-height="1125"
     inkscape:window-x="1911"
     inkscape:window-y="-9"
     inkscape:window-maximized="1" />
  <metadata
     id="metadata3855">
    <rdf:RDF>
      <cc:Work
         rdf:about="">
        <dc:format>image/svg+xml</dc:format>
        <dc:type
           rdf:resource="http://purl.org/dc/dcmitype/StillImage" />
      </cc:Work>
    </rdf:RDF>
  </metadata>
  <g
     inkscape:label="Layer 1"
     inkscape:groupmode="layer"
     id="layer1"
     transform="translate(0,-166.53544)">
    <path
       style="fill:none;stroke:#000000;stroke-width:0.03543307;stroke-miterlimit:4;stroke-dasharray:none"
       d="m 10.692421,687.326 0,354.3437 177.187449,0 0,-354.3437 -177.187449,0 0,0"
       id="path3035"
       inkscape:connector-curvature="0" />
    <path
       style="fill:none;stroke:#ff0000;stroke-width:0.03543307;stroke-miterlimit:4;stroke-opacity:1;stroke-dasharray:none"
       d="m 76.924588,719.28354 53.125002,0 0,14.1875 -53.125002,0 0,-14.1875 0,0"
       id="path3037"
       inkscape:connector-curvature="0" />
    <path
       style="fill:none;stroke:#ff0000;stroke-width:0.03543307;stroke-miterlimit:4;stroke-opacity:1;stroke-dasharray:none"
       d="m 76.924588,804.31479 53.125002,0 0,113.375 -53.125002,0 0,-113.375 0,0"
       id="path3039"
       inkscape:connector-curvature="0" />
    <path
       style="fill:none;stroke:#ff0000;stroke-width:0.03543307;stroke-miterlimit:4;stroke-opacity:1;stroke-dasharray:none"
       d="m 76.924588,988.56479 53.125002,0 0,14.18751 -53.125002,0 0,-14.18751 0,0"
       id="path3041"
       inkscape:connector-curvature="0" />
    <g
       id="g3925"
       transform="translate(5.5586456,-7.1499989)">
      <path
         style="fill:none;stroke:#000000;stroke-width:0.03543307;stroke-miterlimit:4;stroke-dasharray:none"
         d="m 182.29913,694.476 0,354.3437 177.18746,0 0,-354.3437 -177.18746,0 0,0"
         id="path3885"
         inkscape:connector-curvature="0" />
      <path
         style="fill:none;stroke:#ff0000;stroke-width:0.03543307;stroke-miterlimit:4;stroke-opacity:1;stroke-dasharray:none"
         d="m 244.33038,729.9135 53.12501,0 0,14.1875 -53.12501,0 0,-14.1875 0,0"
         id="path3887"
         inkscape:connector-curvature="0" />
      <path
         style="fill:none;stroke:#ff0000;stroke-width:0.03543307;stroke-miterlimit:4;stroke-opacity:1;stroke-dasharray:none"
         d="m 244.33038,814.94475 53.12501,0 0,113.375 -53.12501,0 0,-113.375 0,0"
         id="path3889"
         inkscape:connector-curvature="0" />
      <path
         style="fill:none;stroke:#ff0000;stroke-width:0.03543307;stroke-miterlimit:4;stroke-opacity:1;stroke-dasharray:none"
         d="m 244.33038,999.19475 53.12501,0 0,14.18755 -53.12501,0 0,-14.18755 0,0"
         id="path3891"
         inkscape:connector-curvature="0" />
    </g>
    <g
       id="g3931"
       transform="translate(3.16571,-7.1499989)">
      <path
         style="fill:none;stroke:#000000;stroke-width:0.03543307;stroke-miterlimit:4;stroke-dasharray:none"
         d="m 361.85742,694.476 0,354.3437 177.18745,0 0,-354.3437 -177.18745,0 0,0"
         id="path3893"
         inkscape:connector-curvature="0" />
      <path
         style="fill:none;stroke:#ff0000;stroke-width:0.03543307;stroke-miterlimit:4;stroke-opacity:1;stroke-dasharray:none"
         d="m 423.88867,729.9135 53.125,0 0,14.1875 -53.125,0 0,-14.1875 0,0"
         id="path3895"
         inkscape:connector-curvature="0" />
      <path
         style="fill:none;stroke:#ff0000;stroke-width:0.03543307;stroke-miterlimit:4;stroke-opacity:1;stroke-dasharray:none"
         d="m 423.88867,814.94475 53.125,0 0,113.375 -53.125,0 0,-113.375 0,0"
         id="path3897"
         inkscape:connector-curvature="0" />
      <path
         style="fill:none;stroke:#ff0000;stroke-width:0.03543307;stroke-miterlimit:4;stroke-opacity:1;stroke-dasharray:none"
         d="m 423.88867,999.19475 53.125,0 0,14.18755 -53.125,0 0,-14.18755 0,0"
         id="path3899"
         inkscape:connector-curvature="0" />
    </g>
    <g
       id="g3937"
       transform="translate(2.2953543,-7.1499989)">
      <path
         inkscape:connector-curvature="0"
         id="path3901"
         d="m 539.89313,694.476 0,354.3437 177.18746,0 0,-354.3437 -177.18746,0 0,0"
         style="fill:none;stroke:#000000;stroke-width:0.03543307;stroke-miterlimit:4;stroke-dasharray:none" />
      <path
         inkscape:connector-curvature="0"
         id="path3903"
         d="m 601.92438,729.9135 53.12501,0 0,14.1875 -53.12501,0 0,-14.1875 0,0"
         style="fill:none;stroke:#ff0000;stroke-width:0.03543307;stroke-miterlimit:4;stroke-opacity:1;stroke-dasharray:none" />
      <path
         inkscape:connector-curvature="0"
         id="path3905"
         d="m 601.92438,814.94475 53.12501,0 0,113.375 -53.12501,0 0,-113.375 0,0"
         style="fill:none;stroke:#ff0000;stroke-width:0.03543307;stroke-miterlimit:4;stroke-opacity:1;stroke-dasharray:none" />
      <path
         inkscape:connector-curvature="0"
         id="path3907"
         d="m 601.92438,999.19475 53.12501,0 0,14.18755 -53.12501,0 0,-14.18755 0,0"
         style="fill:none;stroke:#ff0000;stroke-width:0.03543307;stroke-miterlimit:4;stroke-opacity:1;stroke-dasharray:none" />
    </g>
    <path
       inkscape:connector-curvature="0"
       id="path3943"
       d="m 10.692421,332.99525 0,354.34374 177.187449,0 0,-354.34374 -177.187449,0 0,0"
       style="fill:none;stroke:#000000;stroke-width:0.03543307;stroke-miterlimit:4;stroke-dasharray:none" />
    <path
       inkscape:connector-curvature="0"
       id="path3945"
       d="m 76.924588,364.95279 53.125002,0 0,14.1875 -53.125002,0 0,-14.1875 0,0"
       style="fill:none;stroke:#ff0000;stroke-width:0.03543307;stroke-miterlimit:4;stroke-opacity:1;stroke-dasharray:none" />
    <path
       inkscape:connector-curvature="0"
       id="path3947"
       d="m 76.924588,449.98404 53.125002,0 0,113.375 -53.125002,0 0,-113.375 0,0"
       style="fill:none;stroke:#ff0000;stroke-width:0.03543307;stroke-miterlimit:4;stroke-opacity:1;stroke-dasharray:none" />
    <path
       inkscape:connector-curvature="0"
       id="path3949"
       d="m 76.924588,634.23404 53.125002,0 0,14.18755 -53.125002,0 0,-14.18755 0,0"
       style="fill:none;stroke:#ff0000;stroke-width:0.03543307;stroke-miterlimit:4;stroke-opacity:1;stroke-dasharray:none" />
    <g
       transform="translate(5.5586456,-361.48075)"
       id="g3951">
      <path
         inkscape:connector-curvature="0"
         id="path3953"
         d="m 182.29913,694.476 0,354.3437 177.18746,0 0,-354.3437 -177.18746,0 0,0"
         style="fill:none;stroke:#000000;stroke-width:0.03543307;stroke-miterlimit:4;stroke-dasharray:none" />
      <path
         inkscape:connector-curvature="0"
         id="path3955"
         d="m 244.33038,729.9135 53.12501,0 0,14.1875 -53.12501,0 0,-14.1875 0,0"
         style="fill:none;stroke:#ff0000;stroke-width:0.03543307;stroke-miterlimit:4;stroke-opacity:1;stroke-dasharray:none" />
      <path
         inkscape:connector-curvature="0"
         id="path3957"
         d="m 244.33038,814.94475 53.12501,0 0,113.375 -53.12501,0 0,-113.375 0,0"
         style="fill:none;stroke:#ff0000;stroke-width:0.03543307;stroke-miterlimit:4;stroke-opacity:1;stroke-dasharray:none" />
      <path
         inkscape:connector-curvature="0"
         id="path3959"
         d="m 244.33038,999.19475 53.12501,0 0,14.18755 -53.12501,0 0,-14.18755 0,0"
         style="fill:none;stroke:#ff0000;stroke-width:0.03543307;stroke-miterlimit:4;stroke-opacity:1;stroke-dasharray:none" />
    </g>
    <g
       transform="translate(3.16571,-361.48075)"
       id="g3961">
      <path
         inkscape:connector-curvature="0"
         id="path3963"
         d="m 361.85742,694.476 0,354.3437 177.18745,0 0,-354.3437 -177.18745,0 0,0"
         style="fill:none;stroke:#000000;stroke-width:0.03543307;stroke-miterlimit:4;stroke-dasharray:none" />
      <path
         inkscape:connector-curvature="0"
         id="path3965"
         d="m 423.88867,729.9135 53.125,0 0,14.1875 -53.125,0 0,-14.1875 0,0"
         style="fill:none;stroke:#ff0000;stroke-width:0.03543307;stroke-miterlimit:4;stroke-opacity:1;stroke-dasharray:none" />
      <path
         inkscape:connector-curvature="0"
         id="path3967"
         d="m 423.88867,814.94475 53.125,0 0,113.375 -53.125,0 0,-113.375 0,0"
         style="fill:none;stroke:#ff0000;stroke-width:0.03543307;stroke-miterlimit:4;stroke-opacity:1;stroke-dasharray:none" />
      <path
         inkscape:connector-curvature="0"
         id="path3969"
         d="m 423.88867,999.19475 53.125,0 0,14.18755 -53.125,0 0,-14.18755 0,0"
         style="fill:none;stroke:#ff0000;stroke-width:0.03543307;stroke-miterlimit:4;stroke-opacity:1;stroke-dasharray:none" />
    </g>
    <g
       transform="translate(2.2953543,-361.48075)"
       id="g3971">
      <path
         style="fill:none;stroke:#000000;stroke-width:0.03543307;stroke-miterlimit:4;stroke-dasharray:none"
         d="m 539.89313,694.476 0,354.3437 177.18746,0 0,-354.3437 -177.18746,0 0,0"
         id="path3973"
         inkscape:connector-curvature="0" />
      <path
         style="fill:none;stroke:#ff0000;stroke-width:0.03543307;stroke-miterlimit:4;stroke-opacity:1;stroke-dasharray:none"
         d="m 601.92438,729.9135 53.12501,0 0,14.1875 -53.12501,0 0,-14.1875 0,0"
         id="path3975"
         inkscape:connector-curvature="0" />
      <path
         style="fill:none;stroke:#ff0000;stroke-width:0.03543307;stroke-miterlimit:4;stroke-opacity:1;stroke-dasharray:none"
         d="m 601.92438,814.94475 53.12501,0 0,113.375 -53.12501,0 0,-113.375 0,0"
         id="path3977"
         inkscape:connector-curvature="0" />
      <path
         style="fill:none;stroke:#ff0000;stroke-width:0.03543307;stroke-miterlimit:4;stroke-opacity:1;stroke-dasharray:none"
         d="m 601.92438,999.19475 53.12501,0 0,14.18755 -53.12501,0 0,-14.18755 0,0"
         id="path3979"
         inkscape:connector-curvature="0" />
    </g>
  </g>
</svg>
