solid front-fix
facet normal 0.0 0.0 -1.0
  outer loop
    vertex 17.0 4.1 0.0
    vertex 15.1 -0.10000000000000017 0.0
    vertex 15.1 4.1 0.0
  endloop
endfacet
facet normal 0.0 0.0 -1.0
  outer loop
    vertex 15.1 -0.10000000000000017 0.0
    vertex 17.0 4.1 0.0
    vertex 17.0 -0.09999999999999981 0.0
  endloop
endfacet
facet normal 0.0 1.0 0.0
  outer loop
    vertex -0.09999999999999981 6.0 -5.0
    vertex 7.5 6.0 -3.9999999999999996
    vertex 15.1 6.0 -5.0
  endloop
endfacet
facet normal 0.0 1.0 0.0
  outer loop
    vertex 7.5 6.0 -3.9999999999999996
    vertex -0.09999999999999981 6.0 -5.0
    vertex 7.111771432346219 6.0 -3.948888739433602
  endloop
endfacet
facet normal 0.0 1.0 0.0
  outer loop
    vertex 7.111771432346219 6.0 -3.948888739433602
    vertex -0.09999999999999981 6.0 -5.0
    vertex 6.75 6.0 -3.7990381056766576
  endloop
endfacet
facet normal 0.0 1.0 0.0
  outer loop
    vertex 6.75 6.0 -3.7990381056766576
    vertex -0.09999999999999981 6.0 -5.0
    vertex -1.9999999999999991 6.0 0.0
  endloop
endfacet
facet normal 0.0 1.0 0.0
  outer loop
    vertex 6.75 6.0 -3.7990381056766576
    vertex -1.9999999999999991 6.0 0.0
    vertex 6.439339828220179 6.0 -3.560660171779821
  endloop
endfacet
facet normal 0.0 1.0 0.0
  outer loop
    vertex 6.439339828220179 6.0 -3.560660171779821
    vertex -1.9999999999999991 6.0 0.0
    vertex 6.200961894323342 6.0 -3.2499999999999996
  endloop
endfacet
facet normal 0.0 1.0 0.0
  outer loop
    vertex 6.200961894323342 6.0 -3.2499999999999996
    vertex -1.9999999999999991 6.0 0.0
    vertex 6.0511112605663975 6.0 -2.888228567653781
  endloop
endfacet
facet normal 0.0 1.0 0.0
  outer loop
    vertex 6.0511112605663975 6.0 -2.888228567653781
    vertex -1.9999999999999991 6.0 0.0
    vertex 6.0 6.0 -2.5
  endloop
endfacet
facet normal 0.0 1.0 0.0
  outer loop
    vertex 6.0 6.0 -2.5
    vertex -1.9999999999999991 6.0 0.0
    vertex 6.0511112605663975 6.0 -2.111771432346219
  endloop
endfacet
facet normal 0.0 1.0 0.0
  outer loop
    vertex 6.0511112605663975 6.0 -2.111771432346219
    vertex -1.9999999999999991 6.0 0.0
    vertex 6.200961894323342 6.0 -1.7500000000000002
  endloop
endfacet
facet normal 0.0 1.0 0.0
  outer loop
    vertex 6.200961894323342 6.0 -1.7500000000000002
    vertex -1.9999999999999991 6.0 0.0
    vertex 6.439339828220179 6.0 -1.4393398282201786
  endloop
endfacet
facet normal 0.0 1.0 0.0
  outer loop
    vertex 6.439339828220179 6.0 -1.4393398282201786
    vertex -1.9999999999999991 6.0 0.0
    vertex 6.75 6.0 -1.2009618943233422
  endloop
endfacet
facet normal 0.0 1.0 0.0
  outer loop
    vertex 6.75 6.0 -1.2009618943233422
    vertex -1.9999999999999991 6.0 0.0
    vertex 7.111771432346219 6.0 -1.051111260566398
  endloop
endfacet
facet normal 0.0 1.0 0.0
  outer loop
    vertex 7.111771432346219 6.0 -1.051111260566398
    vertex -1.9999999999999991 6.0 0.0
    vertex 7.5 6.0 -1.0000000000000002
  endloop
endfacet
facet normal 0.0 1.0 0.0
  outer loop
    vertex 15.1 6.0 -5.0
    vertex 8.25 6.0 -3.7990381056766584
    vertex 17.0 6.0 0.0
  endloop
endfacet
facet normal 0.0 1.0 0.0
  outer loop
    vertex 8.25 6.0 -3.7990381056766584
    vertex 15.1 6.0 -5.0
    vertex 7.888228567653781 6.0 -3.948888739433602
  endloop
endfacet
facet normal 0.0 1.0 0.0
  outer loop
    vertex 7.888228567653781 6.0 -3.948888739433602
    vertex 15.1 6.0 -5.0
    vertex 7.5 6.0 -3.9999999999999996
  endloop
endfacet
facet normal 0.0 1.0 0.0
  outer loop
    vertex 17.0 6.0 0.0
    vertex 8.25 6.0 -3.7990381056766584
    vertex 8.560660171779821 6.0 -3.5606601717798223
  endloop
endfacet
facet normal 0.0 1.0 0.0
  outer loop
    vertex 17.0 6.0 0.0
    vertex 8.560660171779821 6.0 -3.5606601717798223
    vertex 8.799038105676658 6.0 -3.2500000000000004
  endloop
endfacet
facet normal 0.0 1.0 0.0
  outer loop
    vertex 17.0 6.0 0.0
    vertex 8.799038105676658 6.0 -3.2500000000000004
    vertex 8.948888739433603 6.0 -2.8882285676537824
  endloop
endfacet
facet normal 0.0 1.0 0.0
  outer loop
    vertex 17.0 6.0 0.0
    vertex 8.948888739433603 6.0 -2.8882285676537824
    vertex 9.0 6.0 -2.5000000000000004
  endloop
endfacet
facet normal 0.0 1.0 0.0
  outer loop
    vertex 17.0 6.0 0.0
    vertex 9.0 6.0 -2.5000000000000004
    vertex 8.948888739433603 6.0 -2.11177143234622
  endloop
endfacet
facet normal 0.0 1.0 0.0
  outer loop
    vertex 17.0 6.0 0.0
    vertex 8.948888739433603 6.0 -2.11177143234622
    vertex 8.79903810567666 6.0 -1.750000000000001
  endloop
endfacet
facet normal 0.0 1.0 0.0
  outer loop
    vertex 17.0 6.0 0.0
    vertex 8.79903810567666 6.0 -1.750000000000001
    vertex 8.560660171779821 6.0 -1.4393398282201793
  endloop
endfacet
facet normal 0.0 1.0 0.0
  outer loop
    vertex 17.0 6.0 0.0
    vertex 8.560660171779821 6.0 -1.4393398282201793
    vertex 8.250000000000002 6.0 -1.2009618943233422
  endloop
endfacet
facet normal 0.0 1.0 0.0
  outer loop
    vertex 17.0 6.0 0.0
    vertex 8.250000000000002 6.0 -1.2009618943233422
    vertex 7.888228567653783 6.0 -1.051111260566398
  endloop
endfacet
facet normal 0.0 1.0 0.0
  outer loop
    vertex 17.0 6.0 0.0
    vertex 7.888228567653783 6.0 -1.051111260566398
    vertex 7.5 6.0 -1.0000000000000002
  endloop
endfacet
facet normal 0.0 1.0 0.0
  outer loop
    vertex 17.0 6.0 0.0
    vertex 7.5 6.0 -1.0000000000000002
    vertex -1.9999999999999991 6.0 0.0
  endloop
endfacet
facet normal 0.0 1.0 0.0
  outer loop
    vertex 17.0 6.0 0.0
    vertex -1.9999999999999991 6.0 0.0
    vertex -1.9999999999999991 6.0 4.999999999999998
  endloop
endfacet
facet normal 0.0 1.0 0.0
  outer loop
    vertex 17.0 6.0 0.0
    vertex -1.9999999999999991 6.0 4.999999999999998
    vertex 17.0 6.0 4.999999999999998
  endloop
endfacet
facet normal 1.0 0.0 0.0
  outer loop
    vertex 17.0 -0.09999999999999981 0.0
    vertex 17.0 -1.9999999999999998 4.999999999999998
    vertex 17.0 -1.9999999999999998 0.0
  endloop
endfacet
facet normal 1.0 0.0 0.0
  outer loop
    vertex 17.0 -1.9999999999999998 4.999999999999998
    vertex 17.0 -0.09999999999999981 0.0
    vertex 17.0 6.0 4.999999999999998
  endloop
endfacet
facet normal 1.0 0.0 0.0
  outer loop
    vertex 17.0 6.0 4.999999999999998
    vertex 17.0 -0.09999999999999981 0.0
    vertex 17.0 4.1 0.0
  endloop
endfacet
facet normal 1.0 0.0 0.0
  outer loop
    vertex 17.0 6.0 4.999999999999998
    vertex 17.0 4.1 0.0
    vertex 17.0 6.0 0.0
  endloop
endfacet
facet normal 0.0 0.0 1.0
  outer loop
    vertex -1.9999999999999991 -1.9999999999999998 4.999999999999998
    vertex 0.09999999999999981 0.10000000000000017 4.999999999999998
    vertex -1.9999999999999991 6.0 4.999999999999998
  endloop
endfacet
facet normal 0.0 0.0 1.0
  outer loop
    vertex 0.09999999999999981 0.10000000000000017 4.999999999999998
    vertex -1.9999999999999991 -1.9999999999999998 4.999999999999998
    vertex 17.0 -1.9999999999999998 4.999999999999998
  endloop
endfacet
facet normal 0.0 0.0 1.0
  outer loop
    vertex 0.09999999999999981 0.10000000000000017 4.999999999999998
    vertex 17.0 -1.9999999999999998 4.999999999999998
    vertex 14.9 0.10000000000000017 4.999999999999998
  endloop
endfacet
facet normal 0.0 0.0 1.0
  outer loop
    vertex 14.9 0.10000000000000017 4.999999999999998
    vertex 17.0 -1.9999999999999998 4.999999999999998
    vertex 14.9 3.9 4.999999999999998
  endloop
endfacet
facet normal 0.0 0.0 1.0
  outer loop
    vertex -1.9999999999999991 6.0 4.999999999999998
    vertex 0.09999999999999981 3.9 4.999999999999998
    vertex 17.0 6.0 4.999999999999998
  endloop
endfacet
facet normal 0.0 0.0 1.0
  outer loop
    vertex 0.09999999999999981 3.9 4.999999999999998
    vertex -1.9999999999999991 6.0 4.999999999999998
    vertex 0.09999999999999981 0.10000000000000017 4.999999999999998
  endloop
endfacet
facet normal 0.0 0.0 1.0
  outer loop
    vertex 17.0 6.0 4.999999999999998
    vertex 0.09999999999999981 3.9 4.999999999999998
    vertex 14.9 3.9 4.999999999999998
  endloop
endfacet
facet normal 0.0 0.0 1.0
  outer loop
    vertex 17.0 6.0 4.999999999999998
    vertex 14.9 3.9 4.999999999999998
    vertex 17.0 -1.9999999999999998 4.999999999999998
  endloop
endfacet
facet normal -1.0 0.0 0.0
  outer loop
    vertex -1.9999999999999991 6.0 4.999999999999998
    vertex -1.9999999999999991 -1.9999999999999998 0.0
    vertex -1.9999999999999991 -1.9999999999999998 4.999999999999998
  endloop
endfacet
facet normal -1.0 0.0 0.0
  outer loop
    vertex -1.9999999999999991 -1.9999999999999998 0.0
    vertex -1.9999999999999991 6.0 4.999999999999998
    vertex -1.9999999999999991 -0.09999999999999981 0.0
  endloop
endfacet
facet normal -1.0 0.0 0.0
  outer loop
    vertex -1.9999999999999991 -0.09999999999999981 0.0
    vertex -1.9999999999999991 6.0 4.999999999999998
    vertex -1.9999999999999991 4.1 0.0
  endloop
endfacet
facet normal -1.0 0.0 0.0
  outer loop
    vertex -1.9999999999999991 4.1 0.0
    vertex -1.9999999999999991 6.0 4.999999999999998
    vertex -1.9999999999999991 6.0 0.0
  endloop
endfacet
facet normal 0.0 -1.0 0.0
  outer loop
    vertex 15.1 -1.9999999999999998 -5.0
    vertex 7.5 -1.9999999999999998 -3.9999999999999996
    vertex -0.09999999999999981 -1.9999999999999998 -5.0
  endloop
endfacet
facet normal 0.0 -1.0 0.0
  outer loop
    vertex 7.5 -1.9999999999999998 -3.9999999999999996
    vertex 15.1 -1.9999999999999998 -5.0
    vertex 7.8882285676537816 -1.9999999999999998 -3.948888739433602
  endloop
endfacet
facet normal 0.0 -1.0 0.0
  outer loop
    vertex 7.8882285676537816 -1.9999999999999998 -3.948888739433602
    vertex 15.1 -1.9999999999999998 -5.0
    vertex 8.25 -1.9999999999999998 -3.7990381056766576
  endloop
endfacet
facet normal 0.0 -1.0 0.0
  outer loop
    vertex 8.25 -1.9999999999999998 -3.7990381056766576
    vertex 15.1 -1.9999999999999998 -5.0
    vertex 17.0 -1.9999999999999998 0.0
  endloop
endfacet
facet normal 0.0 -1.0 0.0
  outer loop
    vertex 8.25 -1.9999999999999998 -3.7990381056766576
    vertex 17.0 -1.9999999999999998 0.0
    vertex 8.560660171779821 -1.9999999999999998 -3.560660171779821
  endloop
endfacet
facet normal 0.0 -1.0 0.0
  outer loop
    vertex 8.560660171779821 -1.9999999999999998 -3.560660171779821
    vertex 17.0 -1.9999999999999998 0.0
    vertex 8.79903810567666 -1.9999999999999998 -3.2499999999999996
  endloop
endfacet
facet normal 0.0 -1.0 0.0
  outer loop
    vertex 8.79903810567666 -1.9999999999999998 -3.2499999999999996
    vertex 17.0 -1.9999999999999998 0.0
    vertex 8.948888739433603 -1.9999999999999998 -2.888228567653781
  endloop
endfacet
facet normal 0.0 -1.0 0.0
  outer loop
    vertex 8.948888739433603 -1.9999999999999998 -2.888228567653781
    vertex 17.0 -1.9999999999999998 0.0
    vertex 9.0 -1.9999999999999998 -2.5
  endloop
endfacet
facet normal 0.0 -1.0 0.0
  outer loop
    vertex 9.0 -1.9999999999999998 -2.5
    vertex 17.0 -1.9999999999999998 0.0
    vertex 8.948888739433603 -1.9999999999999998 -2.111771432346219
  endloop
endfacet
facet normal 0.0 -1.0 0.0
  outer loop
    vertex 8.948888739433603 -1.9999999999999998 -2.111771432346219
    vertex 17.0 -1.9999999999999998 0.0
    vertex 8.799038105676658 -1.9999999999999998 -1.7500000000000002
  endloop
endfacet
facet normal 0.0 -1.0 0.0
  outer loop
    vertex 8.799038105676658 -1.9999999999999998 -1.7500000000000002
    vertex 17.0 -1.9999999999999998 0.0
    vertex 8.560660171779821 -1.9999999999999998 -1.4393398282201786
  endloop
endfacet
facet normal 0.0 -1.0 0.0
  outer loop
    vertex 8.560660171779821 -1.9999999999999998 -1.4393398282201786
    vertex 17.0 -1.9999999999999998 0.0
    vertex 8.25 -1.9999999999999998 -1.2009618943233422
  endloop
endfacet
facet normal 0.0 -1.0 0.0
  outer loop
    vertex 8.25 -1.9999999999999998 -1.2009618943233422
    vertex 17.0 -1.9999999999999998 0.0
    vertex 7.8882285676537816 -1.9999999999999998 -1.051111260566398
  endloop
endfacet
facet normal 0.0 -1.0 0.0
  outer loop
    vertex 7.8882285676537816 -1.9999999999999998 -1.051111260566398
    vertex 17.0 -1.9999999999999998 0.0
    vertex 7.5 -1.9999999999999998 -1.0000000000000002
  endloop
endfacet
facet normal 0.0 -1.0 0.0
  outer loop
    vertex -0.09999999999999981 -1.9999999999999998 -5.0
    vertex 6.75 -1.9999999999999998 -3.7990381056766584
    vertex -1.9999999999999991 -1.9999999999999998 0.0
  endloop
endfacet
facet normal 0.0 -1.0 0.0
  outer loop
    vertex 6.75 -1.9999999999999998 -3.7990381056766584
    vertex -0.09999999999999981 -1.9999999999999998 -5.0
    vertex 7.11177143234622 -1.9999999999999998 -3.948888739433602
  endloop
endfacet
facet normal 0.0 -1.0 0.0
  outer loop
    vertex 7.11177143234622 -1.9999999999999998 -3.948888739433602
    vertex -0.09999999999999981 -1.9999999999999998 -5.0
    vertex 7.5 -1.9999999999999998 -3.9999999999999996
  endloop
endfacet
facet normal 0.0 -1.0 0.0
  outer loop
    vertex -1.9999999999999991 -1.9999999999999998 0.0
    vertex 6.75 -1.9999999999999998 -3.7990381056766584
    vertex 6.439339828220179 -1.9999999999999998 -3.5606601717798223
  endloop
endfacet
facet normal 0.0 -1.0 0.0
  outer loop
    vertex -1.9999999999999991 -1.9999999999999998 0.0
    vertex 6.439339828220179 -1.9999999999999998 -3.5606601717798223
    vertex 6.200961894323343 -1.9999999999999998 -3.2500000000000004
  endloop
endfacet
facet normal 0.0 -1.0 0.0
  outer loop
    vertex -1.9999999999999991 -1.9999999999999998 0.0
    vertex 6.200961894323343 -1.9999999999999998 -3.2500000000000004
    vertex 6.0511112605663975 -1.9999999999999998 -2.8882285676537824
  endloop
endfacet
facet normal 0.0 -1.0 0.0
  outer loop
    vertex -1.9999999999999991 -1.9999999999999998 0.0
    vertex 6.0511112605663975 -1.9999999999999998 -2.8882285676537824
    vertex 6.0 -1.9999999999999998 -2.5000000000000004
  endloop
endfacet
facet normal 0.0 -1.0 0.0
  outer loop
    vertex -1.9999999999999991 -1.9999999999999998 0.0
    vertex 6.0 -1.9999999999999998 -2.5000000000000004
    vertex 6.0511112605663975 -1.9999999999999998 -2.11177143234622
  endloop
endfacet
facet normal 0.0 -1.0 0.0
  outer loop
    vertex -1.9999999999999991 -1.9999999999999998 0.0
    vertex 6.0511112605663975 -1.9999999999999998 -2.11177143234622
    vertex 6.200961894323342 -1.9999999999999998 -1.750000000000001
  endloop
endfacet
facet normal 0.0 -1.0 0.0
  outer loop
    vertex -1.9999999999999991 -1.9999999999999998 0.0
    vertex 6.200961894323342 -1.9999999999999998 -1.750000000000001
    vertex 6.439339828220179 -1.9999999999999998 -1.4393398282201793
  endloop
endfacet
facet normal 0.0 -1.0 0.0
  outer loop
    vertex -1.9999999999999991 -1.9999999999999998 0.0
    vertex 6.439339828220179 -1.9999999999999998 -1.4393398282201793
    vertex 6.749999999999999 -1.9999999999999998 -1.2009618943233422
  endloop
endfacet
facet normal 0.0 -1.0 0.0
  outer loop
    vertex -1.9999999999999991 -1.9999999999999998 0.0
    vertex 6.749999999999999 -1.9999999999999998 -1.2009618943233422
    vertex 7.111771432346218 -1.9999999999999998 -1.051111260566398
  endloop
endfacet
facet normal 0.0 -1.0 0.0
  outer loop
    vertex -1.9999999999999991 -1.9999999999999998 0.0
    vertex 7.111771432346218 -1.9999999999999998 -1.051111260566398
    vertex 7.5 -1.9999999999999998 -1.0000000000000002
  endloop
endfacet
facet normal 0.0 -1.0 0.0
  outer loop
    vertex -1.9999999999999991 -1.9999999999999998 0.0
    vertex 7.5 -1.9999999999999998 -1.0000000000000002
    vertex 17.0 -1.9999999999999998 0.0
  endloop
endfacet
facet normal 0.0 -1.0 0.0
  outer loop
    vertex -1.9999999999999991 -1.9999999999999998 0.0
    vertex 17.0 -1.9999999999999998 0.0
    vertex 17.0 -1.9999999999999998 4.999999999999998
  endloop
endfacet
facet normal 0.0 -1.0 0.0
  outer loop
    vertex -1.9999999999999991 -1.9999999999999998 0.0
    vertex 17.0 -1.9999999999999998 4.999999999999998
    vertex -1.9999999999999991 -1.9999999999999998 4.999999999999998
  endloop
endfacet
facet normal 0.0 0.0 -1.0
  outer loop
    vertex -0.09999999999999981 4.1 0.0
    vertex -1.9999999999999991 -0.09999999999999981 0.0
    vertex -1.9999999999999991 4.1 0.0
  endloop
endfacet
facet normal 0.0 0.0 -1.0
  outer loop
    vertex -1.9999999999999991 -0.09999999999999981 0.0
    vertex -0.09999999999999981 4.1 0.0
    vertex -0.09999999999999981 -0.10000000000000017 0.0
  endloop
endfacet
facet normal 1.0 0.0 0.0
  outer loop
    vertex 14.9 3.9 4.999999999999998
    vertex 14.9 0.10000000000000017 9.0
    vertex 14.9 0.10000000000000017 4.999999999999998
  endloop
endfacet
facet normal 1.0 0.0 0.0
  outer loop
    vertex 14.9 0.10000000000000017 9.0
    vertex 14.9 3.9 4.999999999999998
    vertex 14.9 3.9 9.0
  endloop
endfacet
facet normal 0.0 0.0 -1.0
  outer loop
    vertex 15.1 -0.10000000000000017 -5.0
    vertex -0.09999999999999981 -1.9999999999999998 -5.0
    vertex -0.09999999999999981 -0.10000000000000017 -5.0
  endloop
endfacet
facet normal 0.0 0.0 -1.0
  outer loop
    vertex -0.09999999999999981 -1.9999999999999998 -5.0
    vertex 15.1 -0.10000000000000017 -5.0
    vertex 15.1 -1.9999999999999998 -5.0
  endloop
endfacet
facet normal 0.0 0.0 -1.0
  outer loop
    vertex 15.1 6.0 -5.0
    vertex -0.09999999999999981 4.1 -5.0
    vertex -0.09999999999999981 6.0 -5.0
  endloop
endfacet
facet normal 0.0 0.0 -1.0
  outer loop
    vertex -0.09999999999999981 4.1 -5.0
    vertex 15.1 6.0 -5.0
    vertex 15.1 4.1 -5.0
  endloop
endfacet
facet normal -1.0 0.0 0.0
  outer loop
    vertex 0.09999999999999981 3.9 9.0
    vertex 0.09999999999999981 0.10000000000000017 4.999999999999998
    vertex 0.09999999999999981 0.10000000000000017 9.0
  endloop
endfacet
facet normal -1.0 0.0 0.0
  outer loop
    vertex 0.09999999999999981 0.10000000000000017 4.999999999999998
    vertex 0.09999999999999981 3.9 9.0
    vertex 0.09999999999999981 3.9 4.999999999999998
  endloop
endfacet
facet normal 0.0 0.0 -1.0
  outer loop
    vertex 15.1 4.1 4.0
    vertex -0.10000000000000017 -0.10000000000000017 4.0
    vertex -0.10000000000000017 4.1 4.0
  endloop
endfacet
facet normal 0.0 0.0 -1.0
  outer loop
    vertex -0.10000000000000017 -0.10000000000000017 4.0
    vertex 15.1 4.1 4.0
    vertex 15.1 -0.10000000000000017 4.0
  endloop
endfacet
facet normal -7.602437942349705e-19 -1.0 3.1139749431815087e-18
  outer loop
    vertex 14.16970152015566 0.10000000000000017 10.397975037884107
    vertex 10.5 0.09999999999999981 9.0
    vertex 14.9 0.10000000000000017 9.0
  endloop
endfacet
facet normal -7.602437942349705e-19 -1.0 3.1139749431815087e-18
  outer loop
    vertex 10.5 0.09999999999999981 9.0
    vertex 14.16970152015566 0.10000000000000017 10.397975037884107
    vertex 10.397777478867205 0.09999999999999981 9.77645713530756
  endloop
endfacet
facet normal -7.602437942349705e-19 -1.0 3.1139749431815087e-18
  outer loop
    vertex 10.397777478867205 0.09999999999999981 9.77645713530756
    vertex 14.16970152015566 0.10000000000000017 10.397975037884107
    vertex 10.098076211353318 0.09999999999999981 10.499999999999998
  endloop
endfacet
facet normal -7.602437942349705e-19 -1.0 3.1139749431815087e-18
  outer loop
    vertex 10.098076211353318 0.09999999999999981 10.499999999999998
    vertex 14.16970152015566 0.10000000000000017 10.397975037884107
    vertex 13.178590246976707 0.10000000000000017 11.624909641026267
  endloop
endfacet
facet normal -7.602437942349705e-19 -1.0 3.1139749431815087e-18
  outer loop
    vertex 10.098076211353318 0.09999999999999981 10.499999999999998
    vertex 13.178590246976707 0.10000000000000017 11.624909641026267
    vertex 9.621320343559644 0.09999999999999981 11.121320343559642
  endloop
endfacet
facet normal -7.602437942349705e-19 -1.0 3.1139749431815087e-18
  outer loop
    vertex 9.621320343559644 0.09999999999999981 11.121320343559642
    vertex 13.178590246976707 0.10000000000000017 11.624909641026267
    vertex 9.000000000000002 0.09999999999999981 11.598076211353314
  endloop
endfacet
facet normal -7.602437942349705e-19 -1.0 3.1139749431815087e-18
  outer loop
    vertex 9.000000000000002 0.09999999999999981 11.598076211353314
    vertex 13.178590246976707 0.10000000000000017 11.624909641026267
    vertex 8.276457135307567 0.09999999999999981 11.897777478867203
  endloop
endfacet
facet normal -7.602437942349705e-19 -1.0 3.1139749431815087e-18
  outer loop
    vertex 8.276457135307567 0.09999999999999981 11.897777478867203
    vertex 13.178590246976707 0.10000000000000017 11.624909641026267
    vertex 11.96542271235322 0.10000000000000017 12.632825614282767
  endloop
endfacet
facet normal -7.602437942349705e-19 -1.0 3.1139749431815087e-18
  outer loop
    vertex 8.276457135307567 0.09999999999999981 11.897777478867203
    vertex 11.96542271235322 0.10000000000000017 12.632825614282767
    vertex 7.5 0.09999999999999981 12.0
  endloop
endfacet
facet normal -7.602437942349705e-19 -1.0 3.1139749431815087e-18
  outer loop
    vertex 14.9 0.10000000000000017 9.0
    vertex 0.09999999999999981 0.10000000000000017 4.999999999999998
    vertex 14.9 0.10000000000000017 4.999999999999998
  endloop
endfacet
facet normal -7.602437942349705e-19 -1.0 3.1139749431815087e-18
  outer loop
    vertex 0.09999999999999981 0.10000000000000017 4.999999999999998
    vertex 14.9 0.10000000000000017 9.0
    vertex 0.09999999999999981 0.10000000000000017 9.0
  endloop
endfacet
facet normal -7.602437942349705e-19 -1.0 3.1139749431815087e-18
  outer loop
    vertex 0.09999999999999981 0.10000000000000017 9.0
    vertex 14.9 0.10000000000000017 9.0
    vertex 10.5 0.09999999999999981 9.0
  endloop
endfacet
facet normal -7.602437942349705e-19 -1.0 3.1139749431815087e-18
  outer loop
    vertex 0.09999999999999981 0.10000000000000017 9.0
    vertex 10.5 0.09999999999999981 9.0
    vertex 4.5 0.09999999999999981 9.0
  endloop
endfacet
facet normal -7.602437942349705e-19 -1.0 3.1139749431815087e-18
  outer loop
    vertex 0.09999999999999981 0.10000000000000017 9.0
    vertex 4.5 0.09999999999999981 9.0
    vertex 4.602222521132796 0.09999999999999981 9.776457135307563
  endloop
endfacet
facet normal -7.602437942349705e-19 -1.0 3.1139749431815087e-18
  outer loop
    vertex 0.09999999999999981 0.10000000000000017 9.0
    vertex 4.602222521132796 0.09999999999999981 9.776457135307563
    vertex 0.8302984798443399 0.10000000000000017 10.397975037884107
  endloop
endfacet
facet normal -7.602437942349705e-19 -1.0 3.1139749431815087e-18
  outer loop
    vertex 0.8302984798443399 0.10000000000000017 10.397975037884107
    vertex 4.602222521132796 0.09999999999999981 9.776457135307563
    vertex 4.901923788646684 0.09999999999999981 10.5
  endloop
endfacet
facet normal -7.602437942349705e-19 -1.0 3.1139749431815087e-18
  outer loop
    vertex 0.8302984798443399 0.10000000000000017 10.397975037884107
    vertex 4.901923788646684 0.09999999999999981 10.5
    vertex 1.8214097530232944 0.10000000000000017 11.624909641026271
  endloop
endfacet
facet normal -7.602437942349705e-19 -1.0 3.1139749431815087e-18
  outer loop
    vertex 1.8214097530232944 0.10000000000000017 11.624909641026271
    vertex 4.901923788646684 0.09999999999999981 10.5
    vertex 5.378679656440358 0.09999999999999981 11.121320343559642
  endloop
endfacet
facet normal -7.602437942349705e-19 -1.0 3.1139749431815087e-18
  outer loop
    vertex 1.8214097530232944 0.10000000000000017 11.624909641026271
    vertex 5.378679656440358 0.09999999999999981 11.121320343559642
    vertex 6.0 0.09999999999999981 11.598076211353314
  endloop
endfacet
facet normal -7.602437942349705e-19 -1.0 3.1139749431815087e-18
  outer loop
    vertex 1.8214097530232944 0.10000000000000017 11.624909641026271
    vertex 6.0 0.09999999999999981 11.598076211353314
    vertex 6.723542864692438 0.09999999999999981 11.897777478867205
  endloop
endfacet
facet normal -7.602437942349705e-19 -1.0 3.1139749431815087e-18
  outer loop
    vertex 1.8214097530232944 0.10000000000000017 11.624909641026271
    vertex 6.723542864692438 0.09999999999999981 11.897777478867205
    vertex 3.0345772876467803 0.10000000000000017 12.63282561428277
  endloop
endfacet
facet normal -7.602437942349705e-19 -1.0 3.1139749431815087e-18
  outer loop
    vertex 3.0345772876467803 0.10000000000000017 12.63282561428277
    vertex 6.723542864692438 0.09999999999999981 11.897777478867205
    vertex 7.5 0.09999999999999981 12.0
  endloop
endfacet
facet normal -7.602437942349705e-19 -1.0 3.1139749431815087e-18
  outer loop
    vertex 3.0345772876467803 0.10000000000000017 12.63282561428277
    vertex 7.5 0.09999999999999981 12.0
    vertex 11.96542271235322 0.10000000000000017 12.632825614282767
  endloop
endfacet
facet normal -7.602437942349705e-19 -1.0 3.1139749431815087e-18
  outer loop
    vertex 3.0345772876467803 0.10000000000000017 12.63282561428277
    vertex 11.96542271235322 0.10000000000000017 12.632825614282767
    vertex 10.577638762361047 0.10000000000000017 13.38230929279361
  endloop
endfacet
facet normal -7.602437942349705e-19 -1.0 3.1139749431815087e-18
  outer loop
    vertex 3.0345772876467803 0.10000000000000017 12.63282561428277
    vertex 10.577638762361047 0.10000000000000017 13.38230929279361
    vertex 4.422361237638953 0.10000000000000017 13.382309292793606
  endloop
endfacet
facet normal -7.602437942349705e-19 -1.0 3.1139749431815087e-18
  outer loop
    vertex 4.422361237638953 0.10000000000000017 13.382309292793606
    vertex 10.577638762361047 0.10000000000000017 13.38230929279361
    vertex 5.930493536063298 0.10000000000000017 13.84405277857259
  endloop
endfacet
facet normal -7.602437942349705e-19 -1.0 3.1139749431815087e-18
  outer loop
    vertex 5.930493536063298 0.10000000000000017 13.84405277857259
    vertex 10.577638762361047 0.10000000000000017 13.38230929279361
    vertex 9.069506463936703 0.10000000000000017 13.84405277857259
  endloop
endfacet
facet normal -7.602437942349705e-19 -1.0 3.1139749431815087e-18
  outer loop
    vertex 5.930493536063298 0.10000000000000017 13.84405277857259
    vertex 9.069506463936703 0.10000000000000017 13.84405277857259
    vertex 7.5 0.10000000000000017 14.0
  endloop
endfacet
facet normal 0.0 1.0 0.0
  outer loop
    vertex 0.8302984798443399 3.9 10.397975037884107
    vertex 4.5 3.9 9.0
    vertex 0.09999999999999981 3.9 9.0
  endloop
endfacet
facet normal 0.0 1.0 0.0
  outer loop
    vertex 4.5 3.9 9.0
    vertex 0.8302984798443399 3.9 10.397975037884107
    vertex 4.602222521132796 3.9 9.776457135307563
  endloop
endfacet
facet normal 0.0 1.0 0.0
  outer loop
    vertex 4.602222521132796 3.9 9.776457135307563
    vertex 0.8302984798443399 3.9 10.397975037884107
    vertex 4.901923788646684 3.9 10.5
  endloop
endfacet
facet normal 0.0 1.0 0.0
  outer loop
    vertex 4.901923788646684 3.9 10.5
    vertex 0.8302984798443399 3.9 10.397975037884107
    vertex 1.8214097530232944 3.9 11.624909641026271
  endloop
endfacet
facet normal 0.0 1.0 0.0
  outer loop
    vertex 4.901923788646684 3.9 10.5
    vertex 1.8214097530232944 3.9 11.624909641026271
    vertex 5.378679656440358 3.9 11.121320343559642
  endloop
endfacet
facet normal 0.0 1.0 0.0
  outer loop
    vertex 5.378679656440358 3.9 11.121320343559642
    vertex 1.8214097530232944 3.9 11.624909641026271
    vertex 6.0 3.9 11.598076211353314
  endloop
endfacet
facet normal 0.0 1.0 0.0
  outer loop
    vertex 6.0 3.9 11.598076211353314
    vertex 1.8214097530232944 3.9 11.624909641026271
    vertex 6.723542864692438 3.9 11.897777478867205
  endloop
endfacet
facet normal 0.0 1.0 0.0
  outer loop
    vertex 6.723542864692438 3.9 11.897777478867205
    vertex 1.8214097530232944 3.9 11.624909641026271
    vertex 3.0345772876467803 3.9 12.63282561428277
  endloop
endfacet
facet normal 0.0 1.0 0.0
  outer loop
    vertex 6.723542864692438 3.9 11.897777478867205
    vertex 3.0345772876467803 3.9 12.63282561428277
    vertex 7.5 3.9 12.0
  endloop
endfacet
facet normal 0.0 1.0 0.0
  outer loop
    vertex 7.5 3.9 12.0
    vertex 3.0345772876467803 3.9 12.63282561428277
    vertex 11.96542271235322 3.9 12.632825614282767
  endloop
endfacet
facet normal 0.0 1.0 0.0
  outer loop
    vertex 11.96542271235322 3.9 12.632825614282767
    vertex 3.0345772876467803 3.9 12.63282561428277
    vertex 10.577638762361047 3.9 13.38230929279361
  endloop
endfacet
facet normal 0.0 1.0 0.0
  outer loop
    vertex 10.577638762361047 3.9 13.38230929279361
    vertex 3.0345772876467803 3.9 12.63282561428277
    vertex 4.422361237638953 3.9 13.382309292793606
  endloop
endfacet
facet normal 0.0 1.0 0.0
  outer loop
    vertex 10.577638762361047 3.9 13.38230929279361
    vertex 4.422361237638953 3.9 13.382309292793606
    vertex 5.930493536063298 3.9 13.84405277857259
  endloop
endfacet
facet normal 0.0 1.0 0.0
  outer loop
    vertex 10.577638762361047 3.9 13.38230929279361
    vertex 5.930493536063298 3.9 13.84405277857259
    vertex 9.069506463936703 3.9 13.84405277857259
  endloop
endfacet
facet normal 0.0 1.0 0.0
  outer loop
    vertex 9.069506463936703 3.9 13.84405277857259
    vertex 5.930493536063298 3.9 13.84405277857259
    vertex 7.5 3.9 14.0
  endloop
endfacet
facet normal 0.0 1.0 0.0
  outer loop
    vertex 0.09999999999999981 3.9 9.0
    vertex 14.9 3.9 4.999999999999998
    vertex 0.09999999999999981 3.9 4.999999999999998
  endloop
endfacet
facet normal 0.0 1.0 0.0
  outer loop
    vertex 14.9 3.9 4.999999999999998
    vertex 0.09999999999999981 3.9 9.0
    vertex 14.9 3.9 9.0
  endloop
endfacet
facet normal 0.0 1.0 0.0
  outer loop
    vertex 14.9 3.9 9.0
    vertex 0.09999999999999981 3.9 9.0
    vertex 4.5 3.9 9.0
  endloop
endfacet
facet normal 0.0 1.0 0.0
  outer loop
    vertex 14.9 3.9 9.0
    vertex 4.5 3.9 9.0
    vertex 10.5 3.9 9.0
  endloop
endfacet
facet normal 0.0 1.0 0.0
  outer loop
    vertex 14.9 3.9 9.0
    vertex 10.5 3.9 9.0
    vertex 10.397777478867205 3.9 9.77645713530756
  endloop
endfacet
facet normal 0.0 1.0 0.0
  outer loop
    vertex 14.9 3.9 9.0
    vertex 10.397777478867205 3.9 9.77645713530756
    vertex 14.16970152015566 3.9 10.397975037884107
  endloop
endfacet
facet normal 0.0 1.0 0.0
  outer loop
    vertex 14.16970152015566 3.9 10.397975037884107
    vertex 10.397777478867205 3.9 9.77645713530756
    vertex 10.098076211353318 3.9 10.499999999999998
  endloop
endfacet
facet normal 0.0 1.0 0.0
  outer loop
    vertex 14.16970152015566 3.9 10.397975037884107
    vertex 10.098076211353318 3.9 10.499999999999998
    vertex 13.178590246976707 3.9 11.624909641026267
  endloop
endfacet
facet normal 0.0 1.0 0.0
  outer loop
    vertex 13.178590246976707 3.9 11.624909641026267
    vertex 10.098076211353318 3.9 10.499999999999998
    vertex 9.621320343559644 3.9 11.121320343559642
  endloop
endfacet
facet normal 0.0 1.0 0.0
  outer loop
    vertex 13.178590246976707 3.9 11.624909641026267
    vertex 9.621320343559644 3.9 11.121320343559642
    vertex 9.000000000000002 3.9 11.598076211353314
  endloop
endfacet
facet normal 0.0 1.0 0.0
  outer loop
    vertex 13.178590246976707 3.9 11.624909641026267
    vertex 9.000000000000002 3.9 11.598076211353314
    vertex 8.276457135307567 3.9 11.897777478867203
  endloop
endfacet
facet normal 0.0 1.0 0.0
  outer loop
    vertex 13.178590246976707 3.9 11.624909641026267
    vertex 8.276457135307567 3.9 11.897777478867203
    vertex 11.96542271235322 3.9 12.632825614282767
  endloop
endfacet
facet normal 0.0 1.0 0.0
  outer loop
    vertex 11.96542271235322 3.9 12.632825614282767
    vertex 8.276457135307567 3.9 11.897777478867203
    vertex 7.5 3.9 12.0
  endloop
endfacet
facet normal -0.8362213540817026 -9.923798983364193e-33 0.5483920559032232
  outer loop
    vertex 0.8302984798443399 3.9 10.397975037884107
    vertex 0.09999999999999981 0.10000000000000017 9.0
    vertex 0.8302984798443399 0.10000000000000017 10.397975037884107
  endloop
endfacet
facet normal -0.8863454623908734 -1.975034434349421e-32 0.46302453638992946
  outer loop
    vertex 0.09999999999999981 0.10000000000000017 9.0
    vertex 0.8302984798443399 3.9 10.397975037884107
    vertex 0.09999999999999981 3.9 9.0
  endloop
endfacet
facet normal -0.7119596598516433 0.0 0.7022203662269646
  outer loop
    vertex 1.8214097530232944 3.9 11.624909641026271
    vertex 0.8302984798443399 0.10000000000000017 10.397975037884107
    vertex 1.8214097530232944 0.10000000000000017 11.624909641026271
  endloop
endfacet
facet normal -0.8362213540817026 -9.923798983364193e-33 0.5483920559032232
  outer loop
    vertex 0.8302984798443399 0.10000000000000017 10.397975037884107
    vertex 1.8214097530232944 3.9 11.624909641026271
    vertex 0.8302984798443399 3.9 10.397975037884107
  endloop
endfacet
facet normal -0.5598574112779862 0.0 0.8285889686914207
  outer loop
    vertex 3.0345772876467803 0.10000000000000017 12.63282561428277
    vertex 1.8214097530232944 3.9 11.624909641026271
    vertex 1.8214097530232944 0.10000000000000017 11.624909641026271
  endloop
endfacet
facet normal -0.7119596598516433 0.0 0.7022203662269646
  outer loop
    vertex 1.8214097530232944 3.9 11.624909641026271
    vertex 3.0345772876467803 0.10000000000000017 12.63282561428277
    vertex 3.0345772876467803 3.9 12.63282561428277
  endloop
endfacet
facet normal -0.3858624325929088 0.0 0.9225563305909743
  outer loop
    vertex 4.422361237638953 0.10000000000000017 13.382309292793606
    vertex 3.0345772876467803 3.9 12.63282561428277
    vertex 3.0345772876467803 0.10000000000000017 12.63282561428277
  endloop
endfacet
facet normal -0.5598574112779862 0.0 0.8285889686914207
  outer loop
    vertex 3.0345772876467803 3.9 12.63282561428277
    vertex 4.422361237638953 0.10000000000000017 13.382309292793606
    vertex 4.422361237638953 3.9 13.382309292793606
  endloop
endfacet
facet normal -0.19677864392385988 0.0 0.9804479411450089
  outer loop
    vertex 5.930493536063298 0.10000000000000017 13.84405277857259
    vertex 4.422361237638953 3.9 13.382309292793606
    vertex 4.422361237638953 0.10000000000000017 13.382309292793606
  endloop
endfacet
facet normal -0.3858624325929088 0.0 0.9225563305909743
  outer loop
    vertex 4.422361237638953 3.9 13.382309292793606
    vertex 5.930493536063298 0.10000000000000017 13.84405277857259
    vertex 5.930493536063298 3.9 13.84405277857259
  endloop
endfacet
facet normal 0.0 0.0 1.0
  outer loop
    vertex 7.5 0.10000000000000017 14.0
    vertex 5.930493536063298 3.9 13.84405277857259
    vertex 5.930493536063298 0.10000000000000017 13.84405277857259
  endloop
endfacet
facet normal -0.19677864392385988 0.0 0.9804479411450089
  outer loop
    vertex 5.930493536063298 3.9 13.84405277857259
    vertex 7.5 0.10000000000000017 14.0
    vertex 7.5 3.9 14.0
  endloop
endfacet
facet normal 0.19677864392385896 0.0 0.9804479411450091
  outer loop
    vertex 9.069506463936703 0.10000000000000017 13.84405277857259
    vertex 7.5 3.9 14.0
    vertex 7.5 0.10000000000000017 14.0
  endloop
endfacet
facet normal 0.0 0.0 1.0
  outer loop
    vertex 7.5 3.9 14.0
    vertex 9.069506463936703 0.10000000000000017 13.84405277857259
    vertex 9.069506463936703 3.9 13.84405277857259
  endloop
endfacet
facet normal 0.3858624325929094 0.0 0.922556330590974
  outer loop
    vertex 10.577638762361047 0.10000000000000017 13.38230929279361
    vertex 9.069506463936703 3.9 13.84405277857259
    vertex 9.069506463936703 0.10000000000000017 13.84405277857259
  endloop
endfacet
facet normal 0.19677864392385896 0.0 0.9804479411450091
  outer loop
    vertex 9.069506463936703 3.9 13.84405277857259
    vertex 10.577638762361047 0.10000000000000017 13.38230929279361
    vertex 10.577638762361047 3.9 13.38230929279361
  endloop
endfacet
facet normal 0.5598574112779874 0.0 0.8285889686914197
  outer loop
    vertex 11.96542271235322 0.10000000000000017 12.632825614282767
    vertex 10.577638762361047 3.9 13.38230929279361
    vertex 10.577638762361047 0.10000000000000017 13.38230929279361
  endloop
endfacet
facet normal 0.3858624325929094 0.0 0.922556330590974
  outer loop
    vertex 10.577638762361047 3.9 13.38230929279361
    vertex 11.96542271235322 0.10000000000000017 12.632825614282767
    vertex 11.96542271235322 3.9 12.632825614282767
  endloop
endfacet
facet normal 0.7119596598516433 0.0 0.7022203662269647
  outer loop
    vertex 13.178590246976707 0.10000000000000017 11.624909641026267
    vertex 11.96542271235322 3.9 12.632825614282767
    vertex 11.96542271235322 0.10000000000000017 12.632825614282767
  endloop
endfacet
facet normal 0.5598574112779874 0.0 0.8285889686914197
  outer loop
    vertex 11.96542271235322 3.9 12.632825614282767
    vertex 13.178590246976707 0.10000000000000017 11.624909641026267
    vertex 13.178590246976707 3.9 11.624909641026267
  endloop
endfacet
facet normal 0.8362213540817025 0.0 0.5483920559032236
  outer loop
    vertex 14.16970152015566 3.9 10.397975037884107
    vertex 13.178590246976707 0.10000000000000017 11.624909641026267
    vertex 14.16970152015566 0.10000000000000017 10.397975037884107
  endloop
endfacet
facet normal 0.7119596598516433 0.0 0.7022203662269647
  outer loop
    vertex 13.178590246976707 0.10000000000000017 11.624909641026267
    vertex 14.16970152015566 3.9 10.397975037884107
    vertex 13.178590246976707 3.9 11.624909641026267
  endloop
endfacet
facet normal 0.8863454623908731 0.0 0.46302453638992985
  outer loop
    vertex 14.9 3.9 9.0
    vertex 14.16970152015566 0.10000000000000017 10.397975037884107
    vertex 14.9 0.10000000000000017 9.0
  endloop
endfacet
facet normal 0.8362213540817025 0.0 0.5483920559032236
  outer loop
    vertex 14.16970152015566 0.10000000000000017 10.397975037884107
    vertex 14.9 3.9 9.0
    vertex 14.16970152015566 3.9 10.397975037884107
  endloop
endfacet
facet normal -2.0495552759987884e-16 -9.20394787348791e-32 -1.0
  outer loop
    vertex 7.5 6.0 -1.0000000000000002
    vertex 7.111771432346219 4.1 -1.051111260566398
    vertex 7.111771432346219 6.0 -1.051111260566398
  endloop
endfacet
facet normal 0.25881904510252085 -1.69896647541047e-31 -0.9659258262890684
  outer loop
    vertex 7.111771432346219 4.1 -1.051111260566398
    vertex 7.5 6.0 -1.0000000000000002
    vertex 7.5 4.1 -1.0000000000000002
  endloop
endfacet
facet normal -0.9659258262890684 0.0 -0.25881904510252013
  outer loop
    vertex 10.397777478867205 3.9 9.77645713530756
    vertex 10.5 0.09999999999999981 9.0
    vertex 10.397777478867205 0.09999999999999981 9.77645713530756
  endloop
endfacet
facet normal -0.9914448613738105 0.0 -0.13052619222005193
  outer loop
    vertex 10.5 0.09999999999999981 9.0
    vertex 10.397777478867205 3.9 9.77645713530756
    vertex 10.5 3.9 9.0
  endloop
endfacet
facet normal -0.8660254037844392 0.0 -0.49999999999999917
  outer loop
    vertex 10.098076211353318 3.9 10.499999999999998
    vertex 10.397777478867205 0.09999999999999981 9.77645713530756
    vertex 10.098076211353318 0.09999999999999981 10.499999999999998
  endloop
endfacet
facet normal -0.9659258262890684 0.0 -0.25881904510252013
  outer loop
    vertex 10.397777478867205 0.09999999999999981 9.77645713530756
    vertex 10.098076211353318 3.9 10.499999999999998
    vertex 10.397777478867205 3.9 9.77645713530756
  endloop
endfacet
facet normal -0.7071067811865475 0.0 -0.7071067811865477
  outer loop
    vertex 9.621320343559644 3.9 11.121320343559642
    vertex 10.098076211353318 0.09999999999999981 10.499999999999998
    vertex 9.621320343559644 0.09999999999999981 11.121320343559642
  endloop
endfacet
facet normal -0.8660254037844392 0.0 -0.49999999999999917
  outer loop
    vertex 10.098076211353318 0.09999999999999981 10.499999999999998
    vertex 9.621320343559644 3.9 11.121320343559642
    vertex 10.098076211353318 3.9 10.499999999999998
  endloop
endfacet
facet normal -0.7071067811865475 0.0 -0.7071067811865477
  outer loop
    vertex 9.621320343559644 3.9 11.121320343559642
    vertex 9.000000000000002 0.09999999999999981 11.598076211353314
    vertex 9.000000000000002 3.9 11.598076211353314
  endloop
endfacet
facet normal -0.5 0.0 -0.8660254037844387
  outer loop
    vertex 9.000000000000002 0.09999999999999981 11.598076211353314
    vertex 9.621320343559644 3.9 11.121320343559642
    vertex 9.621320343559644 0.09999999999999981 11.121320343559642
  endloop
endfacet
facet normal -0.5 0.0 -0.8660254037844387
  outer loop
    vertex 9.000000000000002 3.9 11.598076211353314
    vertex 8.276457135307567 0.09999999999999981 11.897777478867203
    vertex 8.276457135307567 3.9 11.897777478867203
  endloop
endfacet
facet normal -0.2588190451025218 0.0 -0.9659258262890682
  outer loop
    vertex 8.276457135307567 0.09999999999999981 11.897777478867203
    vertex 9.000000000000002 3.9 11.598076211353314
    vertex 9.000000000000002 0.09999999999999981 11.598076211353314
  endloop
endfacet
facet normal -0.2588190451025218 0.0 -0.9659258262890682
  outer loop
    vertex 8.276457135307567 3.9 11.897777478867203
    vertex 7.5 0.09999999999999981 12.0
    vertex 7.5 3.9 12.0
  endloop
endfacet
facet normal -6.59422132277871e-16 0.0 -1.0
  outer loop
    vertex 7.5 0.09999999999999981 12.0
    vertex 8.276457135307567 3.9 11.897777478867203
    vertex 8.276457135307567 0.09999999999999981 11.897777478867203
  endloop
endfacet
facet normal -6.59422132277871e-16 0.0 -1.0
  outer loop
    vertex 7.5 3.9 12.0
    vertex 6.723542864692438 0.09999999999999981 11.897777478867205
    vertex 6.723542864692438 3.9 11.897777478867205
  endloop
endfacet
facet normal 0.25881904510252085 0.0 -0.9659258262890684
  outer loop
    vertex 6.723542864692438 0.09999999999999981 11.897777478867205
    vertex 7.5 3.9 12.0
    vertex 7.5 0.09999999999999981 12.0
  endloop
endfacet
facet normal 0.25881904510252085 0.0 -0.9659258262890684
  outer loop
    vertex 6.723542864692438 3.9 11.897777478867205
    vertex 6.0 0.09999999999999981 11.598076211353314
    vertex 6.0 3.9 11.598076211353314
  endloop
endfacet
facet normal 0.5000000000000004 0.0 -0.8660254037844384
  outer loop
    vertex 6.0 0.09999999999999981 11.598076211353314
    vertex 6.723542864692438 3.9 11.897777478867205
    vertex 6.723542864692438 0.09999999999999981 11.897777478867205
  endloop
endfacet
facet normal 0.5000000000000004 0.0 -0.8660254037844384
  outer loop
    vertex 6.0 3.9 11.598076211353314
    vertex 5.378679656440358 0.09999999999999981 11.121320343559642
    vertex 5.378679656440358 3.9 11.121320343559642
  endloop
endfacet
facet normal 0.7071067811865476 0.0 -0.7071067811865476
  outer loop
    vertex 5.378679656440358 0.09999999999999981 11.121320343559642
    vertex 6.0 3.9 11.598076211353314
    vertex 6.0 0.09999999999999981 11.598076211353314
  endloop
endfacet
facet normal 0.8660254037844384 0.0 -0.5000000000000004
  outer loop
    vertex 4.901923788646684 3.9 10.5
    vertex 5.378679656440358 0.09999999999999981 11.121320343559642
    vertex 4.901923788646684 0.09999999999999981 10.5
  endloop
endfacet
facet normal 0.7071067811865476 0.0 -0.7071067811865476
  outer loop
    vertex 5.378679656440358 0.09999999999999981 11.121320343559642
    vertex 4.901923788646684 3.9 10.5
    vertex 5.378679656440358 3.9 11.121320343559642
  endloop
endfacet
facet normal 0.9659258262890684 0.0 -0.25881904510252085
  outer loop
    vertex 4.602222521132796 3.9 9.776457135307563
    vertex 4.901923788646684 0.09999999999999981 10.5
    vertex 4.602222521132796 0.09999999999999981 9.776457135307563
  endloop
endfacet
facet normal 0.8660254037844384 0.0 -0.5000000000000004
  outer loop
    vertex 4.901923788646684 0.09999999999999981 10.5
    vertex 4.602222521132796 3.9 9.776457135307563
    vertex 4.901923788646684 3.9 10.5
  endloop
endfacet
facet normal 0.9914448613738105 0.0 -0.1305261922200517
  outer loop
    vertex 4.5 3.9 9.0
    vertex 4.602222521132796 0.09999999999999981 9.776457135307563
    vertex 4.5 0.09999999999999981 9.0
  endloop
endfacet
facet normal 0.9659258262890684 0.0 -0.25881904510252085
  outer loop
    vertex 4.602222521132796 0.09999999999999981 9.776457135307563
    vertex 4.5 3.9 9.0
    vertex 4.602222521132796 3.9 9.776457135307563
  endloop
endfacet
facet normal 0.0 0.0 1.0
  outer loop
    vertex 10.5 0.09999999999999981 9.0
    vertex 4.5 3.9 9.0
    vertex 4.5 0.09999999999999981 9.0
  endloop
endfacet
facet normal 0.0 0.0 1.0
  outer loop
    vertex 4.5 3.9 9.0
    vertex 10.5 0.09999999999999981 9.0
    vertex 10.5 3.9 9.0
  endloop
endfacet
facet normal -0.5000000000000002 0.0 -0.8660254037844386
  outer loop
    vertex 8.25 -0.10000000000000017 -1.2009618943233422
    vertex 7.8882285676537816 -1.9999999999999998 -1.051111260566398
    vertex 7.8882285676537816 -0.10000000000000017 -1.051111260566398
  endloop
endfacet
facet normal -0.25881904510252085 0.0 -0.9659258262890684
  outer loop
    vertex 7.8882285676537816 -1.9999999999999998 -1.051111260566398
    vertex 8.25 -0.10000000000000017 -1.2009618943233422
    vertex 8.25 -1.9999999999999998 -1.2009618943233422
  endloop
endfacet
facet normal -0.7071067811865479 0.0 -0.7071067811865472
  outer loop
    vertex 8.560660171779821 -0.10000000000000017 -1.4393398282201786
    vertex 8.25 -1.9999999999999998 -1.2009618943233422
    vertex 8.25 -0.10000000000000017 -1.2009618943233422
  endloop
endfacet
facet normal -0.5000000000000002 0.0 -0.8660254037844386
  outer loop
    vertex 8.25 -1.9999999999999998 -1.2009618943233422
    vertex 8.560660171779821 -0.10000000000000017 -1.4393398282201786
    vertex 8.560660171779821 -1.9999999999999998 -1.4393398282201786
  endloop
endfacet
facet normal -0.7071067811865479 0.0 -0.7071067811865472
  outer loop
    vertex 8.560660171779821 -0.10000000000000017 -1.4393398282201786
    vertex 8.799038105676658 -1.9999999999999998 -1.7500000000000002
    vertex 8.560660171779821 -1.9999999999999998 -1.4393398282201786
  endloop
endfacet
facet normal -0.8660254037844386 0.0 -0.5000000000000003
  outer loop
    vertex 8.799038105676658 -1.9999999999999998 -1.7500000000000002
    vertex 8.560660171779821 -0.10000000000000017 -1.4393398282201786
    vertex 8.799038105676658 -0.10000000000000017 -1.7500000000000002
  endloop
endfacet
facet normal -0.8660254037844386 0.0 -0.5000000000000003
  outer loop
    vertex 8.799038105676658 -0.10000000000000017 -1.7500000000000002
    vertex 8.948888739433603 -1.9999999999999998 -2.111771432346219
    vertex 8.799038105676658 -1.9999999999999998 -1.7500000000000002
  endloop
endfacet
facet normal -0.9659258262890681 0.0 -0.2588190451025216
  outer loop
    vertex 8.948888739433603 -1.9999999999999998 -2.111771432346219
    vertex 8.799038105676658 -0.10000000000000017 -1.7500000000000002
    vertex 8.948888739433603 -0.10000000000000017 -2.111771432346219
  endloop
endfacet
facet normal -0.9659258262890681 0.0 -0.2588190451025216
  outer loop
    vertex 8.948888739433603 -0.10000000000000017 -2.111771432346219
    vertex 9.0 -1.9999999999999998 -2.5
    vertex 8.948888739433603 -1.9999999999999998 -2.111771432346219
  endloop
endfacet
facet normal -1.0 0.0 5.346665937388143e-17
  outer loop
    vertex 9.0 -1.9999999999999998 -2.5
    vertex 8.948888739433603 -0.10000000000000017 -2.111771432346219
    vertex 9.0 -0.10000000000000017 -2.5
  endloop
endfacet
facet normal -1.0 0.0 5.346665937388143e-17
  outer loop
    vertex 9.0 -0.10000000000000017 -2.5
    vertex 8.948888739433603 -1.9999999999999998 -2.888228567653781
    vertex 9.0 -1.9999999999999998 -2.5
  endloop
endfacet
facet normal -0.9659258262890684 0.0 0.2588190451025201
  outer loop
    vertex 8.948888739433603 -1.9999999999999998 -2.888228567653781
    vertex 9.0 -0.10000000000000017 -2.5
    vertex 8.948888739433603 -0.10000000000000017 -2.888228567653781
  endloop
endfacet
facet normal -0.9659258262890684 0.0 0.2588190451025201
  outer loop
    vertex 8.948888739433603 -0.10000000000000017 -2.888228567653781
    vertex 8.79903810567666 -1.9999999999999998 -3.2499999999999996
    vertex 8.948888739433603 -1.9999999999999998 -2.888228567653781
  endloop
endfacet
facet normal -0.8660254037844386 0.0 0.5000000000000003
  outer loop
    vertex 8.79903810567666 -1.9999999999999998 -3.2499999999999996
    vertex 8.948888739433603 -0.10000000000000017 -2.888228567653781
    vertex 8.79903810567666 -0.10000000000000017 -3.2499999999999996
  endloop
endfacet
facet normal -0.8660254037844386 0.0 0.5000000000000003
  outer loop
    vertex 8.79903810567666 -0.10000000000000017 -3.2499999999999996
    vertex 8.560660171779821 -1.9999999999999998 -3.560660171779821
    vertex 8.79903810567666 -1.9999999999999998 -3.2499999999999996
  endloop
endfacet
facet normal -0.707106781186547 0.0 0.7071067811865481
  outer loop
    vertex 8.560660171779821 -1.9999999999999998 -3.560660171779821
    vertex 8.79903810567666 -0.10000000000000017 -3.2499999999999996
    vertex 8.560660171779821 -0.10000000000000017 -3.560660171779821
  endloop
endfacet
facet normal -0.707106781186547 0.0 0.7071067811865481
  outer loop
    vertex 8.560660171779821 -1.9999999999999998 -3.560660171779821
    vertex 8.25 -0.10000000000000017 -3.7990381056766576
    vertex 8.25 -1.9999999999999998 -3.7990381056766576
  endloop
endfacet
facet normal -0.5000000000000004 0.0 0.8660254037844384
  outer loop
    vertex 8.25 -0.10000000000000017 -3.7990381056766576
    vertex 8.560660171779821 -1.9999999999999998 -3.560660171779821
    vertex 8.560660171779821 -0.10000000000000017 -3.560660171779821
  endloop
endfacet
facet normal -0.5000000000000004 0.0 0.8660254037844384
  outer loop
    vertex 8.25 -1.9999999999999998 -3.7990381056766576
    vertex 7.8882285676537816 -0.10000000000000017 -3.948888739433602
    vertex 7.8882285676537816 -1.9999999999999998 -3.948888739433602
  endloop
endfacet
facet normal -0.25881904510252085 0.0 0.9659258262890684
  outer loop
    vertex 7.8882285676537816 -0.10000000000000017 -3.948888739433602
    vertex 8.25 -1.9999999999999998 -3.7990381056766576
    vertex 8.25 -0.10000000000000017 -3.7990381056766576
  endloop
endfacet
facet normal -0.25881904510252085 0.0 0.9659258262890684
  outer loop
    vertex 7.8882285676537816 -1.9999999999999998 -3.948888739433602
    vertex 7.5 -0.10000000000000017 -3.9999999999999996
    vertex 7.5 -1.9999999999999998 -3.9999999999999996
  endloop
endfacet
facet normal 2.4059996718246644e-16 0.0 1.0
  outer loop
    vertex 7.5 -0.10000000000000017 -3.9999999999999996
    vertex 7.8882285676537816 -1.9999999999999998 -3.948888739433602
    vertex 7.8882285676537816 -0.10000000000000017 -3.948888739433602
  endloop
endfacet
facet normal 2.4059996718246644e-16 0.0 1.0
  outer loop
    vertex 7.5 -1.9999999999999998 -3.9999999999999996
    vertex 7.11177143234622 -0.10000000000000017 -3.948888739433602
    vertex 7.11177143234622 -1.9999999999999998 -3.948888739433602
  endloop
endfacet
facet normal 0.25881904510251963 0.0 0.9659258262890688
  outer loop
    vertex 7.11177143234622 -0.10000000000000017 -3.948888739433602
    vertex 7.5 -1.9999999999999998 -3.9999999999999996
    vertex 7.5 -0.10000000000000017 -3.9999999999999996
  endloop
endfacet
facet normal 0.25881904510251963 0.0 0.9659258262890688
  outer loop
    vertex 7.11177143234622 -1.9999999999999998 -3.948888739433602
    vertex 6.75 -0.10000000000000017 -3.7990381056766584
    vertex 6.75 -1.9999999999999998 -3.7990381056766584
  endloop
endfacet
facet normal 0.4999999999999985 0.0 0.8660254037844397
  outer loop
    vertex 6.75 -0.10000000000000017 -3.7990381056766584
    vertex 7.11177143234622 -1.9999999999999998 -3.948888739433602
    vertex 7.11177143234622 -0.10000000000000017 -3.948888739433602
  endloop
endfacet
facet normal 0.4999999999999985 0.0 0.8660254037844397
  outer loop
    vertex 6.75 -1.9999999999999998 -3.7990381056766584
    vertex 6.439339828220179 -0.10000000000000017 -3.5606601717798223
    vertex 6.439339828220179 -1.9999999999999998 -3.5606601717798223
  endloop
endfacet
facet normal 0.7071067811865479 0.0 0.7071067811865472
  outer loop
    vertex 6.439339828220179 -0.10000000000000017 -3.5606601717798223
    vertex 6.75 -1.9999999999999998 -3.7990381056766584
    vertex 6.75 -0.10000000000000017 -3.7990381056766584
  endloop
endfacet
facet normal 0.7071067811865479 0.0 0.7071067811865472
  outer loop
    vertex 6.439339828220179 -0.10000000000000017 -3.5606601717798223
    vertex 6.200961894323343 -1.9999999999999998 -3.2500000000000004
    vertex 6.439339828220179 -1.9999999999999998 -3.5606601717798223
  endloop
endfacet
facet normal 0.8660254037844386 0.0 0.5000000000000003
  outer loop
    vertex 6.200961894323343 -1.9999999999999998 -3.2500000000000004
    vertex 6.439339828220179 -0.10000000000000017 -3.5606601717798223
    vertex 6.200961894323343 -0.10000000000000017 -3.2500000000000004
  endloop
endfacet
facet normal 0.8660254037844386 0.0 0.5000000000000003
  outer loop
    vertex 6.200961894323343 -0.10000000000000017 -3.2500000000000004
    vertex 6.0511112605663975 -1.9999999999999998 -2.8882285676537824
    vertex 6.200961894323343 -1.9999999999999998 -3.2500000000000004
  endloop
endfacet
facet normal 0.9659258262890681 0.0 0.2588190451025219
  outer loop
    vertex 6.0511112605663975 -1.9999999999999998 -2.8882285676537824
    vertex 6.200961894323343 -0.10000000000000017 -3.2500000000000004
    vertex 6.0511112605663975 -0.10000000000000017 -2.8882285676537824
  endloop
endfacet
facet normal 0.9659258262890681 0.0 0.2588190451025219
  outer loop
    vertex 6.0511112605663975 -0.10000000000000017 -2.8882285676537824
    vertex 6.0 -1.9999999999999998 -2.5000000000000004
    vertex 6.0511112605663975 -1.9999999999999998 -2.8882285676537824
  endloop
endfacet
facet normal 1.0 0.0 -2.2277774739117265e-16
  outer loop
    vertex 6.0 -1.9999999999999998 -2.5000000000000004
    vertex 6.0511112605663975 -0.10000000000000017 -2.8882285676537824
    vertex 6.0 -0.10000000000000017 -2.5000000000000004
  endloop
endfacet
facet normal 1.0 0.0 -2.2277774739117265e-16
  outer loop
    vertex 6.0 -0.10000000000000017 -2.5000000000000004
    vertex 6.0511112605663975 -1.9999999999999998 -2.11177143234622
    vertex 6.0 -1.9999999999999998 -2.5000000000000004
  endloop
endfacet
facet normal 0.9659258262890684 0.0 -0.25881904510252013
  outer loop
    vertex 6.0511112605663975 -1.9999999999999998 -2.11177143234622
    vertex 6.0 -0.10000000000000017 -2.5000000000000004
    vertex 6.0511112605663975 -0.10000000000000017 -2.11177143234622
  endloop
endfacet
facet normal 0.9659258262890684 0.0 -0.25881904510252013
  outer loop
    vertex 6.0511112605663975 -0.10000000000000017 -2.11177143234622
    vertex 6.200961894323342 -1.9999999999999998 -1.750000000000001
    vertex 6.0511112605663975 -1.9999999999999998 -2.11177143234622
  endloop
endfacet
facet normal 0.8660254037844388 0.0 -0.49999999999999967
  outer loop
    vertex 6.200961894323342 -1.9999999999999998 -1.750000000000001
    vertex 6.0511112605663975 -0.10000000000000017 -2.11177143234622
    vertex 6.200961894323342 -0.10000000000000017 -1.750000000000001
  endloop
endfacet
facet normal 0.8660254037844388 0.0 -0.49999999999999967
  outer loop
    vertex 6.200961894323342 -0.10000000000000017 -1.750000000000001
    vertex 6.439339828220179 -1.9999999999999998 -1.4393398282201793
    vertex 6.200961894323342 -1.9999999999999998 -1.750000000000001
  endloop
endfacet
facet normal 0.707106781186548 0.0 -0.707106781186547
  outer loop
    vertex 6.439339828220179 -1.9999999999999998 -1.4393398282201793
    vertex 6.200961894323342 -0.10000000000000017 -1.750000000000001
    vertex 6.439339828220179 -0.10000000000000017 -1.4393398282201793
  endloop
endfacet
facet normal 0.5000000000000012 0.0 -0.8660254037844382
  outer loop
    vertex 6.749999999999999 -0.10000000000000017 -1.2009618943233422
    vertex 6.439339828220179 -1.9999999999999998 -1.4393398282201793
    vertex 6.439339828220179 -0.10000000000000017 -1.4393398282201793
  endloop
endfacet
facet normal 0.707106781186548 0.0 -0.707106781186547
  outer loop
    vertex 6.439339828220179 -1.9999999999999998 -1.4393398282201793
    vertex 6.749999999999999 -0.10000000000000017 -1.2009618943233422
    vertex 6.749999999999999 -1.9999999999999998 -1.2009618943233422
  endloop
endfacet
facet normal 0.258819045102521 0.0 -0.9659258262890682
  outer loop
    vertex 7.111771432346218 -0.10000000000000017 -1.051111260566398
    vertex 6.749999999999999 -1.9999999999999998 -1.2009618943233422
    vertex 6.749999999999999 -0.10000000000000017 -1.2009618943233422
  endloop
endfacet
facet normal 0.5000000000000012 0.0 -0.8660254037844382
  outer loop
    vertex 6.749999999999999 -1.9999999999999998 -1.2009618943233422
    vertex 7.111771432346218 -0.10000000000000017 -1.051111260566398
    vertex 7.111771432346218 -1.9999999999999998 -1.051111260566398
  endloop
endfacet
facet normal 2.0495552759987884e-16 0.0 -1.0
  outer loop
    vertex 7.5 -0.10000000000000017 -1.0000000000000002
    vertex 7.111771432346218 -1.9999999999999998 -1.051111260566398
    vertex 7.111771432346218 -0.10000000000000017 -1.051111260566398
  endloop
endfacet
facet normal 0.258819045102521 0.0 -0.9659258262890682
  outer loop
    vertex 7.111771432346218 -1.9999999999999998 -1.051111260566398
    vertex 7.5 -0.10000000000000017 -1.0000000000000002
    vertex 7.5 -1.9999999999999998 -1.0000000000000002
  endloop
endfacet
facet normal -0.25881904510252085 0.0 -0.9659258262890684
  outer loop
    vertex 7.8882285676537816 -0.10000000000000017 -1.051111260566398
    vertex 7.5 -1.9999999999999998 -1.0000000000000002
    vertex 7.5 -0.10000000000000017 -1.0000000000000002
  endloop
endfacet
facet normal 2.0495552759987884e-16 0.0 -1.0
  outer loop
    vertex 7.5 -1.9999999999999998 -1.0000000000000002
    vertex 7.8882285676537816 -0.10000000000000017 -1.051111260566398
    vertex 7.8882285676537816 -1.9999999999999998 -1.051111260566398
  endloop
endfacet
facet normal -0.258819045102521 -7.909971555359541e-33 -0.9659258262890682
  outer loop
    vertex 7.888228567653783 6.0 -1.051111260566398
    vertex 7.5 4.1 -1.0000000000000002
    vertex 7.5 6.0 -1.0000000000000002
  endloop
endfacet
facet normal -2.0495552759987884e-16 -9.20394787348791e-32 -1.0
  outer loop
    vertex 7.5 4.1 -1.0000000000000002
    vertex 7.888228567653783 6.0 -1.051111260566398
    vertex 7.888228567653783 4.1 -1.051111260566398
  endloop
endfacet
facet normal -0.5000000000000012 7.675858711381208e-32 -0.8660254037844382
  outer loop
    vertex 8.250000000000002 6.0 -1.2009618943233422
    vertex 7.888228567653783 4.1 -1.051111260566398
    vertex 7.888228567653783 6.0 -1.051111260566398
  endloop
endfacet
facet normal -0.258819045102521 -7.909971555359541e-33 -0.9659258262890682
  outer loop
    vertex 7.888228567653783 4.1 -1.051111260566398
    vertex 8.250000000000002 6.0 -1.2009618943233422
    vertex 8.250000000000002 4.1 -1.2009618943233422
  endloop
endfacet
facet normal -0.707106781186548 1.5619617492073965e-31 -0.707106781186547
  outer loop
    vertex 8.560660171779821 6.0 -1.4393398282201793
    vertex 8.250000000000002 4.1 -1.2009618943233422
    vertex 8.250000000000002 6.0 -1.2009618943233422
  endloop
endfacet
facet normal -0.5000000000000012 7.675858711381208e-32 -0.8660254037844382
  outer loop
    vertex 8.250000000000002 4.1 -1.2009618943233422
    vertex 8.560660171779821 6.0 -1.4393398282201793
    vertex 8.560660171779821 4.1 -1.4393398282201793
  endloop
endfacet
facet normal -0.707106781186548 1.5619617492073965e-31 -0.707106781186547
  outer loop
    vertex 8.560660171779821 6.0 -1.4393398282201793
    vertex 8.79903810567666 4.1 -1.750000000000001
    vertex 8.560660171779821 4.1 -1.4393398282201793
  endloop
endfacet
facet normal -0.8660254037844388 2.249892515332027e-31 -0.49999999999999967
  outer loop
    vertex 8.79903810567666 4.1 -1.750000000000001
    vertex 8.560660171779821 6.0 -1.4393398282201793
    vertex 8.79903810567666 6.0 -1.750000000000001
  endloop
endfacet
facet normal -0.8660254037844388 2.249892515332027e-31 -0.49999999999999967
  outer loop
    vertex 8.79903810567666 6.0 -1.750000000000001
    vertex 8.948888739433603 4.1 -2.11177143234622
    vertex 8.79903810567666 4.1 -1.750000000000001
  endloop
endfacet
facet normal -0.9659258262890684 2.784496824659962e-31 -0.25881904510252013
  outer loop
    vertex 8.948888739433603 4.1 -2.11177143234622
    vertex 8.79903810567666 6.0 -1.750000000000001
    vertex 8.948888739433603 6.0 -2.11177143234622
  endloop
endfacet
facet normal -0.9659258262890684 2.784496824659962e-31 -0.25881904510252013
  outer loop
    vertex 8.948888739433603 6.0 -2.11177143234622
    vertex 9.0 4.1 -2.5000000000000004
    vertex 8.948888739433603 4.1 -2.11177143234622
  endloop
endfacet
facet normal -1.0 3.1293422769858926e-31 -2.2277774739117265e-16
  outer loop
    vertex 9.0 4.1 -2.5000000000000004
    vertex 8.948888739433603 6.0 -2.11177143234622
    vertex 9.0 6.0 -2.5000000000000004
  endloop
endfacet
facet normal -1.0 3.1293422769858926e-31 -2.2277774739117265e-16
  outer loop
    vertex 9.0 6.0 -2.5000000000000004
    vertex 8.948888739433603 4.1 -2.8882285676537824
    vertex 9.0 4.1 -2.5000000000000004
  endloop
endfacet
facet normal -0.9659258262890681 3.260928224617865e-31 0.2588190451025219
  outer loop
    vertex 8.948888739433603 4.1 -2.8882285676537824
    vertex 9.0 6.0 -2.5000000000000004
    vertex 8.948888739433603 6.0 -2.8882285676537824
  endloop
endfacet
facet normal -0.9659258262890681 3.260928224617865e-31 0.2588190451025219
  outer loop
    vertex 8.948888739433603 6.0 -2.8882285676537824
    vertex 8.799038105676658 4.1 -3.2500000000000004
    vertex 8.948888739433603 4.1 -2.8882285676537824
  endloop
endfacet
facet normal -0.8660254037844386 3.1702873026808177e-31 0.5000000000000003
  outer loop
    vertex 8.799038105676658 4.1 -3.2500000000000004
    vertex 8.948888739433603 6.0 -2.8882285676537824
    vertex 8.799038105676658 6.0 -3.2500000000000004
  endloop
endfacet
facet normal -0.8660254037844386 3.1702873026808177e-31 0.5000000000000003
  outer loop
    vertex 8.799038105676658 6.0 -3.2500000000000004
    vertex 8.560660171779821 4.1 -3.5606601717798223
    vertex 8.799038105676658 4.1 -3.2500000000000004
  endloop
endfacet
facet normal -0.7071067811865479 2.863596540213558e-31 0.7071067811865472
  outer loop
    vertex 8.560660171779821 4.1 -3.5606601717798223
    vertex 8.799038105676658 6.0 -3.2500000000000004
    vertex 8.560660171779821 6.0 -3.5606601717798223
  endloop
endfacet
facet normal -0.7071067811865479 2.863596540213558e-31 0.7071067811865472
  outer loop
    vertex 8.560660171779821 4.1 -3.5606601717798223
    vertex 8.25 6.0 -3.7990381056766584
    vertex 8.25 4.1 -3.7990381056766584
  endloop
endfacet
facet normal -0.4999999999999985 2.361756405847772e-31 0.8660254037844397
  outer loop
    vertex 8.25 6.0 -3.7990381056766584
    vertex 8.560660171779821 4.1 -3.5606601717798223
    vertex 8.560660171779821 6.0 -3.5606601717798223
  endloop
endfacet
facet normal -0.4999999999999985 2.361756405847772e-31 0.8660254037844397
  outer loop
    vertex 8.25 4.1 -3.7990381056766584
    vertex 7.888228567653781 6.0 -3.948888739433602
    vertex 7.888228567653781 4.1 -3.948888739433602
  endloop
endfacet
facet normal -0.25881904510251963 1.6989664754104661e-31 0.9659258262890688
  outer loop
    vertex 7.888228567653781 6.0 -3.948888739433602
    vertex 8.25 4.1 -3.7990381056766584
    vertex 8.25 6.0 -3.7990381056766584
  endloop
endfacet
facet normal -0.25881904510251963 1.6989664754104661e-31 0.9659258262890688
  outer loop
    vertex 7.888228567653781 4.1 -3.948888739433602
    vertex 7.5 6.0 -3.9999999999999996
    vertex 7.5 4.1 -3.9999999999999996
  endloop
endfacet
facet normal -2.4059996718246644e-16 9.203947873487924e-32 1.0
  outer loop
    vertex 7.5 6.0 -3.9999999999999996
    vertex 7.888228567653781 4.1 -3.948888739433602
    vertex 7.888228567653781 6.0 -3.948888739433602
  endloop
endfacet
facet normal -2.4059996718246644e-16 9.203947873487924e-32 1.0
  outer loop
    vertex 7.5 4.1 -3.9999999999999996
    vertex 7.111771432346219 6.0 -3.948888739433602
    vertex 7.111771432346219 4.1 -3.948888739433602
  endloop
endfacet
facet normal 0.25881904510252085 7.909971555359605e-33 0.9659258262890684
  outer loop
    vertex 7.111771432346219 6.0 -3.948888739433602
    vertex 7.5 4.1 -3.9999999999999996
    vertex 7.5 6.0 -3.9999999999999996
  endloop
endfacet
facet normal 0.25881904510252085 7.909971555359605e-33 0.9659258262890684
  outer loop
    vertex 7.111771432346219 4.1 -3.948888739433602
    vertex 6.75 6.0 -3.7990381056766576
    vertex 6.75 4.1 -3.7990381056766576
  endloop
endfacet
facet normal 0.5000000000000004 -7.675858711381176e-32 0.8660254037844384
  outer loop
    vertex 6.75 6.0 -3.7990381056766576
    vertex 7.111771432346219 4.1 -3.948888739433602
    vertex 7.111771432346219 6.0 -3.948888739433602
  endloop
endfacet
facet normal 0.5000000000000004 -7.675858711381176e-32 0.8660254037844384
  outer loop
    vertex 6.75 4.1 -3.7990381056766576
    vertex 6.439339828220179 6.0 -3.560660171779821
    vertex 6.439339828220179 4.1 -3.560660171779821
  endloop
endfacet
facet normal 0.7071067811865476 -1.5619617492073946e-31 0.7071067811865476
  outer loop
    vertex 6.439339828220179 6.0 -3.560660171779821
    vertex 6.75 4.1 -3.7990381056766576
    vertex 6.75 6.0 -3.7990381056766576
  endloop
endfacet
facet normal 0.7071067811865476 -1.5619617492073946e-31 0.7071067811865476
  outer loop
    vertex 6.439339828220179 6.0 -3.560660171779821
    vertex 6.200961894323342 4.1 -3.2499999999999996
    vertex 6.439339828220179 4.1 -3.560660171779821
  endloop
endfacet
facet normal 0.8660254037844384 -2.2498925153320255e-31 0.5000000000000004
  outer loop
    vertex 6.200961894323342 4.1 -3.2499999999999996
    vertex 6.439339828220179 6.0 -3.560660171779821
    vertex 6.200961894323342 6.0 -3.2499999999999996
  endloop
endfacet
facet normal 0.8660254037844384 -2.2498925153320255e-31 0.5000000000000004
  outer loop
    vertex 6.200961894323342 6.0 -3.2499999999999996
    vertex 6.0511112605663975 4.1 -2.888228567653781
    vertex 6.200961894323342 4.1 -3.2499999999999996
  endloop
endfacet
facet normal 0.9659258262890684 -2.784496824659961e-31 0.2588190451025209
  outer loop
    vertex 6.0511112605663975 4.1 -2.888228567653781
    vertex 6.200961894323342 6.0 -3.2499999999999996
    vertex 6.0511112605663975 6.0 -2.888228567653781
  endloop
endfacet
facet normal 0.9659258262890684 -2.784496824659961e-31 0.2588190451025209
  outer loop
    vertex 6.0511112605663975 6.0 -2.888228567653781
    vertex 6.0 4.1 -2.5
    vertex 6.0511112605663975 4.1 -2.888228567653781
  endloop
endfacet
facet normal 1.0 -3.1293422769858926e-31 5.346665937388143e-17
  outer loop
    vertex 6.0 4.1 -2.5
    vertex 6.0511112605663975 6.0 -2.888228567653781
    vertex 6.0 6.0 -2.5
  endloop
endfacet
facet normal 1.0 -3.1293422769858926e-31 5.346665937388143e-17
  outer loop
    vertex 6.0 6.0 -2.5
    vertex 6.0511112605663975 4.1 -2.111771432346219
    vertex 6.0 4.1 -2.5
  endloop
endfacet
facet normal 0.9659258262890684 -3.260928224617865e-31 -0.25881904510252085
  outer loop
    vertex 6.0511112605663975 4.1 -2.111771432346219
    vertex 6.0 6.0 -2.5
    vertex 6.0511112605663975 6.0 -2.111771432346219
  endloop
endfacet
facet normal 0.9659258262890684 -3.260928224617865e-31 -0.25881904510252085
  outer loop
    vertex 6.0511112605663975 6.0 -2.111771432346219
    vertex 6.200961894323342 4.1 -1.7500000000000002
    vertex 6.0511112605663975 4.1 -2.111771432346219
  endloop
endfacet
facet normal 0.8660254037844386 -3.170287302680818e-31 -0.5000000000000002
  outer loop
    vertex 6.200961894323342 4.1 -1.7500000000000002
    vertex 6.0511112605663975 6.0 -2.111771432346219
    vertex 6.200961894323342 6.0 -1.7500000000000002
  endloop
endfacet
facet normal 0.8660254037844386 -3.170287302680818e-31 -0.5000000000000002
  outer loop
    vertex 6.200961894323342 6.0 -1.7500000000000002
    vertex 6.439339828220179 4.1 -1.4393398282201786
    vertex 6.200961894323342 4.1 -1.7500000000000002
  endloop
endfacet
facet normal 0.7071067811865475 -2.863596540213557e-31 -0.7071067811865477
  outer loop
    vertex 6.439339828220179 4.1 -1.4393398282201786
    vertex 6.200961894323342 6.0 -1.7500000000000002
    vertex 6.439339828220179 6.0 -1.4393398282201786
  endloop
endfacet
facet normal 0.5000000000000002 -2.361756405847777e-31 -0.8660254037844386
  outer loop
    vertex 6.75 6.0 -1.2009618943233422
    vertex 6.439339828220179 4.1 -1.4393398282201786
    vertex 6.439339828220179 6.0 -1.4393398282201786
  endloop
endfacet
facet normal 0.7071067811865475 -2.863596540213557e-31 -0.7071067811865477
  outer loop
    vertex 6.439339828220179 4.1 -1.4393398282201786
    vertex 6.75 6.0 -1.2009618943233422
    vertex 6.75 4.1 -1.2009618943233422
  endloop
endfacet
facet normal 0.25881904510252085 -1.69896647541047e-31 -0.9659258262890684
  outer loop
    vertex 7.111771432346219 6.0 -1.051111260566398
    vertex 6.75 4.1 -1.2009618943233422
    vertex 6.75 6.0 -1.2009618943233422
  endloop
endfacet
facet normal 0.5000000000000002 -2.361756405847777e-31 -0.8660254037844386
  outer loop
    vertex 6.75 4.1 -1.2009618943233422
    vertex 7.111771432346219 6.0 -1.051111260566398
    vertex 7.111771432346219 4.1 -1.051111260566398
  endloop
endfacet
facet normal -1.0 0.0 0.0
  outer loop
    vertex 15.1 4.1 4.0
    vertex 15.1 -0.10000000000000017 0.0
    vertex 15.1 -0.10000000000000017 4.0
  endloop
endfacet
facet normal -1.0 0.0 0.0
  outer loop
    vertex 15.1 -0.10000000000000017 0.0
    vertex 15.1 4.1 4.0
    vertex 15.1 4.1 0.0
  endloop
endfacet
facet normal 1.0 0.0 5.507747036226363e-18
  outer loop
    vertex -0.09999999999999981 4.1 0.0
    vertex -0.10000000000000017 -0.10000000000000017 4.0
    vertex -0.09999999999999981 -0.10000000000000017 0.0
  endloop
endfacet
facet normal 1.0 0.0 5.507747036226363e-18
  outer loop
    vertex -0.10000000000000017 -0.10000000000000017 4.0
    vertex -0.09999999999999981 4.1 0.0
    vertex -0.10000000000000017 4.1 4.0
  endloop
endfacet
facet normal 0.9347835805883491 1.88371379923946e-17 -0.3552177606235726
  outer loop
    vertex 15.1 -0.10000000000000017 -5.0
    vertex 17.0 -1.9999999999999998 0.0
    vertex 15.1 -1.9999999999999998 -5.0
  endloop
endfacet
facet normal 0.9347835805883491 1.88371379923946e-17 -0.3552177606235726
  outer loop
    vertex 17.0 -1.9999999999999998 0.0
    vertex 15.1 -0.10000000000000017 -5.0
    vertex 17.0 -0.09999999999999981 0.0
  endloop
endfacet
facet normal 1.9372593987621455e-36 1.0 -1.2164349282463148e-18
  outer loop
    vertex -0.09999999999999981 -0.10000000000000017 -5.0
    vertex 7.5 -0.10000000000000017 -3.9999999999999996
    vertex 15.1 -0.10000000000000017 -5.0
  endloop
endfacet
facet normal 1.9372593987621455e-36 1.0 -1.2164349282463148e-18
  outer loop
    vertex 7.5 -0.10000000000000017 -3.9999999999999996
    vertex -0.09999999999999981 -0.10000000000000017 -5.0
    vertex 7.11177143234622 -0.10000000000000017 -3.948888739433602
  endloop
endfacet
facet normal 1.9372593987621455e-36 1.0 -1.2164349282463148e-18
  outer loop
    vertex 7.11177143234622 -0.10000000000000017 -3.948888739433602
    vertex -0.09999999999999981 -0.10000000000000017 -5.0
    vertex 6.75 -0.10000000000000017 -3.7990381056766584
  endloop
endfacet
facet normal 1.9372593987621455e-36 1.0 -1.2164349282463148e-18
  outer loop
    vertex 6.75 -0.10000000000000017 -3.7990381056766584
    vertex -0.09999999999999981 -0.10000000000000017 -5.0
    vertex -1.9999999999999991 -0.09999999999999981 0.0
  endloop
endfacet
facet normal 1.9372593987621455e-36 1.0 -1.2164349282463148e-18
  outer loop
    vertex 6.75 -0.10000000000000017 -3.7990381056766584
    vertex -1.9999999999999991 -0.09999999999999981 0.0
    vertex 6.439339828220179 -0.10000000000000017 -3.5606601717798223
  endloop
endfacet
facet normal 1.9372593987621455e-36 1.0 -1.2164349282463148e-18
  outer loop
    vertex 6.439339828220179 -0.10000000000000017 -3.5606601717798223
    vertex -1.9999999999999991 -0.09999999999999981 0.0
    vertex 6.200961894323343 -0.10000000000000017 -3.2500000000000004
  endloop
endfacet
facet normal 1.9372593987621455e-36 1.0 -1.2164349282463148e-18
  outer loop
    vertex 6.200961894323343 -0.10000000000000017 -3.2500000000000004
    vertex -1.9999999999999991 -0.09999999999999981 0.0
    vertex 6.0511112605663975 -0.10000000000000017 -2.8882285676537824
  endloop
endfacet
facet normal 1.9372593987621455e-36 1.0 -1.2164349282463148e-18
  outer loop
    vertex 6.0511112605663975 -0.10000000000000017 -2.8882285676537824
    vertex -1.9999999999999991 -0.09999999999999981 0.0
    vertex 6.0 -0.10000000000000017 -2.5000000000000004
  endloop
endfacet
facet normal 1.9372593987621455e-36 1.0 -1.2164349282463148e-18
  outer loop
    vertex 6.0 -0.10000000000000017 -2.5000000000000004
    vertex -1.9999999999999991 -0.09999999999999981 0.0
    vertex 6.0511112605663975 -0.10000000000000017 -2.11177143234622
  endloop
endfacet
facet normal 1.9372593987621455e-36 1.0 -1.2164349282463148e-18
  outer loop
    vertex 6.0511112605663975 -0.10000000000000017 -2.11177143234622
    vertex -1.9999999999999991 -0.09999999999999981 0.0
    vertex 6.200961894323342 -0.10000000000000017 -1.750000000000001
  endloop
endfacet
facet normal 1.9372593987621455e-36 1.0 -1.2164349282463148e-18
  outer loop
    vertex 6.200961894323342 -0.10000000000000017 -1.750000000000001
    vertex -1.9999999999999991 -0.09999999999999981 0.0
    vertex 6.439339828220179 -0.10000000000000017 -1.4393398282201793
  endloop
endfacet
facet normal 1.9372593987621455e-36 1.0 -1.2164349282463148e-18
  outer loop
    vertex 6.439339828220179 -0.10000000000000017 -1.4393398282201793
    vertex -1.9999999999999991 -0.09999999999999981 0.0
    vertex 6.749999999999999 -0.10000000000000017 -1.2009618943233422
  endloop
endfacet
facet normal 1.9372593987621455e-36 1.0 -1.2164349282463148e-18
  outer loop
    vertex 6.749999999999999 -0.10000000000000017 -1.2009618943233422
    vertex -1.9999999999999991 -0.09999999999999981 0.0
    vertex 7.111771432346218 -0.10000000000000017 -1.051111260566398
  endloop
endfacet
facet normal 1.9372593987621455e-36 1.0 -1.2164349282463148e-18
  outer loop
    vertex 7.111771432346218 -0.10000000000000017 -1.051111260566398
    vertex -1.9999999999999991 -0.09999999999999981 0.0
    vertex 7.5 -0.10000000000000017 -1.0000000000000002
  endloop
endfacet
facet normal 1.9372593987621455e-36 1.0 -1.2164349282463148e-18
  outer loop
    vertex -0.10000000000000017 -0.10000000000000017 4.0
    vertex 15.1 -0.10000000000000017 0.0
    vertex -0.09999999999999981 -0.10000000000000017 0.0
  endloop
endfacet
facet normal 1.9372593987621455e-36 1.0 -1.2164349282463148e-18
  outer loop
    vertex 15.1 -0.10000000000000017 0.0
    vertex -0.10000000000000017 -0.10000000000000017 4.0
    vertex 15.1 -0.10000000000000017 4.0
  endloop
endfacet
facet normal 1.9372593987621455e-36 1.0 -1.2164349282463148e-18
  outer loop
    vertex 15.1 -0.10000000000000017 -5.0
    vertex 8.25 -0.10000000000000017 -3.7990381056766576
    vertex 17.0 -0.09999999999999981 0.0
  endloop
endfacet
facet normal 1.9372593987621455e-36 1.0 -1.2164349282463148e-18
  outer loop
    vertex 8.25 -0.10000000000000017 -3.7990381056766576
    vertex 15.1 -0.10000000000000017 -5.0
    vertex 7.8882285676537816 -0.10000000000000017 -3.948888739433602
  endloop
endfacet
facet normal 1.9372593987621455e-36 1.0 -1.2164349282463148e-18
  outer loop
    vertex 7.8882285676537816 -0.10000000000000017 -3.948888739433602
    vertex 15.1 -0.10000000000000017 -5.0
    vertex 7.5 -0.10000000000000017 -3.9999999999999996
  endloop
endfacet
facet normal 1.9372593987621455e-36 1.0 -1.2164349282463148e-18
  outer loop
    vertex 17.0 -0.09999999999999981 0.0
    vertex 8.25 -0.10000000000000017 -3.7990381056766576
    vertex 8.560660171779821 -0.10000000000000017 -3.560660171779821
  endloop
endfacet
facet normal 1.9372593987621455e-36 1.0 -1.2164349282463148e-18
  outer loop
    vertex 17.0 -0.09999999999999981 0.0
    vertex 8.560660171779821 -0.10000000000000017 -3.560660171779821
    vertex 8.79903810567666 -0.10000000000000017 -3.2499999999999996
  endloop
endfacet
facet normal 1.9372593987621455e-36 1.0 -1.2164349282463148e-18
  outer loop
    vertex 17.0 -0.09999999999999981 0.0
    vertex 8.79903810567666 -0.10000000000000017 -3.2499999999999996
    vertex 8.948888739433603 -0.10000000000000017 -2.888228567653781
  endloop
endfacet
facet normal 1.9372593987621455e-36 1.0 -1.2164349282463148e-18
  outer loop
    vertex 17.0 -0.09999999999999981 0.0
    vertex 8.948888739433603 -0.10000000000000017 -2.888228567653781
    vertex 9.0 -0.10000000000000017 -2.5
  endloop
endfacet
facet normal 1.9372593987621455e-36 1.0 -1.2164349282463148e-18
  outer loop
    vertex 17.0 -0.09999999999999981 0.0
    vertex 9.0 -0.10000000000000017 -2.5
    vertex 8.948888739433603 -0.10000000000000017 -2.111771432346219
  endloop
endfacet
facet normal 1.9372593987621455e-36 1.0 -1.2164349282463148e-18
  outer loop
    vertex 17.0 -0.09999999999999981 0.0
    vertex 8.948888739433603 -0.10000000000000017 -2.111771432346219
    vertex 8.799038105676658 -0.10000000000000017 -1.7500000000000002
  endloop
endfacet
facet normal 1.9372593987621455e-36 1.0 -1.2164349282463148e-18
  outer loop
    vertex 17.0 -0.09999999999999981 0.0
    vertex 8.799038105676658 -0.10000000000000017 -1.7500000000000002
    vertex 8.560660171779821 -0.10000000000000017 -1.4393398282201786
  endloop
endfacet
facet normal 1.9372593987621455e-36 1.0 -1.2164349282463148e-18
  outer loop
    vertex 17.0 -0.09999999999999981 0.0
    vertex 8.560660171779821 -0.10000000000000017 -1.4393398282201786
    vertex 8.25 -0.10000000000000017 -1.2009618943233422
  endloop
endfacet
facet normal 1.9372593987621455e-36 1.0 -1.2164349282463148e-18
  outer loop
    vertex 17.0 -0.09999999999999981 0.0
    vertex 8.25 -0.10000000000000017 -1.2009618943233422
    vertex 7.8882285676537816 -0.10000000000000017 -1.051111260566398
  endloop
endfacet
facet normal 1.9372593987621455e-36 1.0 -1.2164349282463148e-18
  outer loop
    vertex 17.0 -0.09999999999999981 0.0
    vertex 7.8882285676537816 -0.10000000000000017 -1.051111260566398
    vertex 7.5 -0.10000000000000017 -1.0000000000000002
  endloop
endfacet
facet normal 1.9372593987621455e-36 1.0 -1.2164349282463148e-18
  outer loop
    vertex 17.0 -0.09999999999999981 0.0
    vertex 7.5 -0.10000000000000017 -1.0000000000000002
    vertex -1.9999999999999991 -0.09999999999999981 0.0
  endloop
endfacet
facet normal 1.9372593987621455e-36 1.0 -1.2164349282463148e-18
  outer loop
    vertex 17.0 -0.09999999999999981 0.0
    vertex -1.9999999999999991 -0.09999999999999981 0.0
    vertex -0.09999999999999981 -0.10000000000000017 0.0
  endloop
endfacet
facet normal 1.9372593987621455e-36 1.0 -1.2164349282463148e-18
  outer loop
    vertex 17.0 -0.09999999999999981 0.0
    vertex -0.09999999999999981 -0.10000000000000017 0.0
    vertex 15.1 -0.10000000000000017 0.0
  endloop
endfacet
facet normal 0.9347835805883491 -3.622526536998926e-17 -0.3552177606235726
  outer loop
    vertex 15.1 6.0 -5.0
    vertex 17.0 4.1 0.0
    vertex 15.1 4.1 -5.0
  endloop
endfacet
facet normal 0.9347835805883491 -3.622526536998926e-17 -0.3552177606235726
  outer loop
    vertex 17.0 4.1 0.0
    vertex 15.1 6.0 -5.0
    vertex 17.0 6.0 0.0
  endloop
endfacet
facet normal 0.0 -1.0 0.0
  outer loop
    vertex 15.1 4.1 -5.0
    vertex 7.5 4.1 -3.9999999999999996
    vertex -0.09999999999999981 4.1 -5.0
  endloop
endfacet
facet normal 0.0 -1.0 0.0
  outer loop
    vertex 7.5 4.1 -3.9999999999999996
    vertex 15.1 4.1 -5.0
    vertex 7.888228567653781 4.1 -3.948888739433602
  endloop
endfacet
facet normal 0.0 -1.0 0.0
  outer loop
    vertex 7.888228567653781 4.1 -3.948888739433602
    vertex 15.1 4.1 -5.0
    vertex 8.25 4.1 -3.7990381056766584
  endloop
endfacet
facet normal 0.0 -1.0 0.0
  outer loop
    vertex 8.25 4.1 -3.7990381056766584
    vertex 15.1 4.1 -5.0
    vertex 17.0 4.1 0.0
  endloop
endfacet
facet normal 0.0 -1.0 0.0
  outer loop
    vertex 8.25 4.1 -3.7990381056766584
    vertex 17.0 4.1 0.0
    vertex 8.560660171779821 4.1 -3.5606601717798223
  endloop
endfacet
facet normal 0.0 -1.0 0.0
  outer loop
    vertex 8.560660171779821 4.1 -3.5606601717798223
    vertex 17.0 4.1 0.0
    vertex 8.799038105676658 4.1 -3.2500000000000004
  endloop
endfacet
facet normal 0.0 -1.0 0.0
  outer loop
    vertex 8.799038105676658 4.1 -3.2500000000000004
    vertex 17.0 4.1 0.0
    vertex 8.948888739433603 4.1 -2.8882285676537824
  endloop
endfacet
facet normal 0.0 -1.0 0.0
  outer loop
    vertex 8.948888739433603 4.1 -2.8882285676537824
    vertex 17.0 4.1 0.0
    vertex 9.0 4.1 -2.5000000000000004
  endloop
endfacet
facet normal 0.0 -1.0 0.0
  outer loop
    vertex 9.0 4.1 -2.5000000000000004
    vertex 17.0 4.1 0.0
    vertex 8.948888739433603 4.1 -2.11177143234622
  endloop
endfacet
facet normal 0.0 -1.0 0.0
  outer loop
    vertex 8.948888739433603 4.1 -2.11177143234622
    vertex 17.0 4.1 0.0
    vertex 8.79903810567666 4.1 -1.750000000000001
  endloop
endfacet
facet normal 0.0 -1.0 0.0
  outer loop
    vertex 8.79903810567666 4.1 -1.750000000000001
    vertex 17.0 4.1 0.0
    vertex 8.560660171779821 4.1 -1.4393398282201793
  endloop
endfacet
facet normal 0.0 -1.0 0.0
  outer loop
    vertex 8.560660171779821 4.1 -1.4393398282201793
    vertex 17.0 4.1 0.0
    vertex 8.250000000000002 4.1 -1.2009618943233422
  endloop
endfacet
facet normal 0.0 -1.0 0.0
  outer loop
    vertex 8.250000000000002 4.1 -1.2009618943233422
    vertex 17.0 4.1 0.0
    vertex 7.888228567653783 4.1 -1.051111260566398
  endloop
endfacet
facet normal 0.0 -1.0 0.0
  outer loop
    vertex 7.888228567653783 4.1 -1.051111260566398
    vertex 17.0 4.1 0.0
    vertex 7.5 4.1 -1.0000000000000002
  endloop
endfacet
facet normal 0.0 -1.0 0.0
  outer loop
    vertex 15.1 4.1 4.0
    vertex -0.09999999999999981 4.1 0.0
    vertex 15.1 4.1 0.0
  endloop
endfacet
facet normal 0.0 -1.0 0.0
  outer loop
    vertex -0.09999999999999981 4.1 0.0
    vertex 15.1 4.1 4.0
    vertex -0.10000000000000017 4.1 4.0
  endloop
endfacet
facet normal 0.0 -1.0 0.0
  outer loop
    vertex -0.09999999999999981 4.1 -5.0
    vertex 6.75 4.1 -3.7990381056766576
    vertex -1.9999999999999991 4.1 0.0
  endloop
endfacet
facet normal 0.0 -1.0 0.0
  outer loop
    vertex 6.75 4.1 -3.7990381056766576
    vertex -0.09999999999999981 4.1 -5.0
    vertex 7.111771432346219 4.1 -3.948888739433602
  endloop
endfacet
facet normal 0.0 -1.0 0.0
  outer loop
    vertex 7.111771432346219 4.1 -3.948888739433602
    vertex -0.09999999999999981 4.1 -5.0
    vertex 7.5 4.1 -3.9999999999999996
  endloop
endfacet
facet normal 0.0 -1.0 0.0
  outer loop
    vertex -1.9999999999999991 4.1 0.0
    vertex 6.75 4.1 -3.7990381056766576
    vertex 6.439339828220179 4.1 -3.560660171779821
  endloop
endfacet
facet normal 0.0 -1.0 0.0
  outer loop
    vertex -1.9999999999999991 4.1 0.0
    vertex 6.439339828220179 4.1 -3.560660171779821
    vertex 6.200961894323342 4.1 -3.2499999999999996
  endloop
endfacet
facet normal 0.0 -1.0 0.0
  outer loop
    vertex -1.9999999999999991 4.1 0.0
    vertex 6.200961894323342 4.1 -3.2499999999999996
    vertex 6.0511112605663975 4.1 -2.888228567653781
  endloop
endfacet
facet normal 0.0 -1.0 0.0
  outer loop
    vertex -1.9999999999999991 4.1 0.0
    vertex 6.0511112605663975 4.1 -2.888228567653781
    vertex 6.0 4.1 -2.5
  endloop
endfacet
facet normal 0.0 -1.0 0.0
  outer loop
    vertex -1.9999999999999991 4.1 0.0
    vertex 6.0 4.1 -2.5
    vertex 6.0511112605663975 4.1 -2.111771432346219
  endloop
endfacet
facet normal 0.0 -1.0 0.0
  outer loop
    vertex -1.9999999999999991 4.1 0.0
    vertex 6.0511112605663975 4.1 -2.111771432346219
    vertex 6.200961894323342 4.1 -1.7500000000000002
  endloop
endfacet
facet normal 0.0 -1.0 0.0
  outer loop
    vertex -1.9999999999999991 4.1 0.0
    vertex 6.200961894323342 4.1 -1.7500000000000002
    vertex 6.439339828220179 4.1 -1.4393398282201786
  endloop
endfacet
facet normal 0.0 -1.0 0.0
  outer loop
    vertex -1.9999999999999991 4.1 0.0
    vertex 6.439339828220179 4.1 -1.4393398282201786
    vertex 6.75 4.1 -1.2009618943233422
  endloop
endfacet
facet normal 0.0 -1.0 0.0
  outer loop
    vertex -1.9999999999999991 4.1 0.0
    vertex 6.75 4.1 -1.2009618943233422
    vertex 7.111771432346219 4.1 -1.051111260566398
  endloop
endfacet
facet normal 0.0 -1.0 0.0
  outer loop
    vertex -1.9999999999999991 4.1 0.0
    vertex 7.111771432346219 4.1 -1.051111260566398
    vertex 7.5 4.1 -1.0000000000000002
  endloop
endfacet
facet normal 0.0 -1.0 0.0
  outer loop
    vertex -1.9999999999999991 4.1 0.0
    vertex 7.5 4.1 -1.0000000000000002
    vertex 17.0 4.1 0.0
  endloop
endfacet
facet normal 0.0 -1.0 0.0
  outer loop
    vertex -1.9999999999999991 4.1 0.0
    vertex 17.0 4.1 0.0
    vertex 15.1 4.1 0.0
  endloop
endfacet
facet normal 0.0 -1.0 0.0
  outer loop
    vertex -1.9999999999999991 4.1 0.0
    vertex 15.1 4.1 0.0
    vertex -0.09999999999999981 4.1 0.0
  endloop
endfacet
facet normal -0.9347835805883491 3.217449894953519e-32 -0.3552177606235725
  outer loop
    vertex -1.9999999999999991 6.0 0.0
    vertex -0.09999999999999981 4.1 -5.0
    vertex -1.9999999999999991 4.1 0.0
  endloop
endfacet
facet normal -0.9347835805883491 3.217449894953519e-32 -0.3552177606235725
  outer loop
    vertex -0.09999999999999981 4.1 -5.0
    vertex -1.9999999999999991 6.0 0.0
    vertex -0.09999999999999981 6.0 -5.0
  endloop
endfacet
facet normal -0.9347835805883491 1.883713799239466e-17 -0.3552177606235726
  outer loop
    vertex -1.9999999999999991 -0.09999999999999981 0.0
    vertex -0.09999999999999981 -1.9999999999999998 -5.0
    vertex -1.9999999999999991 -1.9999999999999998 0.0
  endloop
endfacet
facet normal -0.9347835805883491 1.883713799239466e-17 -0.3552177606235726
  outer loop
    vertex -0.09999999999999981 -1.9999999999999998 -5.0
    vertex -1.9999999999999991 -0.09999999999999981 0.0
    vertex -0.09999999999999981 -0.10000000000000017 -5.0
  endloop
endfacet
facet normal -0.9020813439553579 0.0 0.43156604232457324
  outer loop
    vertex 42.8679115561144 10.5 9.68338798345672
    vertex 42.679495 0.4999999999999998 9.14
    vertex 42.8679115561144 0.4999999999999998 9.68338798345672
  endloop
endfacet
facet normal -0.9448135664419964 0.0 0.3276084929716498
  outer loop
    vertex 42.679495 0.4999999999999998 9.14
    vertex 42.8679115561144 10.5 9.68338798345672
    vertex 42.679495 10.5 9.14
  endloop
endfacet
facet normal -0.7831121523747782 0.0 0.6218805004202513
  outer loop
    vertex 43.172770109539634 10.5 10.171068782326888
    vertex 42.8679115561144 0.4999999999999998 9.68338798345672
    vertex 43.172770109539634 0.4999999999999998 10.171068782326888
  endloop
endfacet
facet normal -0.9020813439553579 0.0 0.43156604232457324
  outer loop
    vertex 42.8679115561144 0.4999999999999998 9.68338798345672
    vertex 43.172770109539634 10.5 10.171068782326888
    vertex 42.8679115561144 10.5 9.68338798345672
  endloop
endfacet
facet normal -0.624695047554424 0.0 0.7808688094430308
  outer loop
    vertex 43.5787139406418 10.5 10.578476324197766
    vertex 43.172770109539634 0.4999999999999998 10.171068782326888
    vertex 43.5787139406418 0.4999999999999998 10.578476324197766
  endloop
endfacet
facet normal -0.7831121523747782 0.0 0.6218805004202513
  outer loop
    vertex 43.172770109539634 0.4999999999999998 10.171068782326888
    vertex 43.5787139406418 10.5 10.578476324197766
    vertex 43.172770109539634 10.5 10.171068782326888
  endloop
endfacet
facet normal -0.43481001574236516 0.0 0.9005222097261811
  outer loop
    vertex 44.065294334660194 0.4999999999999998 10.88508816242334
    vertex 43.5787139406418 10.5 10.578476324197766
    vertex 43.5787139406418 0.4999999999999998 10.578476324197766
  endloop
endfacet
facet normal -0.624695047554424 0.0 0.7808688094430308
  outer loop
    vertex 43.5787139406418 10.5 10.578476324197766
    vertex 44.065294334660194 0.4999999999999998 10.88508816242334
    vertex 44.065294334660194 10.5 10.88508816242334
  endloop
endfacet
facet normal -0.22302218530206672 0.0 0.9748133692472065
  outer loop
    vertex 44.60800065016346 0.4999999999999998 11.075459258695966
    vertex 44.065294334660194 10.5 10.88508816242334
    vertex 44.065294334660194 0.4999999999999998 10.88508816242334
  endloop
endfacet
facet normal -0.43481001574236516 0.0 0.9005222097261811
  outer loop
    vertex 44.065294334660194 10.5 10.88508816242334
    vertex 44.60800065016346 0.4999999999999998 11.075459258695966
    vertex 44.60800065016346 10.5 11.075459258695966
  endloop
endfacet
facet normal 0.0 0.0 1.0
  outer loop
    vertex 45.17949500000001 0.4999999999999998 11.14
    vertex 44.60800065016346 10.5 11.075459258695966
    vertex 44.60800065016346 0.4999999999999998 11.075459258695966
  endloop
endfacet
facet normal -0.22302218530206672 0.0 0.9748133692472065
  outer loop
    vertex 44.60800065016346 10.5 11.075459258695966
    vertex 45.17949500000001 0.4999999999999998 11.14
    vertex 45.17949500000001 10.5 11.14
  endloop
endfacet
facet normal 0.22302218530206672 0.0 0.9748133692472065
  outer loop
    vertex 45.75098934983655 0.4999999999999998 11.075459258695966
    vertex 45.17949500000001 10.5 11.14
    vertex 45.17949500000001 0.4999999999999998 11.14
  endloop
endfacet
facet normal 0.0 0.0 1.0
  outer loop
    vertex 45.17949500000001 10.5 11.14
    vertex 45.75098934983655 0.4999999999999998 11.075459258695966
    vertex 45.75098934983655 10.5 11.075459258695966
  endloop
endfacet
facet normal 0.0 -1.0 0.0
  outer loop
    vertex 47.49107844388561 0.4999999999999998 9.68338798345672
    vertex 42.679495 0.4999999999999998 9.14
    vertex 47.67949500000001 0.4999999999999998 9.14
  endloop
endfacet
facet normal 0.0 -1.0 0.0
  outer loop
    vertex 42.679495 0.4999999999999998 9.14
    vertex 47.49107844388561 0.4999999999999998 9.68338798345672
    vertex 42.8679115561144 0.4999999999999998 9.68338798345672
  endloop
endfacet
facet normal 0.0 -1.0 0.0
  outer loop
    vertex 42.8679115561144 0.4999999999999998 9.68338798345672
    vertex 47.49107844388561 0.4999999999999998 9.68338798345672
    vertex 47.186219890460386 0.4999999999999998 10.171068782326888
  endloop
endfacet
facet normal 0.0 -1.0 0.0
  outer loop
    vertex 42.8679115561144 0.4999999999999998 9.68338798345672
    vertex 47.186219890460386 0.4999999999999998 10.171068782326888
    vertex 43.172770109539634 0.4999999999999998 10.171068782326888
  endloop
endfacet
facet normal 0.0 -1.0 0.0
  outer loop
    vertex 43.172770109539634 0.4999999999999998 10.171068782326888
    vertex 47.186219890460386 0.4999999999999998 10.171068782326888
    vertex 46.78027605935822 0.4999999999999998 10.578476324197766
  endloop
endfacet
facet normal 0.0 -1.0 0.0
  outer loop
    vertex 43.172770109539634 0.4999999999999998 10.171068782326888
    vertex 46.78027605935822 0.4999999999999998 10.578476324197766
    vertex 43.5787139406418 0.4999999999999998 10.578476324197766
  endloop
endfacet
facet normal 0.0 -1.0 0.0
  outer loop
    vertex 43.5787139406418 0.4999999999999998 10.578476324197766
    vertex 46.78027605935822 0.4999999999999998 10.578476324197766
    vertex 46.29369566533982 0.4999999999999998 10.88508816242334
  endloop
endfacet
facet normal 0.0 -1.0 0.0
  outer loop
    vertex 43.5787139406418 0.4999999999999998 10.578476324197766
    vertex 46.29369566533982 0.4999999999999998 10.88508816242334
    vertex 44.065294334660194 0.4999999999999998 10.88508816242334
  endloop
endfacet
facet normal 0.0 -1.0 0.0
  outer loop
    vertex 44.065294334660194 0.4999999999999998 10.88508816242334
    vertex 46.29369566533982 0.4999999999999998 10.88508816242334
    vertex 45.75098934983655 0.4999999999999998 11.075459258695966
  endloop
endfacet
facet normal 0.0 -1.0 0.0
  outer loop
    vertex 44.065294334660194 0.4999999999999998 10.88508816242334
    vertex 45.75098934983655 0.4999999999999998 11.075459258695966
    vertex 44.60800065016346 0.4999999999999998 11.075459258695966
  endloop
endfacet
facet normal 0.0 -1.0 0.0
  outer loop
    vertex 44.60800065016346 0.4999999999999998 11.075459258695966
    vertex 45.75098934983655 0.4999999999999998 11.075459258695966
    vertex 45.17949500000001 0.4999999999999998 11.14
  endloop
endfacet
facet normal 0.4348100157423629 0.0 0.9005222097261824
  outer loop
    vertex 46.29369566533982 0.4999999999999998 10.88508816242334
    vertex 45.75098934983655 10.5 11.075459258695966
    vertex 45.75098934983655 0.4999999999999998 11.075459258695966
  endloop
endfacet
facet normal 0.22302218530206672 0.0 0.9748133692472065
  outer loop
    vertex 45.75098934983655 10.5 11.075459258695966
    vertex 46.29369566533982 0.4999999999999998 10.88508816242334
    vertex 46.29369566533982 10.5 10.88508816242334
  endloop
endfacet
facet normal 0.6246950475544245 0.0 0.7808688094430303
  outer loop
    vertex 46.78027605935822 0.4999999999999998 10.578476324197766
    vertex 46.29369566533982 10.5 10.88508816242334
    vertex 46.29369566533982 0.4999999999999998 10.88508816242334
  endloop
endfacet
facet normal 0.4348100157423629 0.0 0.9005222097261824
  outer loop
    vertex 46.29369566533982 10.5 10.88508816242334
    vertex 46.78027605935822 0.4999999999999998 10.578476324197766
    vertex 46.78027605935822 10.5 10.578476324197766
  endloop
endfacet
facet normal 0.7831121523747805 0.0 0.6218805004202487
  outer loop
    vertex 47.186219890460386 10.5 10.171068782326888
    vertex 46.78027605935822 0.4999999999999998 10.578476324197766
    vertex 47.186219890460386 0.4999999999999998 10.171068782326888
  endloop
endfacet
facet normal 0.6246950475544245 0.0 0.7808688094430303
  outer loop
    vertex 46.78027605935822 0.4999999999999998 10.578476324197766
    vertex 47.186219890460386 10.5 10.171068782326888
    vertex 46.78027605935822 10.5 10.578476324197766
  endloop
endfacet
facet normal 0.9020813439553579 0.0 0.43156604232457324
  outer loop
    vertex 47.49107844388561 10.5 9.68338798345672
    vertex 47.186219890460386 0.4999999999999998 10.171068782326888
    vertex 47.49107844388561 0.4999999999999998 9.68338798345672
  endloop
endfacet
facet normal 0.7831121523747805 0.0 0.6218805004202487
  outer loop
    vertex 47.186219890460386 0.4999999999999998 10.171068782326888
    vertex 47.49107844388561 10.5 9.68338798345672
    vertex 47.186219890460386 10.5 10.171068782326888
  endloop
endfacet
facet normal 0.9448135664419964 0.0 0.3276084929716498
  outer loop
    vertex 47.67949500000001 10.5 9.14
    vertex 47.49107844388561 0.4999999999999998 9.68338798345672
    vertex 47.67949500000001 0.4999999999999998 9.14
  endloop
endfacet
facet normal 0.9020813439553579 0.0 0.43156604232457324
  outer loop
    vertex 47.49107844388561 0.4999999999999998 9.68338798345672
    vertex 47.67949500000001 10.5 9.14
    vertex 47.49107844388561 10.5 9.68338798345672
  endloop
endfacet
facet normal 0.0 0.0 -1.0
  outer loop
    vertex 47.67949500000001 10.5 9.14
    vertex 42.679495 0.4999999999999998 9.14
    vertex 42.679495 10.5 9.14
  endloop
endfacet
facet normal 0.0 0.0 -1.0
  outer loop
    vertex 42.679495 0.4999999999999998 9.14
    vertex 47.67949500000001 10.5 9.14
    vertex 47.67949500000001 0.4999999999999998 9.14
  endloop
endfacet
facet normal 0.0 1.0 0.0
  outer loop
    vertex 42.8679115561144 10.5 9.68338798345672
    vertex 47.67949500000001 10.5 9.14
    vertex 42.679495 10.5 9.14
  endloop
endfacet
facet normal 0.0 1.0 0.0
  outer loop
    vertex 47.67949500000001 10.5 9.14
    vertex 42.8679115561144 10.5 9.68338798345672
    vertex 47.49107844388561 10.5 9.68338798345672
  endloop
endfacet
facet normal 0.0 1.0 0.0
  outer loop
    vertex 47.49107844388561 10.5 9.68338798345672
    vertex 42.8679115561144 10.5 9.68338798345672
    vertex 43.172770109539634 10.5 10.171068782326888
  endloop
endfacet
facet normal 0.0 1.0 0.0
  outer loop
    vertex 47.49107844388561 10.5 9.68338798345672
    vertex 43.172770109539634 10.5 10.171068782326888
    vertex 47.186219890460386 10.5 10.171068782326888
  endloop
endfacet
facet normal 0.0 1.0 0.0
  outer loop
    vertex 47.186219890460386 10.5 10.171068782326888
    vertex 43.172770109539634 10.5 10.171068782326888
    vertex 43.5787139406418 10.5 10.578476324197766
  endloop
endfacet
facet normal 0.0 1.0 0.0
  outer loop
    vertex 47.186219890460386 10.5 10.171068782326888
    vertex 43.5787139406418 10.5 10.578476324197766
    vertex 46.78027605935822 10.5 10.578476324197766
  endloop
endfacet
facet normal 0.0 1.0 0.0
  outer loop
    vertex 46.78027605935822 10.5 10.578476324197766
    vertex 43.5787139406418 10.5 10.578476324197766
    vertex 44.065294334660194 10.5 10.88508816242334
  endloop
endfacet
facet normal 0.0 1.0 0.0
  outer loop
    vertex 46.78027605935822 10.5 10.578476324197766
    vertex 44.065294334660194 10.5 10.88508816242334
    vertex 46.29369566533982 10.5 10.88508816242334
  endloop
endfacet
facet normal 0.0 1.0 0.0
  outer loop
    vertex 46.29369566533982 10.5 10.88508816242334
    vertex 44.065294334660194 10.5 10.88508816242334
    vertex 44.60800065016346 10.5 11.075459258695966
  endloop
endfacet
facet normal 0.0 1.0 0.0
  outer loop
    vertex 46.29369566533982 10.5 10.88508816242334
    vertex 44.60800065016346 10.5 11.075459258695966
    vertex 45.75098934983655 10.5 11.075459258695966
  endloop
endfacet
facet normal 0.0 1.0 0.0
  outer loop
    vertex 45.75098934983655 10.5 11.075459258695966
    vertex 44.60800065016346 10.5 11.075459258695966
    vertex 45.17949500000001 10.5 11.14
  endloop
endfacet
endsolid front-fix
