solid m3
facet normal 0.0 0.0 -1.0
  outer loop
    vertex -2.4148145657226707 0.6470476127563025 0.0
    vertex -2.414814565722671 -0.6470476127563008 0.0
    vertex -2.5 3.061616997868383e-16 0.0
  endloop
endfacet
facet normal 0.0 0.0 -1.0
  outer loop
    vertex -2.414814565722671 -0.6470476127563008 0.0
    vertex -2.4148145657226707 0.6470476127563025 0.0
    vertex -2.1650635094610973 -1.2499999999999993 0.0
  endloop
endfacet
facet normal 0.0 0.0 -1.0
  outer loop
    vertex -2.1650635094610973 -1.2499999999999993 0.0
    vertex -2.4148145657226707 0.6470476127563025 0.0
    vertex -2.1650635094610964 1.2500000000000009 0.0
  endloop
endfacet
facet normal 0.0 0.0 -1.0
  outer loop
    vertex -2.1650635094610973 -1.2499999999999993 0.0
    vertex -2.1650635094610964 1.2500000000000009 0.0
    vertex -1.7677669529663698 -1.767766952966368 0.0
  endloop
endfacet
facet normal 0.0 0.0 -1.0
  outer loop
    vertex -1.7677669529663698 -1.767766952966368 0.0
    vertex -2.1650635094610964 1.2500000000000009 0.0
    vertex -1.7677669529663687 1.767766952966369 0.0
  endloop
endfacet
facet normal 0.0 0.0 -1.0
  outer loop
    vertex -1.7677669529663698 -1.767766952966368 0.0
    vertex -1.7677669529663687 1.767766952966369 0.0
    vertex -1.250000000000001 -2.165063509461096 0.0
  endloop
endfacet
facet normal 0.0 0.0 -1.0
  outer loop
    vertex -1.250000000000001 -2.165063509461096 0.0
    vertex -1.7677669529663687 1.767766952966369 0.0
    vertex -1.2499999999999996 2.165063509461097 0.0
  endloop
endfacet
facet normal 0.0 0.0 -1.0
  outer loop
    vertex -1.250000000000001 -2.165063509461096 0.0
    vertex -1.2499999999999996 2.165063509461097 0.0
    vertex -0.6470476127563038 -2.4148145657226703 0.0
  endloop
endfacet
facet normal 0.0 0.0 -1.0
  outer loop
    vertex -0.6470476127563038 -2.4148145657226703 0.0
    vertex -1.2499999999999996 2.165063509461097 0.0
    vertex -0.6470476127563015 2.4148145657226707 0.0
  endloop
endfacet
facet normal 0.0 0.0 -1.0
  outer loop
    vertex -0.6470476127563038 -2.4148145657226703 0.0
    vertex -0.6470476127563015 2.4148145657226707 0.0
    vertex -4.592425496802574e-16 -2.5 0.0
  endloop
endfacet
facet normal 0.0 0.0 -1.0
  outer loop
    vertex -4.592425496802574e-16 -2.5 0.0
    vertex -0.6470476127563015 2.4148145657226707 0.0
    vertex 1.5308084989341916e-16 2.5 0.0
  endloop
endfacet
facet normal 0.0 0.0 -1.0
  outer loop
    vertex -4.592425496802574e-16 -2.5 0.0
    vertex 1.5308084989341916e-16 2.5 0.0
    vertex 0.6470476127563007 -2.414814565722671 0.0
  endloop
endfacet
facet normal 0.0 0.0 -1.0
  outer loop
    vertex 0.6470476127563007 -2.414814565722671 0.0
    vertex 1.5308084989341916e-16 2.5 0.0
    vertex 0.6470476127563024 2.4148145657226707 0.0
  endloop
endfacet
facet normal 0.0 0.0 -1.0
  outer loop
    vertex 0.6470476127563007 -2.414814565722671 0.0
    vertex 0.6470476127563024 2.4148145657226707 0.0
    vertex 1.2499999999999984 -2.1650635094610977 0.0
  endloop
endfacet
facet normal 0.0 0.0 -1.0
  outer loop
    vertex 1.2499999999999984 -2.1650635094610977 0.0
    vertex 0.6470476127563024 2.4148145657226707 0.0
    vertex 1.2500000000000004 2.1650635094610964 0.0
  endloop
endfacet
facet normal 0.0 0.0 -1.0
  outer loop
    vertex 1.2499999999999984 -2.1650635094610977 0.0
    vertex 1.2500000000000004 2.1650635094610964 0.0
    vertex 1.7677669529663682 -1.7677669529663693 0.0
  endloop
endfacet
facet normal 0.0 0.0 -1.0
  outer loop
    vertex 1.7677669529663682 -1.7677669529663693 0.0
    vertex 1.2500000000000004 2.1650635094610964 0.0
    vertex 1.767766952966369 1.7677669529663687 0.0
  endloop
endfacet
facet normal 0.0 0.0 -1.0
  outer loop
    vertex 1.7677669529663682 -1.7677669529663693 0.0
    vertex 1.767766952966369 1.7677669529663687 0.0
    vertex 2.165063509461096 -1.250000000000001 0.0
  endloop
endfacet
facet normal 0.0 0.0 -1.0
  outer loop
    vertex 2.165063509461096 -1.250000000000001 0.0
    vertex 1.767766952966369 1.7677669529663687 0.0
    vertex 2.165063509461097 1.2499999999999998 0.0
  endloop
endfacet
facet normal 0.0 0.0 -1.0
  outer loop
    vertex 2.165063509461096 -1.250000000000001 0.0
    vertex 2.165063509461097 1.2499999999999998 0.0
    vertex 2.4148145657226703 -0.647047612756304 0.0
  endloop
endfacet
facet normal 0.0 0.0 -1.0
  outer loop
    vertex 2.4148145657226703 -0.647047612756304 0.0
    vertex 2.165063509461097 1.2499999999999998 0.0
    vertex 2.4148145657226707 0.6470476127563018 0.0
  endloop
endfacet
facet normal 0.0 0.0 -1.0
  outer loop
    vertex 2.4148145657226703 -0.647047612756304 0.0
    vertex 2.4148145657226707 0.6470476127563018 0.0
    vertex 2.5 0.0 0.0
  endloop
endfacet
facet normal -0.0 -0.0 1.0
  outer loop
    vertex -2.414814565722671 -0.6470476127563008 1.5
    vertex -2.4148145657226707 0.6470476127563025 1.5
    vertex -2.5 3.061616997868383e-16 1.5
  endloop
endfacet
facet normal -0.0 -0.0 1.0
  outer loop
    vertex -2.4148145657226707 0.6470476127563025 1.5
    vertex -2.414814565722671 -0.6470476127563008 1.5
    vertex -2.1650635094610973 -1.2499999999999993 1.5
  endloop
endfacet
facet normal -0.0 -0.0 1.0
  outer loop
    vertex -2.4148145657226707 0.6470476127563025 1.5
    vertex -2.1650635094610973 -1.2499999999999993 1.5
    vertex -2.1650635094610964 1.2500000000000009 1.5
  endloop
endfacet
facet normal -0.0 -0.0 1.0
  outer loop
    vertex -2.1650635094610964 1.2500000000000009 1.5
    vertex -2.1650635094610973 -1.2499999999999993 1.5
    vertex -1.7677669529663698 -1.767766952966368 1.5
  endloop
endfacet
facet normal -0.0 -0.0 1.0
  outer loop
    vertex -2.1650635094610964 1.2500000000000009 1.5
    vertex -1.7677669529663698 -1.767766952966368 1.5
    vertex -1.7677669529663687 1.767766952966369 1.5
  endloop
endfacet
facet normal -0.0 -0.0 1.0
  outer loop
    vertex -1.7677669529663687 1.767766952966369 1.5
    vertex -1.7677669529663698 -1.767766952966368 1.5
    vertex -1.250000000000001 -2.165063509461096 1.5
  endloop
endfacet
facet normal -0.0 -0.0 1.0
  outer loop
    vertex -1.7677669529663687 1.767766952966369 1.5
    vertex -1.250000000000001 -2.165063509461096 1.5
    vertex -1.3999999999999997 -1.7145055188062941e-16 1.5
  endloop
endfacet
facet normal -0.0 -0.0 1.0
  outer loop
    vertex -1.3999999999999997 -1.7145055188062941e-16 1.5
    vertex -1.250000000000001 -2.165063509461096 1.5
    vertex -1.3522961568046952 -0.3623466631435293 1.5
  endloop
endfacet
facet normal -0.0 -0.0 1.0
  outer loop
    vertex -1.3522961568046952 -0.3623466631435293 1.5
    vertex -1.250000000000001 -2.165063509461096 1.5
    vertex -1.2124355652982137 -0.7000000000000003 1.5
  endloop
endfacet
facet normal -0.0 -0.0 1.0
  outer loop
    vertex -1.2124355652982137 -0.7000000000000003 1.5
    vertex -1.250000000000001 -2.165063509461096 1.5
    vertex -0.6470476127563038 -2.4148145657226703 1.5
  endloop
endfacet
facet normal -0.0 -0.0 1.0
  outer loop
    vertex -1.2124355652982137 -0.7000000000000003 1.5
    vertex -0.6470476127563038 -2.4148145657226703 1.5
    vertex -0.9899494936611662 -0.9899494936611664 1.5
  endloop
endfacet
facet normal -0.0 -0.0 1.0
  outer loop
    vertex -0.9899494936611662 -0.9899494936611664 1.5
    vertex -0.6470476127563038 -2.4148145657226703 1.5
    vertex -0.6999999999999995 -1.212435565298214 1.5
  endloop
endfacet
facet normal -0.0 -0.0 1.0
  outer loop
    vertex -0.6999999999999995 -1.212435565298214 1.5
    vertex -0.6470476127563038 -2.4148145657226703 1.5
    vertex -0.3623466631435288 -1.3522961568046954 1.5
  endloop
endfacet
facet normal -0.0 -0.0 1.0
  outer loop
    vertex -0.3623466631435288 -1.3522961568046954 1.5
    vertex -0.6470476127563038 -2.4148145657226703 1.5
    vertex -4.592425496802574e-16 -2.5 1.5
  endloop
endfacet
facet normal -0.0 -0.0 1.0
  outer loop
    vertex -0.3623466631435288 -1.3522961568046954 1.5
    vertex -4.592425496802574e-16 -2.5 1.5
    vertex 8.572527594031471e-17 -1.3999999999999997 1.5
  endloop
endfacet
facet normal -0.0 -0.0 1.0
  outer loop
    vertex 8.572527594031471e-17 -1.3999999999999997 1.5
    vertex -4.592425496802574e-16 -2.5 1.5
    vertex 0.6470476127563007 -2.414814565722671 1.5
  endloop
endfacet
facet normal -0.0 -0.0 1.0
  outer loop
    vertex 8.572527594031471e-17 -1.3999999999999997 1.5
    vertex 0.6470476127563007 -2.414814565722671 1.5
    vertex 0.3623466631435293 -1.3522961568046952 1.5
  endloop
endfacet
facet normal -0.0 -0.0 1.0
  outer loop
    vertex 0.3623466631435293 -1.3522961568046952 1.5
    vertex 0.6470476127563007 -2.414814565722671 1.5
    vertex 0.7000000000000001 -1.212435565298214 1.5
  endloop
endfacet
facet normal -0.0 -0.0 1.0
  outer loop
    vertex 0.7000000000000001 -1.212435565298214 1.5
    vertex 0.6470476127563007 -2.414814565722671 1.5
    vertex 1.2499999999999984 -2.1650635094610977 1.5
  endloop
endfacet
facet normal -0.0 -0.0 1.0
  outer loop
    vertex 0.7000000000000001 -1.212435565298214 1.5
    vertex 1.2499999999999984 -2.1650635094610977 1.5
    vertex 0.9899494936611664 -0.9899494936611662 1.5
  endloop
endfacet
facet normal -0.0 -0.0 1.0
  outer loop
    vertex 0.9899494936611664 -0.9899494936611662 1.5
    vertex 1.2499999999999984 -2.1650635094610977 1.5
    vertex 1.212435565298214 -0.6999999999999997 1.5
  endloop
endfacet
facet normal -0.0 -0.0 1.0
  outer loop
    vertex 1.212435565298214 -0.6999999999999997 1.5
    vertex 1.2499999999999984 -2.1650635094610977 1.5
    vertex 1.3522961568046954 -0.362346663143529 1.5
  endloop
endfacet
facet normal -0.0 -0.0 1.0
  outer loop
    vertex 1.3522961568046954 -0.362346663143529 1.5
    vertex 1.2499999999999984 -2.1650635094610977 1.5
    vertex 1.7677669529663682 -1.7677669529663693 1.5
  endloop
endfacet
facet normal -0.0 -0.0 1.0
  outer loop
    vertex 1.3522961568046954 -0.362346663143529 1.5
    vertex 1.7677669529663682 -1.7677669529663693 1.5
    vertex 1.3999999999999997 0.0 1.5
  endloop
endfacet
facet normal -0.0 -0.0 1.0
  outer loop
    vertex -1.3999999999999997 -1.7145055188062941e-16 1.5
    vertex -1.2499999999999996 2.165063509461097 1.5
    vertex -1.7677669529663687 1.767766952966369 1.5
  endloop
endfacet
facet normal -0.0 -0.0 1.0
  outer loop
    vertex -1.2499999999999996 2.165063509461097 1.5
    vertex -1.3999999999999997 -1.7145055188062941e-16 1.5
    vertex -1.3522961568046956 0.3623466631435284 1.5
  endloop
endfacet
facet normal -0.0 -0.0 1.0
  outer loop
    vertex -1.2499999999999996 2.165063509461097 1.5
    vertex -1.3522961568046956 0.3623466631435284 1.5
    vertex -1.212435565298214 0.6999999999999995 1.5
  endloop
endfacet
facet normal -0.0 -0.0 1.0
  outer loop
    vertex -1.2499999999999996 2.165063509461097 1.5
    vertex -1.212435565298214 0.6999999999999995 1.5
    vertex -0.6470476127563015 2.4148145657226707 1.5
  endloop
endfacet
facet normal -0.0 -0.0 1.0
  outer loop
    vertex -0.6470476127563015 2.4148145657226707 1.5
    vertex -1.212435565298214 0.6999999999999995 1.5
    vertex -0.9899494936611669 0.9899494936611659 1.5
  endloop
endfacet
facet normal -0.0 -0.0 1.0
  outer loop
    vertex -0.6470476127563015 2.4148145657226707 1.5
    vertex -0.9899494936611669 0.9899494936611659 1.5
    vertex -0.7000000000000005 1.2124355652982135 1.5
  endloop
endfacet
facet normal -0.0 -0.0 1.0
  outer loop
    vertex -0.6470476127563015 2.4148145657226707 1.5
    vertex -0.7000000000000005 1.2124355652982135 1.5
    vertex -0.36234666314353003 1.352296156804695 1.5
  endloop
endfacet
facet normal -0.0 -0.0 1.0
  outer loop
    vertex -0.6470476127563015 2.4148145657226707 1.5
    vertex -0.36234666314353003 1.352296156804695 1.5
    vertex 1.5308084989341916e-16 2.5 1.5
  endloop
endfacet
facet normal -0.0 -0.0 1.0
  outer loop
    vertex 1.5308084989341916e-16 2.5 1.5
    vertex -0.36234666314353003 1.352296156804695 1.5
    vertex -2.571758278209441e-16 1.3999999999999997 1.5
  endloop
endfacet
facet normal -0.0 -0.0 1.0
  outer loop
    vertex 1.5308084989341916e-16 2.5 1.5
    vertex -2.571758278209441e-16 1.3999999999999997 1.5
    vertex 0.3623466631435283 1.3522961568046956 1.5
  endloop
endfacet
facet normal -0.0 -0.0 1.0
  outer loop
    vertex 1.5308084989341916e-16 2.5 1.5
    vertex 0.3623466631435283 1.3522961568046956 1.5
    vertex 0.6470476127563024 2.4148145657226707 1.5
  endloop
endfacet
facet normal -0.0 -0.0 1.0
  outer loop
    vertex 0.6470476127563024 2.4148145657226707 1.5
    vertex 0.3623466631435283 1.3522961568046956 1.5
    vertex 0.6999999999999988 1.2124355652982144 1.5
  endloop
endfacet
facet normal -0.0 -0.0 1.0
  outer loop
    vertex 0.6470476127563024 2.4148145657226707 1.5
    vertex 0.6999999999999988 1.2124355652982144 1.5
    vertex 1.2500000000000004 2.1650635094610964 1.5
  endloop
endfacet
facet normal -0.0 -0.0 1.0
  outer loop
    vertex 1.2500000000000004 2.1650635094610964 1.5
    vertex 0.6999999999999988 1.2124355652982144 1.5
    vertex 0.989949493661166 0.9899494936611666 1.5
  endloop
endfacet
facet normal -0.0 -0.0 1.0
  outer loop
    vertex 1.2500000000000004 2.1650635094610964 1.5
    vertex 0.989949493661166 0.9899494936611666 1.5
    vertex 1.2124355652982135 0.7000000000000005 1.5
  endloop
endfacet
facet normal -0.0 -0.0 1.0
  outer loop
    vertex 1.2500000000000004 2.1650635094610964 1.5
    vertex 1.2124355652982135 0.7000000000000005 1.5
    vertex 1.352296156804695 0.36234666314353015 1.5
  endloop
endfacet
facet normal -0.0 -0.0 1.0
  outer loop
    vertex 1.2500000000000004 2.1650635094610964 1.5
    vertex 1.352296156804695 0.36234666314353015 1.5
    vertex 1.767766952966369 1.7677669529663687 1.5
  endloop
endfacet
facet normal -0.0 -0.0 1.0
  outer loop
    vertex 1.767766952966369 1.7677669529663687 1.5
    vertex 1.352296156804695 0.36234666314353015 1.5
    vertex 1.3999999999999997 0.0 1.5
  endloop
endfacet
facet normal -0.0 -0.0 1.0
  outer loop
    vertex 1.767766952966369 1.7677669529663687 1.5
    vertex 1.3999999999999997 0.0 1.5
    vertex 1.7677669529663682 -1.7677669529663693 1.5
  endloop
endfacet
facet normal -0.0 -0.0 1.0
  outer loop
    vertex 1.767766952966369 1.7677669529663687 1.5
    vertex 1.7677669529663682 -1.7677669529663693 1.5
    vertex 2.165063509461096 -1.250000000000001 1.5
  endloop
endfacet
facet normal -0.0 -0.0 1.0
  outer loop
    vertex 1.767766952966369 1.7677669529663687 1.5
    vertex 2.165063509461096 -1.250000000000001 1.5
    vertex 2.165063509461097 1.2499999999999998 1.5
  endloop
endfacet
facet normal -0.0 -0.0 1.0
  outer loop
    vertex 2.165063509461097 1.2499999999999998 1.5
    vertex 2.165063509461096 -1.250000000000001 1.5
    vertex 2.4148145657226703 -0.647047612756304 1.5
  endloop
endfacet
facet normal -0.0 -0.0 1.0
  outer loop
    vertex 2.165063509461097 1.2499999999999998 1.5
    vertex 2.4148145657226703 -0.647047612756304 1.5
    vertex 2.4148145657226707 0.6470476127563018 1.5
  endloop
endfacet
facet normal -0.0 -0.0 1.0
  outer loop
    vertex 2.4148145657226707 0.6470476127563018 1.5
    vertex 2.4148145657226703 -0.647047612756304 1.5
    vertex 2.5 0.0 1.5
  endloop
endfacet
facet normal 0.7071067811865476 0.7071067811865475 0.0
  outer loop
    vertex 1.767766952966369 1.7677669529663687 0.0
    vertex 2.165063509461097 1.2499999999999998 1.5
    vertex 2.165063509461097 1.2499999999999998 0.0
  endloop
endfacet
facet normal 0.8660254037844388 0.4999999999999998 0.0
  outer loop
    vertex 2.165063509461097 1.2499999999999998 1.5
    vertex 1.767766952966369 1.7677669529663687 0.0
    vertex 1.767766952966369 1.7677669529663687 1.5
  endloop
endfacet
facet normal 0.8660254037844388 0.4999999999999998 0.0
  outer loop
    vertex 2.165063509461097 1.2499999999999998 0.0
    vertex 2.4148145657226707 0.6470476127563018 1.5
    vertex 2.4148145657226707 0.6470476127563018 0.0
  endloop
endfacet
facet normal 0.9659258262890684 0.25881904510252063 0.0
  outer loop
    vertex 2.4148145657226707 0.6470476127563018 1.5
    vertex 2.165063509461097 1.2499999999999998 0.0
    vertex 2.165063509461097 1.2499999999999998 1.5
  endloop
endfacet
facet normal 0.9659258262890684 0.25881904510252063 0.0
  outer loop
    vertex 2.4148145657226707 0.6470476127563018 0.0
    vertex 2.5 0.0 1.5
    vertex 2.5 0.0 0.0
  endloop
endfacet
facet normal 1.0 -5.346665937388143e-17 0.0
  outer loop
    vertex 2.5 0.0 1.5
    vertex 2.4148145657226707 0.6470476127563018 0.0
    vertex 2.4148145657226707 0.6470476127563018 1.5
  endloop
endfacet
facet normal 1.0 -5.346665937388143e-17 0.0
  outer loop
    vertex 2.5 0.0 0.0
    vertex 2.4148145657226703 -0.647047612756304 1.5
    vertex 2.4148145657226703 -0.647047612756304 0.0
  endloop
endfacet
facet normal 0.9659258262890681 -0.2588190451025214 0.0
  outer loop
    vertex 2.4148145657226703 -0.647047612756304 1.5
    vertex 2.5 0.0 0.0
    vertex 2.5 0.0 1.5
  endloop
endfacet
facet normal 0.9659258262890681 -0.2588190451025214 0.0
  outer loop
    vertex 2.4148145657226703 -0.647047612756304 0.0
    vertex 2.165063509461096 -1.250000000000001 1.5
    vertex 2.165063509461096 -1.250000000000001 0.0
  endloop
endfacet
facet normal 0.8660254037844384 -0.5000000000000006 0.0
  outer loop
    vertex 2.165063509461096 -1.250000000000001 1.5
    vertex 2.4148145657226703 -0.647047612756304 0.0
    vertex 2.4148145657226703 -0.647047612756304 1.5
  endloop
endfacet
facet normal 0.8660254037844384 -0.5000000000000006 0.0
  outer loop
    vertex 2.165063509461096 -1.250000000000001 0.0
    vertex 1.7677669529663682 -1.7677669529663693 1.5
    vertex 1.7677669529663682 -1.7677669529663693 0.0
  endloop
endfacet
facet normal 0.7071067811865474 -0.7071067811865477 0.0
  outer loop
    vertex 1.7677669529663682 -1.7677669529663693 1.5
    vertex 2.165063509461096 -1.250000000000001 0.0
    vertex 2.165063509461096 -1.250000000000001 1.5
  endloop
endfacet
facet normal 0.7071067811865474 -0.7071067811865477 0.0
  outer loop
    vertex 1.7677669529663682 -1.7677669529663693 1.5
    vertex 1.2499999999999984 -2.1650635094610977 0.0
    vertex 1.7677669529663682 -1.7677669529663693 0.0
  endloop
endfacet
facet normal 0.49999999999999956 -0.8660254037844389 0.0
  outer loop
    vertex 1.2499999999999984 -2.1650635094610977 0.0
    vertex 1.7677669529663682 -1.7677669529663693 1.5
    vertex 1.2499999999999984 -2.1650635094610977 1.5
  endloop
endfacet
facet normal 0.49999999999999956 -0.8660254037844389 0.0
  outer loop
    vertex 1.2499999999999984 -2.1650635094610977 1.5
    vertex 0.6470476127563007 -2.414814565722671 0.0
    vertex 1.2499999999999984 -2.1650635094610977 0.0
  endloop
endfacet
facet normal 0.2588190451025203 -0.9659258262890685 0.0
  outer loop
    vertex 0.6470476127563007 -2.414814565722671 0.0
    vertex 1.2499999999999984 -2.1650635094610977 1.5
    vertex 0.6470476127563007 -2.414814565722671 1.5
  endloop
endfacet
facet normal 0.2588190451025203 -0.9659258262890685 0.0
  outer loop
    vertex 0.6470476127563007 -2.414814565722671 1.5
    vertex -4.592425496802574e-16 -2.5 0.0
    vertex 0.6470476127563007 -2.414814565722671 0.0
  endloop
endfacet
facet normal -3.207999562432886e-16 -1.0 0.0
  outer loop
    vertex -4.592425496802574e-16 -2.5 0.0
    vertex 0.6470476127563007 -2.414814565722671 1.5
    vertex -4.592425496802574e-16 -2.5 1.5
  endloop
endfacet
facet normal -3.207999562432886e-16 -1.0 0.0
  outer loop
    vertex -4.592425496802574e-16 -2.5 1.5
    vertex -0.6470476127563038 -2.4148145657226703 0.0
    vertex -4.592425496802574e-16 -2.5 0.0
  endloop
endfacet
facet normal -0.25881904510252146 -0.9659258262890681 0.0
  outer loop
    vertex -0.6470476127563038 -2.4148145657226703 0.0
    vertex -4.592425496802574e-16 -2.5 1.5
    vertex -0.6470476127563038 -2.4148145657226703 1.5
  endloop
endfacet
facet normal -0.25881904510252146 -0.9659258262890681 0.0
  outer loop
    vertex -0.6470476127563038 -2.4148145657226703 1.5
    vertex -1.250000000000001 -2.165063509461096 0.0
    vertex -0.6470476127563038 -2.4148145657226703 0.0
  endloop
endfacet
facet normal -0.5000000000000006 -0.8660254037844384 0.0
  outer loop
    vertex -1.250000000000001 -2.165063509461096 0.0
    vertex -0.6470476127563038 -2.4148145657226703 1.5
    vertex -1.250000000000001 -2.165063509461096 1.5
  endloop
endfacet
facet normal -0.5000000000000006 -0.8660254037844384 0.0
  outer loop
    vertex -1.250000000000001 -2.165063509461096 1.5
    vertex -1.7677669529663698 -1.767766952966368 0.0
    vertex -1.250000000000001 -2.165063509461096 0.0
  endloop
endfacet
facet normal -0.7071067811865477 -0.7071067811865475 0.0
  outer loop
    vertex -1.7677669529663698 -1.767766952966368 0.0
    vertex -1.250000000000001 -2.165063509461096 1.5
    vertex -1.7677669529663698 -1.767766952966368 1.5
  endloop
endfacet
facet normal -0.8660254037844389 -0.49999999999999956 0.0
  outer loop
    vertex -2.1650635094610973 -1.2499999999999993 1.5
    vertex -1.7677669529663698 -1.767766952966368 0.0
    vertex -1.7677669529663698 -1.767766952966368 1.5
  endloop
endfacet
facet normal -0.7071067811865477 -0.7071067811865475 0.0
  outer loop
    vertex -1.7677669529663698 -1.767766952966368 0.0
    vertex -2.1650635094610973 -1.2499999999999993 1.5
    vertex -2.1650635094610973 -1.2499999999999993 0.0
  endloop
endfacet
facet normal -0.9659258262890684 -0.2588190451025203 0.0
  outer loop
    vertex -2.414814565722671 -0.6470476127563008 1.5
    vertex -2.1650635094610973 -1.2499999999999993 0.0
    vertex -2.1650635094610973 -1.2499999999999993 1.5
  endloop
endfacet
facet normal -0.8660254037844389 -0.49999999999999956 0.0
  outer loop
    vertex -2.1650635094610973 -1.2499999999999993 0.0
    vertex -2.414814565722671 -0.6470476127563008 1.5
    vertex -2.414814565722671 -0.6470476127563008 0.0
  endloop
endfacet
facet normal -1.0 1.514888682259974e-16 0.0
  outer loop
    vertex -2.5 3.061616997868383e-16 1.5
    vertex -2.414814565722671 -0.6470476127563008 0.0
    vertex -2.414814565722671 -0.6470476127563008 1.5
  endloop
endfacet
facet normal -0.9659258262890684 -0.2588190451025203 0.0
  outer loop
    vertex -2.414814565722671 -0.6470476127563008 0.0
    vertex -2.5 3.061616997868383e-16 1.5
    vertex -2.5 3.061616997868383e-16 0.0
  endloop
endfacet
facet normal -0.9659258262890682 0.2588190451025209 0.0
  outer loop
    vertex -2.4148145657226707 0.6470476127563025 1.5
    vertex -2.5 3.061616997868383e-16 0.0
    vertex -2.5 3.061616997868383e-16 1.5
  endloop
endfacet
facet normal -1.0 1.514888682259974e-16 0.0
  outer loop
    vertex -2.5 3.061616997868383e-16 0.0
    vertex -2.4148145657226707 0.6470476127563025 1.5
    vertex -2.4148145657226707 0.6470476127563025 0.0
  endloop
endfacet
facet normal -0.8660254037844386 0.5000000000000002 0.0
  outer loop
    vertex -2.1650635094610964 1.2500000000000009 1.5
    vertex -2.4148145657226707 0.6470476127563025 0.0
    vertex -2.4148145657226707 0.6470476127563025 1.5
  endloop
endfacet
facet normal -0.9659258262890682 0.2588190451025209 0.0
  outer loop
    vertex -2.4148145657226707 0.6470476127563025 0.0
    vertex -2.1650635094610964 1.2500000000000009 1.5
    vertex -2.1650635094610964 1.2500000000000009 0.0
  endloop
endfacet
facet normal -0.7071067811865475 0.7071067811865477 0.0
  outer loop
    vertex -1.7677669529663687 1.767766952966369 1.5
    vertex -2.1650635094610964 1.2500000000000009 0.0
    vertex -2.1650635094610964 1.2500000000000009 1.5
  endloop
endfacet
facet normal -0.8660254037844386 0.5000000000000002 0.0
  outer loop
    vertex -2.1650635094610964 1.2500000000000009 0.0
    vertex -1.7677669529663687 1.767766952966369 1.5
    vertex -1.7677669529663687 1.767766952966369 0.0
  endloop
endfacet
facet normal -0.7071067811865475 0.7071067811865477 0.0
  outer loop
    vertex -1.7677669529663687 1.767766952966369 1.5
    vertex -1.2499999999999996 2.165063509461097 0.0
    vertex -1.7677669529663687 1.767766952966369 0.0
  endloop
endfacet
facet normal -0.4999999999999997 0.8660254037844389 0.0
  outer loop
    vertex -1.2499999999999996 2.165063509461097 0.0
    vertex -1.7677669529663687 1.767766952966369 1.5
    vertex -1.2499999999999996 2.165063509461097 1.5
  endloop
endfacet
facet normal -0.4999999999999997 0.8660254037844389 0.0
  outer loop
    vertex -1.2499999999999996 2.165063509461097 1.5
    vertex -0.6470476127563015 2.4148145657226707 0.0
    vertex -1.2499999999999996 2.165063509461097 0.0
  endloop
endfacet
facet normal -0.25881904510252063 0.9659258262890683 0.0
  outer loop
    vertex -0.6470476127563015 2.4148145657226707 0.0
    vertex -1.2499999999999996 2.165063509461097 1.5
    vertex -0.6470476127563015 2.4148145657226707 1.5
  endloop
endfacet
facet normal -0.25881904510252063 0.9659258262890683 0.0
  outer loop
    vertex -0.6470476127563015 2.4148145657226707 1.5
    vertex 1.5308084989341916e-16 2.5 0.0
    vertex -0.6470476127563015 2.4148145657226707 0.0
  endloop
endfacet
facet normal -4.455554947823453e-17 1.0 0.0
  outer loop
    vertex 1.5308084989341916e-16 2.5 0.0
    vertex -0.6470476127563015 2.4148145657226707 1.5
    vertex 1.5308084989341916e-16 2.5 1.5
  endloop
endfacet
facet normal -4.455554947823453e-17 1.0 0.0
  outer loop
    vertex 1.5308084989341916e-16 2.5 1.5
    vertex 0.6470476127563024 2.4148145657226707 0.0
    vertex 1.5308084989341916e-16 2.5 0.0
  endloop
endfacet
facet normal 0.2588190451025208 0.9659258262890682 0.0
  outer loop
    vertex 0.6470476127563024 2.4148145657226707 0.0
    vertex 1.5308084989341916e-16 2.5 1.5
    vertex 0.6470476127563024 2.4148145657226707 1.5
  endloop
endfacet
facet normal 0.2588190451025208 0.9659258262890682 0.0
  outer loop
    vertex 0.6470476127563024 2.4148145657226707 1.5
    vertex 1.2500000000000004 2.1650635094610964 0.0
    vertex 0.6470476127563024 2.4148145657226707 0.0
  endloop
endfacet
facet normal 0.5 0.8660254037844386 0.0
  outer loop
    vertex 1.2500000000000004 2.1650635094610964 0.0
    vertex 0.6470476127563024 2.4148145657226707 1.5
    vertex 1.2500000000000004 2.1650635094610964 1.5
  endloop
endfacet
facet normal 0.5 0.8660254037844386 0.0
  outer loop
    vertex 1.2500000000000004 2.1650635094610964 1.5
    vertex 1.767766952966369 1.7677669529663687 0.0
    vertex 1.2500000000000004 2.1650635094610964 0.0
  endloop
endfacet
facet normal 0.7071067811865476 0.7071067811865475 0.0
  outer loop
    vertex 1.767766952966369 1.7677669529663687 0.0
    vertex 1.2500000000000004 2.1650635094610964 1.5
    vertex 1.767766952966369 1.7677669529663687 1.5
  endloop
endfacet
facet normal 1.5848634731133538e-32 -1.360341147755629e-31 1.0
  outer loop
    vertex -1.3522961568046952 -0.3623466631435293 9.5
    vertex -1.3522961568046956 0.3623466631435284 9.5
    vertex -1.3999999999999997 -1.7145055188063052e-16 9.5
  endloop
endfacet
facet normal 1.5848634731133538e-32 -1.360341147755629e-31 1.0
  outer loop
    vertex -1.3522961568046956 0.3623466631435284 9.5
    vertex -1.3522961568046952 -0.3623466631435293 9.5
    vertex -1.212435565298214 0.6999999999999995 9.5
  endloop
endfacet
facet normal 1.5848634731133538e-32 -1.360341147755629e-31 1.0
  outer loop
    vertex -1.212435565298214 0.6999999999999995 9.5
    vertex -1.3522961568046952 -0.3623466631435293 9.5
    vertex -1.2124355652982137 -0.7000000000000003 9.5
  endloop
endfacet
facet normal 1.5848634731133538e-32 -1.360341147755629e-31 1.0
  outer loop
    vertex -1.212435565298214 0.6999999999999995 9.5
    vertex -1.2124355652982137 -0.7000000000000003 9.5
    vertex -0.9899494936611669 0.9899494936611659 9.5
  endloop
endfacet
facet normal 1.5848634731133538e-32 -1.360341147755629e-31 1.0
  outer loop
    vertex -0.9899494936611669 0.9899494936611659 9.5
    vertex -1.2124355652982137 -0.7000000000000003 9.5
    vertex -0.9899494936611662 -0.9899494936611664 9.5
  endloop
endfacet
facet normal 1.5848634731133538e-32 -1.360341147755629e-31 1.0
  outer loop
    vertex -0.9899494936611669 0.9899494936611659 9.5
    vertex -0.9899494936611662 -0.9899494936611664 9.5
    vertex -0.7000000000000005 1.2124355652982135 9.5
  endloop
endfacet
facet normal 1.5848634731133538e-32 -1.360341147755629e-31 1.0
  outer loop
    vertex -0.7000000000000005 1.2124355652982135 9.5
    vertex -0.9899494936611662 -0.9899494936611664 9.5
    vertex -0.6999999999999995 -1.212435565298214 9.5
  endloop
endfacet
facet normal 1.5848634731133538e-32 -1.360341147755629e-31 1.0
  outer loop
    vertex -0.7000000000000005 1.2124355652982135 9.5
    vertex -0.6999999999999995 -1.212435565298214 9.5
    vertex -0.36234666314353003 1.352296156804695 9.5
  endloop
endfacet
facet normal 1.5848634731133538e-32 -1.360341147755629e-31 1.0
  outer loop
    vertex -0.36234666314353003 1.352296156804695 9.5
    vertex -0.6999999999999995 -1.212435565298214 9.5
    vertex -0.3623466631435288 -1.3522961568046954 9.5
  endloop
endfacet
facet normal 1.5848634731133538e-32 -1.360341147755629e-31 1.0
  outer loop
    vertex -0.36234666314353003 1.352296156804695 9.5
    vertex -0.3623466631435288 -1.3522961568046954 9.5
    vertex -2.57175827820944e-16 1.3999999999999997 9.5
  endloop
endfacet
facet normal 1.5848634731133538e-32 -1.360341147755629e-31 1.0
  outer loop
    vertex -2.57175827820944e-16 1.3999999999999997 9.5
    vertex -0.3623466631435288 -1.3522961568046954 9.5
    vertex 8.572527594031483e-17 -1.3999999999999997 9.5
  endloop
endfacet
facet normal 1.5848634731133538e-32 -1.360341147755629e-31 1.0
  outer loop
    vertex -2.57175827820944e-16 1.3999999999999997 9.5
    vertex 8.572527594031483e-17 -1.3999999999999997 9.5
    vertex 0.3623466631435283 1.3522961568046956 9.5
  endloop
endfacet
facet normal 1.5848634731133538e-32 -1.360341147755629e-31 1.0
  outer loop
    vertex 0.3623466631435283 1.3522961568046956 9.5
    vertex 8.572527594031483e-17 -1.3999999999999997 9.5
    vertex 0.3623466631435293 -1.3522961568046952 9.5
  endloop
endfacet
facet normal 1.5848634731133538e-32 -1.360341147755629e-31 1.0
  outer loop
    vertex 0.3623466631435283 1.3522961568046956 9.5
    vertex 0.3623466631435293 -1.3522961568046952 9.5
    vertex 0.6999999999999988 1.2124355652982144 9.5
  endloop
endfacet
facet normal 1.5848634731133538e-32 -1.360341147755629e-31 1.0
  outer loop
    vertex 0.6999999999999988 1.2124355652982144 9.5
    vertex 0.3623466631435293 -1.3522961568046952 9.5
    vertex 0.7000000000000001 -1.212435565298214 9.5
  endloop
endfacet
facet normal 1.5848634731133538e-32 -1.360341147755629e-31 1.0
  outer loop
    vertex 0.6999999999999988 1.2124355652982144 9.5
    vertex 0.7000000000000001 -1.212435565298214 9.5
    vertex 0.989949493661166 0.9899494936611666 9.5
  endloop
endfacet
facet normal 1.5848634731133538e-32 -1.360341147755629e-31 1.0
  outer loop
    vertex 0.989949493661166 0.9899494936611666 9.5
    vertex 0.7000000000000001 -1.212435565298214 9.5
    vertex 0.9899494936611664 -0.9899494936611662 9.5
  endloop
endfacet
facet normal 1.5848634731133538e-32 -1.360341147755629e-31 1.0
  outer loop
    vertex 0.989949493661166 0.9899494936611666 9.5
    vertex 0.9899494936611664 -0.9899494936611662 9.5
    vertex 1.2124355652982135 0.7000000000000005 9.5
  endloop
endfacet
facet normal 1.5848634731133538e-32 -1.360341147755629e-31 1.0
  outer loop
    vertex 1.2124355652982135 0.7000000000000005 9.5
    vertex 0.9899494936611664 -0.9899494936611662 9.5
    vertex 1.212435565298214 -0.6999999999999997 9.5
  endloop
endfacet
facet normal 1.5848634731133538e-32 -1.360341147755629e-31 1.0
  outer loop
    vertex 1.2124355652982135 0.7000000000000005 9.5
    vertex 1.212435565298214 -0.6999999999999997 9.5
    vertex 1.352296156804695 0.36234666314353015 9.5
  endloop
endfacet
facet normal 1.5848634731133538e-32 -1.360341147755629e-31 1.0
  outer loop
    vertex 1.352296156804695 0.36234666314353015 9.5
    vertex 1.212435565298214 -0.6999999999999997 9.5
    vertex 1.3522961568046954 -0.362346663143529 9.5
  endloop
endfacet
facet normal 1.5848634731133538e-32 -1.360341147755629e-31 1.0
  outer loop
    vertex 1.352296156804695 0.36234666314353015 9.5
    vertex 1.3522961568046954 -0.362346663143529 9.5
    vertex 1.3999999999999997 -1.088272918204503e-30 9.5
  endloop
endfacet
facet normal 1.0 2.940666265563479e-16 -1.5848634731133497e-32
  outer loop
    vertex 1.3999999999999997 0.0 1.5
    vertex 1.3522961568046954 -0.362346663143529 9.5
    vertex 1.3522961568046954 -0.362346663143529 1.5
  endloop
endfacet
facet normal 0.9659258262890682 -0.2588190451025206 -5.051682528580165e-32
  outer loop
    vertex 1.3522961568046954 -0.362346663143529 9.5
    vertex 1.3999999999999997 0.0 1.5
    vertex 1.3999999999999997 -1.088272918204503e-30 9.5
  endloop
endfacet
facet normal 1.0 2.940666265563479e-16 -1.5848634731133497e-32
  outer loop
    vertex 1.3999999999999997 0.0 1.5
    vertex 1.352296156804695 0.36234666314353015 9.5
    vertex 1.3999999999999997 -1.088272918204503e-30 9.5
  endloop
endfacet
facet normal 0.9659258262890682 0.2588190451025213 1.989961408935419e-32
  outer loop
    vertex 1.352296156804695 0.36234666314353015 9.5
    vertex 1.3999999999999997 0.0 1.5
    vertex 1.352296156804695 0.36234666314353015 1.5
  endloop
endfacet
facet normal 0.8660254037844384 0.5000000000000006 5.429173709531952e-32
  outer loop
    vertex 1.2124355652982135 0.7000000000000005 1.5
    vertex 1.352296156804695 0.36234666314353015 9.5
    vertex 1.352296156804695 0.36234666314353015 1.5
  endloop
endfacet
facet normal 0.9659258262890682 0.2588190451025213 1.989961408935419e-32
  outer loop
    vertex 1.352296156804695 0.36234666314353015 9.5
    vertex 1.2124355652982135 0.7000000000000005 1.5
    vertex 1.2124355652982135 0.7000000000000005 9.5
  endloop
endfacet
facet normal 0.7071067811865471 0.7071067811865479 8.498396793957653e-32
  outer loop
    vertex 0.989949493661166 0.9899494936611666 1.5
    vertex 1.2124355652982135 0.7000000000000005 9.5
    vertex 1.2124355652982135 0.7000000000000005 1.5
  endloop
endfacet
facet normal 0.8660254037844384 0.5000000000000006 5.429173709531952e-32
  outer loop
    vertex 1.2124355652982135 0.7000000000000005 9.5
    vertex 0.989949493661166 0.9899494936611666 1.5
    vertex 0.989949493661166 0.9899494936611666 9.5
  endloop
endfacet
facet normal 0.4999999999999996 0.8660254037844389 1.098846818113988e-31
  outer loop
    vertex 0.6999999999999988 1.2124355652982144 9.5
    vertex 0.989949493661166 0.9899494936611666 1.5
    vertex 0.6999999999999988 1.2124355652982144 1.5
  endloop
endfacet
facet normal 0.7071067811865471 0.7071067811865479 8.498396793957653e-32
  outer loop
    vertex 0.989949493661166 0.9899494936611666 1.5
    vertex 0.6999999999999988 1.2124355652982144 9.5
    vertex 0.989949493661166 0.9899494936611666 9.5
  endloop
endfacet
facet normal 0.25881904510252035 0.9659258262890684 1.2729693621079692e-31
  outer loop
    vertex 0.3623466631435283 1.3522961568046956 9.5
    vertex 0.6999999999999988 1.2124355652982144 1.5
    vertex 0.3623466631435283 1.3522961568046956 1.5
  endloop
endfacet
facet normal 0.4999999999999996 0.8660254037844389 1.098846818113988e-31
  outer loop
    vertex 0.6999999999999988 1.2124355652982144 1.5
    vertex 0.3623466631435283 1.3522961568046956 9.5
    vertex 0.6999999999999988 1.2124355652982144 9.5
  endloop
endfacet
facet normal -5.079332640518737e-16 1.0 1.360341147755629e-31
  outer loop
    vertex -2.57175827820944e-16 1.3999999999999997 9.5
    vertex 0.3623466631435283 1.3522961568046956 1.5
    vertex -2.571758278209441e-16 1.3999999999999997 1.5
  endloop
endfacet
facet normal 0.25881904510252035 0.9659258262890684 1.2729693621079692e-31
  outer loop
    vertex 0.3623466631435283 1.3522961568046956 1.5
    vertex -2.57175827820944e-16 1.3999999999999997 9.5
    vertex 0.3623466631435283 1.3522961568046956 9.5
  endloop
endfacet
facet normal -0.25881904510252135 0.9659258262890682 1.355007932253782e-31
  outer loop
    vertex -0.36234666314353003 1.352296156804695 9.5
    vertex -2.571758278209441e-16 1.3999999999999997 1.5
    vertex -0.36234666314353003 1.352296156804695 1.5
  endloop
endfacet
facet normal -5.079332640518737e-16 1.0 1.360341147755629e-31
  outer loop
    vertex -2.571758278209441e-16 1.3999999999999997 1.5
    vertex -0.36234666314353003 1.352296156804695 9.5
    vertex -2.57175827820944e-16 1.3999999999999997 9.5
  endloop
endfacet
facet normal -0.5000000000000003 0.8660254037844386 1.2573331654253227e-31
  outer loop
    vertex -0.7000000000000005 1.2124355652982135 9.5
    vertex -0.36234666314353003 1.352296156804695 1.5
    vertex -0.7000000000000005 1.2124355652982135 1.5
  endloop
endfacet
facet normal -0.25881904510252135 0.9659258262890682 1.355007932253782e-31
  outer loop
    vertex -0.36234666314353003 1.352296156804695 1.5
    vertex -0.7000000000000005 1.2124355652982135 9.5
    vertex -0.36234666314353003 1.352296156804695 9.5
  endloop
endfacet
facet normal -0.7071067811865479 0.7071067811865471 1.0739732212144275e-31
  outer loop
    vertex -0.9899494936611669 0.9899494936611659 9.5
    vertex -0.7000000000000005 1.2124355652982135 1.5
    vertex -0.9899494936611669 0.9899494936611659 1.5
  endloop
endfacet
facet normal -0.5000000000000003 0.8660254037844386 1.2573331654253227e-31
  outer loop
    vertex -0.7000000000000005 1.2124355652982135 1.5
    vertex -0.9899494936611669 0.9899494936611659 9.5
    vertex -0.7000000000000005 1.2124355652982135 9.5
  endloop
endfacet
facet normal -0.7071067811865479 0.7071067811865471 1.0739732212144275e-31
  outer loop
    vertex -0.9899494936611669 0.9899494936611659 9.5
    vertex -1.212435565298214 0.6999999999999995 1.5
    vertex -1.212435565298214 0.6999999999999995 9.5
  endloop
endfacet
facet normal -0.8660254037844389 0.4999999999999997 8.174237768024341e-32
  outer loop
    vertex -1.212435565298214 0.6999999999999995 1.5
    vertex -0.9899494936611669 0.9899494936611659 9.5
    vertex -0.9899494936611669 0.9899494936611659 1.5
  endloop
endfacet
facet normal -0.8660254037844389 0.4999999999999997 8.174237768024341e-32
  outer loop
    vertex -1.212435565298214 0.6999999999999995 9.5
    vertex -1.3522961568046956 0.3623466631435284 1.5
    vertex -1.3522961568046956 0.3623466631435284 9.5
  endloop
endfacet
facet normal -0.9659258262890684 0.25881904510252046 5.051682528580166e-32
  outer loop
    vertex -1.3522961568046956 0.3623466631435284 1.5
    vertex -1.212435565298214 0.6999999999999995 9.5
    vertex -1.212435565298214 0.6999999999999995 1.5
  endloop
endfacet
facet normal -0.9659258262890684 0.25881904510252046 5.051682528580166e-32
  outer loop
    vertex -1.3522961568046956 0.3623466631435284 9.5
    vertex -1.3999999999999997 -1.7145055188062941e-16 1.5
    vertex -1.3999999999999997 -1.7145055188063052e-16 9.5
  endloop
endfacet
facet normal -1.0 -3.7426661561717005e-16 1.5848634731133491e-32
  outer loop
    vertex -1.3999999999999997 -1.7145055188062941e-16 1.5
    vertex -1.3522961568046956 0.3623466631435284 9.5
    vertex -1.3522961568046956 0.3623466631435284 1.5
  endloop
endfacet
facet normal -1.0 -3.7426661561717005e-16 1.5848634731133491e-32
  outer loop
    vertex -1.3999999999999997 -1.7145055188063052e-16 9.5
    vertex -1.3522961568046952 -0.3623466631435293 1.5
    vertex -1.3522961568046952 -0.3623466631435293 9.5
  endloop
endfacet
facet normal -0.9659258262890682 -0.2588190451025209 -1.9899614089354137e-32
  outer loop
    vertex -1.3522961568046952 -0.3623466631435293 1.5
    vertex -1.3999999999999997 -1.7145055188063052e-16 9.5
    vertex -1.3999999999999997 -1.7145055188062941e-16 1.5
  endloop
endfacet
facet normal -0.9659258262890682 -0.2588190451025209 -1.9899614089354137e-32
  outer loop
    vertex -1.3522961568046952 -0.3623466631435293 9.5
    vertex -1.2124355652982137 -0.7000000000000003 1.5
    vertex -1.2124355652982137 -0.7000000000000003 9.5
  endloop
endfacet
facet normal -0.8660254037844386 -0.5000000000000001 -5.429173709531948e-32
  outer loop
    vertex -1.2124355652982137 -0.7000000000000003 1.5
    vertex -1.3522961568046952 -0.3623466631435293 9.5
    vertex -1.3522961568046952 -0.3623466631435293 1.5
  endloop
endfacet
facet normal -0.8660254037844386 -0.5000000000000001 -5.429173709531948e-32
  outer loop
    vertex -1.2124355652982137 -0.7000000000000003 9.5
    vertex -0.9899494936611662 -0.9899494936611664 1.5
    vertex -0.9899494936611662 -0.9899494936611664 9.5
  endloop
endfacet
facet normal -0.7071067811865474 -0.7071067811865477 -8.49839679395765e-32
  outer loop
    vertex -0.9899494936611662 -0.9899494936611664 1.5
    vertex -1.2124355652982137 -0.7000000000000003 9.5
    vertex -1.2124355652982137 -0.7000000000000003 1.5
  endloop
endfacet
facet normal -0.4999999999999999 -0.8660254037844387 -1.0988468181139876e-31
  outer loop
    vertex -0.6999999999999995 -1.212435565298214 9.5
    vertex -0.9899494936611662 -0.9899494936611664 1.5
    vertex -0.6999999999999995 -1.212435565298214 1.5
  endloop
endfacet
facet normal -0.7071067811865474 -0.7071067811865477 -8.49839679395765e-32
  outer loop
    vertex -0.9899494936611662 -0.9899494936611664 1.5
    vertex -0.6999999999999995 -1.212435565298214 9.5
    vertex -0.9899494936611662 -0.9899494936611664 9.5
  endloop
endfacet
facet normal -0.25881904510252063 -0.9659258262890682 -1.2729693621079692e-31
  outer loop
    vertex -0.3623466631435288 -1.3522961568046954 9.5
    vertex -0.6999999999999995 -1.212435565298214 1.5
    vertex -0.3623466631435288 -1.3522961568046954 1.5
  endloop
endfacet
facet normal -0.4999999999999999 -0.8660254037844387 -1.0988468181139876e-31
  outer loop
    vertex -0.6999999999999995 -1.212435565298214 1.5
    vertex -0.3623466631435288 -1.3522961568046954 9.5
    vertex -0.6999999999999995 -1.212435565298214 9.5
  endloop
endfacet
facet normal 1.8713330780858502e-16 -1.0 -1.3603411477556292e-31
  outer loop
    vertex 8.572527594031483e-17 -1.3999999999999997 9.5
    vertex -0.3623466631435288 -1.3522961568046954 1.5
    vertex 8.572527594031471e-17 -1.3999999999999997 1.5
  endloop
endfacet
facet normal -0.25881904510252063 -0.9659258262890682 -1.2729693621079692e-31
  outer loop
    vertex -0.3623466631435288 -1.3522961568046954 1.5
    vertex 8.572527594031483e-17 -1.3999999999999997 9.5
    vertex -0.3623466631435288 -1.3522961568046954 9.5
  endloop
endfacet
facet normal 0.2588190451025208 -0.9659258262890682 -1.3550079322537816e-31
  outer loop
    vertex 0.3623466631435293 -1.3522961568046952 9.5
    vertex 8.572527594031471e-17 -1.3999999999999997 1.5
    vertex 0.3623466631435293 -1.3522961568046952 1.5
  endloop
endfacet
facet normal 1.8713330780858502e-16 -1.0 -1.3603411477556292e-31
  outer loop
    vertex 8.572527594031471e-17 -1.3999999999999997 1.5
    vertex 0.3623466631435293 -1.3522961568046952 9.5
    vertex 8.572527594031483e-17 -1.3999999999999997 9.5
  endloop
endfacet
facet normal 0.5000000000000001 -0.8660254037844385 -1.257333165425323e-31
  outer loop
    vertex 0.7000000000000001 -1.212435565298214 9.5
    vertex 0.3623466631435293 -1.3522961568046952 1.5
    vertex 0.7000000000000001 -1.212435565298214 1.5
  endloop
endfacet
facet normal 0.2588190451025208 -0.9659258262890682 -1.3550079322537816e-31
  outer loop
    vertex 0.3623466631435293 -1.3522961568046952 1.5
    vertex 0.7000000000000001 -1.212435565298214 9.5
    vertex 0.3623466631435293 -1.3522961568046952 9.5
  endloop
endfacet
facet normal 0.7071067811865476 -0.7071067811865475 -1.073973221214428e-31
  outer loop
    vertex 0.9899494936611664 -0.9899494936611662 9.5
    vertex 0.7000000000000001 -1.212435565298214 1.5
    vertex 0.9899494936611664 -0.9899494936611662 1.5
  endloop
endfacet
facet normal 0.5000000000000001 -0.8660254037844385 -1.257333165425323e-31
  outer loop
    vertex 0.7000000000000001 -1.212435565298214 1.5
    vertex 0.9899494936611664 -0.9899494936611662 9.5
    vertex 0.7000000000000001 -1.212435565298214 9.5
  endloop
endfacet
facet normal 0.8660254037844386 -0.5 -8.174237768024344e-32
  outer loop
    vertex 1.212435565298214 -0.6999999999999997 1.5
    vertex 0.9899494936611664 -0.9899494936611662 9.5
    vertex 0.9899494936611664 -0.9899494936611662 1.5
  endloop
endfacet
facet normal 0.7071067811865476 -0.7071067811865475 -1.073973221214428e-31
  outer loop
    vertex 0.9899494936611664 -0.9899494936611662 9.5
    vertex 1.212435565298214 -0.6999999999999997 1.5
    vertex 1.212435565298214 -0.6999999999999997 9.5
  endloop
endfacet
facet normal 0.9659258262890682 -0.2588190451025206 -5.051682528580165e-32
  outer loop
    vertex 1.3522961568046954 -0.362346663143529 1.5
    vertex 1.212435565298214 -0.6999999999999997 9.5
    vertex 1.212435565298214 -0.6999999999999997 1.5
  endloop
endfacet
facet normal 0.8660254037844386 -0.5 -8.174237768024344e-32
  outer loop
    vertex 1.212435565298214 -0.6999999999999997 9.5
    vertex 1.3522961568046954 -0.362346663143529 1.5
    vertex 1.3522961568046954 -0.362346663143529 9.5
  endloop
endfacet
endsolid m3
