solid door_opener
facet normal 0.0 0.0 -1.0
  outer loop
    vertex 10.0 10.0 0.0
    vertex 0.0 0.0 0.0
    vertex 0.0 10.0 0.0
  endloop
endfacet
facet normal 0.0 0.0 -1.0
  outer loop
    vertex 0.0 0.0 0.0
    vertex 10.0 10.0 0.0
    vertex 10.0 0.0 0.0
  endloop
endfacet
facet normal -1.0 0.0 0.0
  outer loop
    vertex 0.0 3.0 0.9999999999999999
    vertex 0.0 0.0 0.0
    vertex 0.0 0.0 0.9999999999999999
  endloop
endfacet
facet normal -1.0 0.0 0.0
  outer loop
    vertex 0.0 0.0 0.0
    vertex 0.0 3.0 0.9999999999999999
    vertex 0.0 10.0 0.0
  endloop
endfacet
facet normal -1.0 0.0 0.0
  outer loop
    vertex 0.0 10.0 0.0
    vertex 0.0 3.0 0.9999999999999999
    vertex 0.0 7.0 0.9999999999999999
  endloop
endfacet
facet normal -1.0 0.0 0.0
  outer loop
    vertex 0.0 10.0 0.0
    vertex 0.0 7.0 0.9999999999999999
    vertex 0.0 10.0 0.9999999999999999
  endloop
endfacet
facet normal -0.0 1.0 0.0
  outer loop
    vertex 0.0 10.0 0.9999999999999999
    vertex 10.0 10.0 0.0
    vertex 0.0 10.0 0.0
  endloop
endfacet
facet normal -0.0 1.0 0.0
  outer loop
    vertex 10.0 10.0 0.0
    vertex 0.0 10.0 0.9999999999999999
    vertex 10.0 10.0 0.9999999999999999
  endloop
endfacet
facet normal 1.0 -0.0 -0.0
  outer loop
    vertex 10.0 10.0 0.0
    vertex 10.0 0.0 0.9999999999999999
    vertex 10.0 0.0 0.0
  endloop
endfacet
facet normal 1.0 -0.0 -0.0
  outer loop
    vertex 10.0 0.0 0.9999999999999999
    vertex 10.0 10.0 0.0
    vertex 10.0 3.0 0.9999999999999999
  endloop
endfacet
facet normal 1.0 -0.0 -0.0
  outer loop
    vertex 10.0 3.0 0.9999999999999999
    vertex 10.0 10.0 0.0
    vertex 10.0 7.0 0.9999999999999999
  endloop
endfacet
facet normal 1.0 -0.0 -0.0
  outer loop
    vertex 10.0 7.0 0.9999999999999999
    vertex 10.0 10.0 0.0
    vertex 10.0 10.0 0.9999999999999999
  endloop
endfacet
facet normal -0.0 -1.0 -0.0
  outer loop
    vertex 10.0 0.0 0.9999999999999999
    vertex 0.0 0.0 0.0
    vertex 10.0 0.0 0.0
  endloop
endfacet
facet normal -0.0 -1.0 -0.0
  outer loop
    vertex 0.0 0.0 0.0
    vertex 10.0 0.0 0.9999999999999999
    vertex 0.0 0.0 0.9999999999999999
  endloop
endfacet
facet normal -0.0 -0.0 1.0
  outer loop
    vertex 10.0 7.0 0.9999999999999999
    vertex 0.0 10.0 0.9999999999999999
    vertex 0.0 7.0 0.9999999999999999
  endloop
endfacet
facet normal -0.0 -0.0 1.0
  outer loop
    vertex 0.0 10.0 0.9999999999999999
    vertex 10.0 7.0 0.9999999999999999
    vertex 10.0 10.0 0.9999999999999999
  endloop
endfacet
facet normal -0.0 -0.0 1.0
  outer loop
    vertex 10.0 3.0 0.9999999999999999
    vertex 0.0 7.0 0.9999999999999999
    vertex 0.0 3.0 0.9999999999999999
  endloop
endfacet
facet normal -0.0 -0.0 1.0
  outer loop
    vertex 0.0 7.0 0.9999999999999999
    vertex 10.0 3.0 0.9999999999999999
    vertex 10.0 7.0 0.9999999999999999
  endloop
endfacet
facet normal -4.407295617858339e-32 1.0 2.4429002066657545e-16
  outer loop
    vertex 0.17037086855465947 6.999999999999998 2.2940952255126037
    vertex 10.0 7.0 0.9999999999999999
    vertex 0.0 7.0 0.9999999999999999
  endloop
endfacet
facet normal -4.407295617858339e-32 1.0 2.4429002066657545e-16
  outer loop
    vertex 10.0 7.0 0.9999999999999999
    vertex 0.17037086855465947 6.999999999999998 2.2940952255126037
    vertex 9.82962913144534 6.999999999999998 2.294095225512604
  endloop
endfacet
facet normal -4.407295617858339e-32 1.0 2.4429002066657545e-16
  outer loop
    vertex 9.82962913144534 6.999999999999998 2.294095225512604
    vertex 0.17037086855465947 6.999999999999998 2.2940952255126037
    vertex 5.0 7.0 2.500000000000001
  endloop
endfacet
facet normal -4.407295617858339e-32 1.0 2.4429002066657545e-16
  outer loop
    vertex 5.0 7.0 2.500000000000001
    vertex 0.17037086855465947 6.999999999999998 2.2940952255126037
    vertex 4.741180954897479 7.0 2.5340741737109322
  endloop
endfacet
facet normal -4.407295617858339e-32 1.0 2.4429002066657545e-16
  outer loop
    vertex 4.741180954897479 7.0 2.5340741737109322
    vertex 0.17037086855465947 6.999999999999998 2.2940952255126037
    vertex 0.669872981077807 6.999999999999998 3.499999999999999
  endloop
endfacet
facet normal -4.407295617858339e-32 1.0 2.4429002066657545e-16
  outer loop
    vertex 4.741180954897479 7.0 2.5340741737109322
    vertex 0.669872981077807 6.999999999999998 3.499999999999999
    vertex 4.5 7.0 2.6339745962155616
  endloop
endfacet
facet normal -4.407295617858339e-32 1.0 2.4429002066657545e-16
  outer loop
    vertex 4.5 7.0 2.6339745962155616
    vertex 0.669872981077807 6.999999999999998 3.499999999999999
    vertex 4.292893218813453 7.0 2.7928932188134525
  endloop
endfacet
facet normal -4.407295617858339e-32 1.0 2.4429002066657545e-16
  outer loop
    vertex 4.292893218813453 7.0 2.7928932188134525
    vertex 0.669872981077807 6.999999999999998 3.499999999999999
    vertex 4.133974596215562 7.0 3.0
  endloop
endfacet
facet normal -4.407295617858339e-32 1.0 2.4429002066657545e-16
  outer loop
    vertex 4.133974596215562 7.0 3.0
    vertex 0.669872981077807 6.999999999999998 3.499999999999999
    vertex 4.034074173710931 7.0 3.2411809548974784
  endloop
endfacet
facet normal -4.407295617858339e-32 1.0 2.4429002066657545e-16
  outer loop
    vertex 4.034074173710931 7.0 3.2411809548974784
    vertex 0.669872981077807 6.999999999999998 3.499999999999999
    vertex 3.9999999999999996 7.0 3.5
  endloop
endfacet
facet normal -4.407295617858339e-32 1.0 2.4429002066657545e-16
  outer loop
    vertex 3.9999999999999996 7.0 3.5
    vertex 0.669872981077807 6.999999999999998 3.499999999999999
    vertex 1.464466094067262 6.999999999999998 4.535533905932736
  endloop
endfacet
facet normal -4.407295617858339e-32 1.0 2.4429002066657545e-16
  outer loop
    vertex 3.9999999999999996 7.0 3.5
    vertex 1.464466094067262 6.999999999999998 4.535533905932736
    vertex 4.034074173710931 7.0 3.75881904510252
  endloop
endfacet
facet normal -4.407295617858339e-32 1.0 2.4429002066657545e-16
  outer loop
    vertex 4.034074173710931 7.0 3.75881904510252
    vertex 1.464466094067262 6.999999999999998 4.535533905932736
    vertex 4.13397459621556 7.0 3.999999999999999
  endloop
endfacet
facet normal -4.407295617858339e-32 1.0 2.4429002066657545e-16
  outer loop
    vertex 4.13397459621556 7.0 3.999999999999999
    vertex 1.464466094067262 6.999999999999998 4.535533905932736
    vertex 4.292893218813451 7.0 4.207106781186547
  endloop
endfacet
facet normal -4.407295617858339e-32 1.0 2.4429002066657545e-16
  outer loop
    vertex 4.292893218813451 7.0 4.207106781186547
    vertex 1.464466094067262 6.999999999999998 4.535533905932736
    vertex 4.499999999999999 7.0 4.366025403784438
  endloop
endfacet
facet normal -4.407295617858339e-32 1.0 2.4429002066657545e-16
  outer loop
    vertex 4.499999999999999 7.0 4.366025403784438
    vertex 1.464466094067262 6.999999999999998 4.535533905932736
    vertex 4.7411809548974775 7.0 4.465925826289069
  endloop
endfacet
facet normal -4.407295617858339e-32 1.0 2.4429002066657545e-16
  outer loop
    vertex 4.7411809548974775 7.0 4.465925826289069
    vertex 1.464466094067262 6.999999999999998 4.535533905932736
    vertex 4.999999999999998 7.0 4.5
  endloop
endfacet
facet normal -4.407295617858339e-32 1.0 2.4429002066657545e-16
  outer loop
    vertex 9.82962913144534 6.999999999999998 2.294095225512604
    vertex 5.258819045102521 7.0 2.5340741737109327
    vertex 9.330127018922193 6.999999999999998 3.5000000000000004
  endloop
endfacet
facet normal -4.407295617858339e-32 1.0 2.4429002066657545e-16
  outer loop
    vertex 5.258819045102521 7.0 2.5340741737109327
    vertex 9.82962913144534 6.999999999999998 2.294095225512604
    vertex 5.0 7.0 2.500000000000001
  endloop
endfacet
facet normal -4.407295617858339e-32 1.0 2.4429002066657545e-16
  outer loop
    vertex 9.330127018922193 6.999999999999998 3.5000000000000004
    vertex 5.258819045102521 7.0 2.5340741737109327
    vertex 5.5 7.0 2.633974596215563
  endloop
endfacet
facet normal -4.407295617858339e-32 1.0 2.4429002066657545e-16
  outer loop
    vertex 9.330127018922193 6.999999999999998 3.5000000000000004
    vertex 5.5 7.0 2.633974596215563
    vertex 5.707106781186547 7.0 2.7928932188134543
  endloop
endfacet
facet normal -4.407295617858339e-32 1.0 2.4429002066657545e-16
  outer loop
    vertex 9.330127018922193 6.999999999999998 3.5000000000000004
    vertex 5.707106781186547 7.0 2.7928932188134543
    vertex 5.8660254037844375 7.0 3.0000000000000013
  endloop
endfacet
facet normal -4.407295617858339e-32 1.0 2.4429002066657545e-16
  outer loop
    vertex 9.330127018922193 6.999999999999998 3.5000000000000004
    vertex 5.8660254037844375 7.0 3.0000000000000013
    vertex 5.965925826289067 7.0 3.2411809548974806
  endloop
endfacet
facet normal -4.407295617858339e-32 1.0 2.4429002066657545e-16
  outer loop
    vertex 9.330127018922193 6.999999999999998 3.5000000000000004
    vertex 5.965925826289067 7.0 3.2411809548974806
    vertex 5.999999999999999 7.0 3.5000000000000013
  endloop
endfacet
facet normal -4.407295617858339e-32 1.0 2.4429002066657545e-16
  outer loop
    vertex 9.330127018922193 6.999999999999998 3.5000000000000004
    vertex 5.999999999999999 7.0 3.5000000000000013
    vertex 8.535533905932736 6.999999999999998 4.535533905932739
  endloop
endfacet
facet normal -4.407295617858339e-32 1.0 2.4429002066657545e-16
  outer loop
    vertex 8.535533905932736 6.999999999999998 4.535533905932739
    vertex 5.999999999999999 7.0 3.5000000000000013
    vertex 5.965925826289067 7.0 3.758819045102522
  endloop
endfacet
facet normal -4.407295617858339e-32 1.0 2.4429002066657545e-16
  outer loop
    vertex 8.535533905932736 6.999999999999998 4.535533905932739
    vertex 5.965925826289067 7.0 3.758819045102522
    vertex 5.8660254037844375 7.0 4.000000000000001
  endloop
endfacet
facet normal -4.407295617858339e-32 1.0 2.4429002066657545e-16
  outer loop
    vertex 8.535533905932736 6.999999999999998 4.535533905932739
    vertex 5.8660254037844375 7.0 4.000000000000001
    vertex 5.707106781186546 7.0 4.207106781186549
  endloop
endfacet
facet normal -4.407295617858339e-32 1.0 2.4429002066657545e-16
  outer loop
    vertex 8.535533905932736 6.999999999999998 4.535533905932739
    vertex 5.707106781186546 7.0 4.207106781186549
    vertex 5.499999999999998 7.0 4.366025403784439
  endloop
endfacet
facet normal -4.407295617858339e-32 1.0 2.4429002066657545e-16
  outer loop
    vertex 8.535533905932736 6.999999999999998 4.535533905932739
    vertex 5.499999999999998 7.0 4.366025403784439
    vertex 5.258819045102519 7.0 4.465925826289069
  endloop
endfacet
facet normal -4.407295617858339e-32 1.0 2.4429002066657545e-16
  outer loop
    vertex 8.535533905932736 6.999999999999998 4.535533905932739
    vertex 5.258819045102519 7.0 4.465925826289069
    vertex 4.999999999999998 7.0 4.5
  endloop
endfacet
facet normal -4.407295617858339e-32 1.0 2.4429002066657545e-16
  outer loop
    vertex 8.535533905932736 6.999999999999998 4.535533905932739
    vertex 4.999999999999998 7.0 4.5
    vertex 1.464466094067262 6.999999999999998 4.535533905932736
  endloop
endfacet
facet normal -4.407295617858339e-32 1.0 2.4429002066657545e-16
  outer loop
    vertex 8.535533905932736 6.999999999999998 4.535533905932739
    vertex 1.464466094067262 6.999999999999998 4.535533905932736
    vertex 2.499999999999999 6.999999999999998 5.330127018922193
  endloop
endfacet
facet normal -4.407295617858339e-32 1.0 2.4429002066657545e-16
  outer loop
    vertex 8.535533905932736 6.999999999999998 4.535533905932739
    vertex 2.499999999999999 6.999999999999998 5.330127018922193
    vertex 7.499999999999997 6.999999999999998 5.330127018922194
  endloop
endfacet
facet normal -4.407295617858339e-32 1.0 2.4429002066657545e-16
  outer loop
    vertex 7.499999999999997 6.999999999999998 5.330127018922194
    vertex 2.499999999999999 6.999999999999998 5.330127018922193
    vertex 3.7059047744873945 6.999999999999998 5.8296291314453415
  endloop
endfacet
facet normal -4.407295617858339e-32 1.0 2.4429002066657545e-16
  outer loop
    vertex 7.499999999999997 6.999999999999998 5.330127018922194
    vertex 3.7059047744873945 6.999999999999998 5.8296291314453415
    vertex 6.294095225512601 6.999999999999998 5.8296291314453415
  endloop
endfacet
facet normal -4.407295617858339e-32 1.0 2.4429002066657545e-16
  outer loop
    vertex 6.294095225512601 6.999999999999998 5.8296291314453415
    vertex 3.7059047744873945 6.999999999999998 5.8296291314453415
    vertex 4.999999999999998 6.999999999999998 6.0
  endloop
endfacet
facet normal -0.9659258262890682 2.326657390775899e-19 0.25881904510252085
  outer loop
    vertex 0.17037086855465947 6.999999999999998 2.2940952255126037
    vertex 0.0 3.0 0.9999999999999999
    vertex 0.17037086855465947 3.0 2.2940952255126037
  endloop
endfacet
facet normal -0.9914448613738103 4.613505028524324e-19 0.13052619222005227
  outer loop
    vertex 0.0 3.0 0.9999999999999999
    vertex 0.17037086855465947 6.999999999999998 2.2940952255126037
    vertex 0.0 7.0 0.9999999999999999
  endloop
endfacet
facet normal -0.8660254037844387 0.0 0.4999999999999999
  outer loop
    vertex 0.669872981077807 6.999999999999998 3.499999999999999
    vertex 0.17037086855465947 3.0 2.2940952255126037
    vertex 0.669872981077807 3.0 3.499999999999999
  endloop
endfacet
facet normal -0.9659258262890682 2.326657390775898e-19 0.25881904510252085
  outer loop
    vertex 0.17037086855465947 3.0 2.2940952255126037
    vertex 0.669872981077807 6.999999999999998 3.499999999999999
    vertex 0.17037086855465947 6.999999999999998 2.2940952255126037
  endloop
endfacet
facet normal -0.7071067811865478 0.0 0.7071067811865471
  outer loop
    vertex 1.464466094067262 6.999999999999998 4.535533905932736
    vertex 0.669872981077807 3.0 3.499999999999999
    vertex 1.464466094067262 3.0 4.535533905932736
  endloop
endfacet
facet normal -0.8660254037844387 0.0 0.4999999999999999
  outer loop
    vertex 0.669872981077807 3.0 3.499999999999999
    vertex 1.464466094067262 6.999999999999998 4.535533905932736
    vertex 0.669872981077807 6.999999999999998 3.499999999999999
  endloop
endfacet
facet normal -0.5000000000000006 0.0 0.8660254037844383
  outer loop
    vertex 2.499999999999999 3.0 5.330127018922193
    vertex 1.464466094067262 6.999999999999998 4.535533905932736
    vertex 1.464466094067262 3.0 4.535533905932736
  endloop
endfacet
facet normal -0.7071067811865478 0.0 0.7071067811865471
  outer loop
    vertex 1.464466094067262 6.999999999999998 4.535533905932736
    vertex 2.499999999999999 3.0 5.330127018922193
    vertex 2.499999999999999 6.999999999999998 5.330127018922193
  endloop
endfacet
facet normal -0.25881904510252113 0.0 0.9659258262890682
  outer loop
    vertex 3.7059047744873945 3.0 5.8296291314453415
    vertex 2.499999999999999 6.999999999999998 5.330127018922193
    vertex 2.499999999999999 3.0 5.330127018922193
  endloop
endfacet
facet normal -0.5000000000000006 0.0 0.8660254037844383
  outer loop
    vertex 2.499999999999999 6.999999999999998 5.330127018922193
    vertex 3.7059047744873945 3.0 5.8296291314453415
    vertex 3.7059047744873945 6.999999999999998 5.8296291314453415
  endloop
endfacet
facet normal 0.0 0.0 1.0
  outer loop
    vertex 4.999999999999998 3.0 6.0
    vertex 3.7059047744873945 6.999999999999998 5.8296291314453415
    vertex 3.7059047744873945 3.0 5.8296291314453415
  endloop
endfacet
facet normal -0.25881904510252113 0.0 0.9659258262890682
  outer loop
    vertex 3.7059047744873945 6.999999999999998 5.8296291314453415
    vertex 4.999999999999998 3.0 6.0
    vertex 4.999999999999998 6.999999999999998 6.0
  endloop
endfacet
facet normal 0.2588190451025206 0.0 0.9659258262890683
  outer loop
    vertex 6.294095225512601 3.0 5.8296291314453415
    vertex 4.999999999999998 6.999999999999998 6.0
    vertex 4.999999999999998 3.0 6.0
  endloop
endfacet
facet normal 0.0 0.0 1.0
  outer loop
    vertex 4.999999999999998 6.999999999999998 6.0
    vertex 6.294095225512601 3.0 5.8296291314453415
    vertex 6.294095225512601 6.999999999999998 5.8296291314453415
  endloop
endfacet
facet normal 0.49999999999999944 0.0 0.8660254037844389
  outer loop
    vertex 7.499999999999997 3.0 5.330127018922194
    vertex 6.294095225512601 6.999999999999998 5.8296291314453415
    vertex 6.294095225512601 3.0 5.8296291314453415
  endloop
endfacet
facet normal 0.2588190451025206 0.0 0.9659258262890683
  outer loop
    vertex 6.294095225512601 6.999999999999998 5.8296291314453415
    vertex 7.499999999999997 3.0 5.330127018922194
    vertex 7.499999999999997 6.999999999999998 5.330127018922194
  endloop
endfacet
facet normal 0.7071067811865472 0.0 0.7071067811865478
  outer loop
    vertex 8.535533905932736 3.0 4.535533905932739
    vertex 7.499999999999997 6.999999999999998 5.330127018922194
    vertex 7.499999999999997 3.0 5.330127018922194
  endloop
endfacet
facet normal 0.49999999999999944 0.0 0.8660254037844389
  outer loop
    vertex 7.499999999999997 6.999999999999998 5.330127018922194
    vertex 8.535533905932736 3.0 4.535533905932739
    vertex 8.535533905932736 6.999999999999998 4.535533905932739
  endloop
endfacet
facet normal 0.8660254037844388 0.0 0.4999999999999999
  outer loop
    vertex 9.330127018922193 6.999999999999998 3.5000000000000004
    vertex 8.535533905932736 3.0 4.535533905932739
    vertex 9.330127018922193 3.0 3.5000000000000004
  endloop
endfacet
facet normal 0.7071067811865472 0.0 0.7071067811865478
  outer loop
    vertex 8.535533905932736 3.0 4.535533905932739
    vertex 9.330127018922193 6.999999999999998 3.5000000000000004
    vertex 8.535533905932736 6.999999999999998 4.535533905932739
  endloop
endfacet
facet normal 0.9659258262890683 1.3256092915788053e-18 0.258819045102521
  outer loop
    vertex 9.82962913144534 6.999999999999998 2.294095225512604
    vertex 9.330127018922193 3.0 3.5000000000000004
    vertex 9.82962913144534 3.0 2.294095225512604
  endloop
endfacet
facet normal 0.8660254037844388 0.0 0.4999999999999999
  outer loop
    vertex 9.330127018922193 3.0 3.5000000000000004
    vertex 9.82962913144534 6.999999999999998 2.294095225512604
    vertex 9.330127018922193 6.999999999999998 3.5000000000000004
  endloop
endfacet
facet normal 0.9914448613738103 2.6285370406503668e-18 0.13052619222005274
  outer loop
    vertex 10.0 7.0 0.9999999999999999
    vertex 9.82962913144534 3.0 2.294095225512604
    vertex 10.0 3.0 0.9999999999999999
  endloop
endfacet
facet normal 0.9659258262890682 1.325609291578805e-18 0.2588190451025211
  outer loop
    vertex 9.82962913144534 3.0 2.294095225512604
    vertex 10.0 7.0 0.9999999999999999
    vertex 9.82962913144534 6.999999999999998 2.294095225512604
  endloop
endfacet
facet normal -0.0 -0.0 1.0
  outer loop
    vertex 10.0 0.0 0.9999999999999999
    vertex 0.0 3.0 0.9999999999999999
    vertex 0.0 0.0 0.9999999999999999
  endloop
endfacet
facet normal -0.0 -0.0 1.0
  outer loop
    vertex 0.0 3.0 0.9999999999999999
    vertex 10.0 0.0 0.9999999999999999
    vertex 10.0 3.0 0.9999999999999999
  endloop
endfacet
facet normal -3.588063101482726e-32 -1.0 -7.806565119909355e-32
  outer loop
    vertex 9.82962913144534 3.0 2.294095225512604
    vertex 5.258819045102521 3.0 2.5340741737109327
    vertex 5.0 3.0 2.500000000000001
  endloop
endfacet
facet normal -3.588063101482726e-32 -1.0 -7.806565119909355e-32
  outer loop
    vertex 5.258819045102521 3.0 2.5340741737109327
    vertex 9.82962913144534 3.0 2.294095225512604
    vertex 9.330127018922193 3.0 3.5000000000000004
  endloop
endfacet
facet normal -3.588063101482726e-32 -1.0 -7.806565119909355e-32
  outer loop
    vertex 5.258819045102521 3.0 2.5340741737109327
    vertex 9.330127018922193 3.0 3.5000000000000004
    vertex 5.5 3.0 2.633974596215563
  endloop
endfacet
facet normal -3.588063101482726e-32 -1.0 -7.806565119909355e-32
  outer loop
    vertex 5.5 3.0 2.633974596215563
    vertex 9.330127018922193 3.0 3.5000000000000004
    vertex 5.707106781186547 3.0 2.7928932188134543
  endloop
endfacet
facet normal -3.588063101482726e-32 -1.0 -7.806565119909355e-32
  outer loop
    vertex 5.707106781186547 3.0 2.7928932188134543
    vertex 9.330127018922193 3.0 3.5000000000000004
    vertex 5.8660254037844375 3.0 3.0000000000000013
  endloop
endfacet
facet normal -3.588063101482726e-32 -1.0 -7.806565119909355e-32
  outer loop
    vertex 5.8660254037844375 3.0 3.0000000000000013
    vertex 9.330127018922193 3.0 3.5000000000000004
    vertex 5.965925826289067 3.0 3.2411809548974806
  endloop
endfacet
facet normal -3.588063101482726e-32 -1.0 -7.806565119909355e-32
  outer loop
    vertex 5.965925826289067 3.0 3.2411809548974806
    vertex 9.330127018922193 3.0 3.5000000000000004
    vertex 5.999999999999999 3.0 3.5000000000000013
  endloop
endfacet
facet normal -3.588063101482726e-32 -1.0 -7.806565119909355e-32
  outer loop
    vertex 5.999999999999999 3.0 3.5000000000000013
    vertex 9.330127018922193 3.0 3.5000000000000004
    vertex 8.535533905932736 3.0 4.535533905932739
  endloop
endfacet
facet normal -3.588063101482726e-32 -1.0 -7.806565119909355e-32
  outer loop
    vertex 5.999999999999999 3.0 3.5000000000000013
    vertex 8.535533905932736 3.0 4.535533905932739
    vertex 5.965925826289067 3.0 3.758819045102522
  endloop
endfacet
facet normal -3.588063101482726e-32 -1.0 -7.806565119909355e-32
  outer loop
    vertex 5.965925826289067 3.0 3.758819045102522
    vertex 8.535533905932736 3.0 4.535533905932739
    vertex 5.8660254037844375 3.0 4.000000000000001
  endloop
endfacet
facet normal -3.588063101482726e-32 -1.0 -7.806565119909355e-32
  outer loop
    vertex 5.8660254037844375 3.0 4.000000000000001
    vertex 8.535533905932736 3.0 4.535533905932739
    vertex 5.707106781186546 3.0 4.207106781186549
  endloop
endfacet
facet normal -3.588063101482726e-32 -1.0 -7.806565119909355e-32
  outer loop
    vertex 5.707106781186546 3.0 4.207106781186549
    vertex 8.535533905932736 3.0 4.535533905932739
    vertex 5.499999999999998 3.0 4.366025403784439
  endloop
endfacet
facet normal -3.588063101482726e-32 -1.0 -7.806565119909355e-32
  outer loop
    vertex 5.499999999999998 3.0 4.366025403784439
    vertex 8.535533905932736 3.0 4.535533905932739
    vertex 5.258819045102519 3.0 4.465925826289069
  endloop
endfacet
facet normal -3.588063101482726e-32 -1.0 -7.806565119909355e-32
  outer loop
    vertex 5.258819045102519 3.0 4.465925826289069
    vertex 8.535533905932736 3.0 4.535533905932739
    vertex 4.999999999999998 3.0 4.5
  endloop
endfacet
facet normal -3.588063101482726e-32 -1.0 -7.806565119909355e-32
  outer loop
    vertex 4.999999999999998 3.0 4.5
    vertex 8.535533905932736 3.0 4.535533905932739
    vertex 1.464466094067262 3.0 4.535533905932736
  endloop
endfacet
facet normal -3.588063101482726e-32 -1.0 -7.806565119909355e-32
  outer loop
    vertex 1.464466094067262 3.0 4.535533905932736
    vertex 8.535533905932736 3.0 4.535533905932739
    vertex 2.499999999999999 3.0 5.330127018922193
  endloop
endfacet
facet normal -3.588063101482726e-32 -1.0 -7.806565119909355e-32
  outer loop
    vertex 2.499999999999999 3.0 5.330127018922193
    vertex 8.535533905932736 3.0 4.535533905932739
    vertex 7.499999999999997 3.0 5.330127018922194
  endloop
endfacet
facet normal -3.588063101482726e-32 -1.0 -7.806565119909355e-32
  outer loop
    vertex 2.499999999999999 3.0 5.330127018922193
    vertex 7.499999999999997 3.0 5.330127018922194
    vertex 3.7059047744873945 3.0 5.8296291314453415
  endloop
endfacet
facet normal -3.588063101482726e-32 -1.0 -7.806565119909355e-32
  outer loop
    vertex 3.7059047744873945 3.0 5.8296291314453415
    vertex 7.499999999999997 3.0 5.330127018922194
    vertex 6.294095225512601 3.0 5.8296291314453415
  endloop
endfacet
facet normal -3.588063101482726e-32 -1.0 -7.806565119909355e-32
  outer loop
    vertex 3.7059047744873945 3.0 5.8296291314453415
    vertex 6.294095225512601 3.0 5.8296291314453415
    vertex 4.999999999999998 3.0 6.0
  endloop
endfacet
facet normal -3.588063101482726e-32 -1.0 -7.806565119909355e-32
  outer loop
    vertex 9.82962913144534 3.0 2.294095225512604
    vertex 0.0 3.0 0.9999999999999999
    vertex 10.0 3.0 0.9999999999999999
  endloop
endfacet
facet normal -3.588063101482726e-32 -1.0 -7.806565119909355e-32
  outer loop
    vertex 0.0 3.0 0.9999999999999999
    vertex 9.82962913144534 3.0 2.294095225512604
    vertex 0.17037086855465947 3.0 2.2940952255126037
  endloop
endfacet
facet normal -3.588063101482726e-32 -1.0 -7.806565119909355e-32
  outer loop
    vertex 0.17037086855465947 3.0 2.2940952255126037
    vertex 9.82962913144534 3.0 2.294095225512604
    vertex 5.0 3.0 2.500000000000001
  endloop
endfacet
facet normal -3.588063101482726e-32 -1.0 -7.806565119909355e-32
  outer loop
    vertex 0.17037086855465947 3.0 2.2940952255126037
    vertex 5.0 3.0 2.500000000000001
    vertex 4.741180954897479 3.0 2.5340741737109322
  endloop
endfacet
facet normal -3.588063101482726e-32 -1.0 -7.806565119909355e-32
  outer loop
    vertex 0.17037086855465947 3.0 2.2940952255126037
    vertex 4.741180954897479 3.0 2.5340741737109322
    vertex 0.669872981077807 3.0 3.499999999999999
  endloop
endfacet
facet normal -3.588063101482726e-32 -1.0 -7.806565119909355e-32
  outer loop
    vertex 0.669872981077807 3.0 3.499999999999999
    vertex 4.741180954897479 3.0 2.5340741737109322
    vertex 4.5 3.0 2.6339745962155616
  endloop
endfacet
facet normal -3.588063101482726e-32 -1.0 -7.806565119909355e-32
  outer loop
    vertex 0.669872981077807 3.0 3.499999999999999
    vertex 4.5 3.0 2.6339745962155616
    vertex 4.292893218813453 3.0 2.7928932188134525
  endloop
endfacet
facet normal -3.588063101482726e-32 -1.0 -7.806565119909355e-32
  outer loop
    vertex 0.669872981077807 3.0 3.499999999999999
    vertex 4.292893218813453 3.0 2.7928932188134525
    vertex 4.133974596215562 3.0 3.0
  endloop
endfacet
facet normal -3.588063101482726e-32 -1.0 -7.806565119909355e-32
  outer loop
    vertex 0.669872981077807 3.0 3.499999999999999
    vertex 4.133974596215562 3.0 3.0
    vertex 4.034074173710931 3.0 3.2411809548974784
  endloop
endfacet
facet normal -3.588063101482726e-32 -1.0 -7.806565119909355e-32
  outer loop
    vertex 0.669872981077807 3.0 3.499999999999999
    vertex 4.034074173710931 3.0 3.2411809548974784
    vertex 3.9999999999999996 3.0 3.5
  endloop
endfacet
facet normal -3.588063101482726e-32 -1.0 -7.806565119909355e-32
  outer loop
    vertex 0.669872981077807 3.0 3.499999999999999
    vertex 3.9999999999999996 3.0 3.5
    vertex 1.464466094067262 3.0 4.535533905932736
  endloop
endfacet
facet normal -3.588063101482726e-32 -1.0 -7.806565119909355e-32
  outer loop
    vertex 1.464466094067262 3.0 4.535533905932736
    vertex 3.9999999999999996 3.0 3.5
    vertex 4.034074173710931 3.0 3.75881904510252
  endloop
endfacet
facet normal -3.588063101482726e-32 -1.0 -7.806565119909355e-32
  outer loop
    vertex 1.464466094067262 3.0 4.535533905932736
    vertex 4.034074173710931 3.0 3.75881904510252
    vertex 4.13397459621556 3.0 3.999999999999999
  endloop
endfacet
facet normal -3.588063101482726e-32 -1.0 -7.806565119909355e-32
  outer loop
    vertex 1.464466094067262 3.0 4.535533905932736
    vertex 4.13397459621556 3.0 3.999999999999999
    vertex 4.292893218813451 3.0 4.207106781186547
  endloop
endfacet
facet normal -3.588063101482726e-32 -1.0 -7.806565119909355e-32
  outer loop
    vertex 1.464466094067262 3.0 4.535533905932736
    vertex 4.292893218813451 3.0 4.207106781186547
    vertex 4.499999999999999 3.0 4.366025403784438
  endloop
endfacet
facet normal -3.588063101482726e-32 -1.0 -7.806565119909355e-32
  outer loop
    vertex 1.464466094067262 3.0 4.535533905932736
    vertex 4.499999999999999 3.0 4.366025403784438
    vertex 4.7411809548974775 3.0 4.465925826289069
  endloop
endfacet
facet normal -3.588063101482726e-32 -1.0 -7.806565119909355e-32
  outer loop
    vertex 1.464466094067262 3.0 4.535533905932736
    vertex 4.7411809548974775 3.0 4.465925826289069
    vertex 4.999999999999998 3.0 4.5
  endloop
endfacet
facet normal -0.2588190451025204 1.4643391398819346e-31 -0.9659258262890684
  outer loop
    vertex 5.258819045102519 7.0 4.465925826289069
    vertex 4.999999999999998 3.0 4.5
    vertex 4.999999999999998 7.0 4.5
  endloop
endfacet
facet normal -1.7822219791293813e-16 2.0708882715347835e-31 -1.0
  outer loop
    vertex 4.999999999999998 3.0 4.5
    vertex 5.258819045102519 7.0 4.465925826289069
    vertex 5.258819045102519 3.0 4.465925826289069
  endloop
endfacet
facet normal -1.7822219791293813e-16 2.0708882715347835e-31 -1.0
  outer loop
    vertex 4.999999999999998 7.0 4.5
    vertex 4.7411809548974775 3.0 4.465925826289069
    vertex 4.7411809548974775 7.0 4.465925826289069
  endloop
endfacet
facet normal 0.258819045102522 2.53630978978722e-31 -0.9659258262890679
  outer loop
    vertex 4.7411809548974775 3.0 4.465925826289069
    vertex 4.999999999999998 7.0 4.5
    vertex 4.999999999999998 3.0 4.5
  endloop
endfacet
facet normal 0.258819045102522 2.53630978978722e-31 -0.9659258262890679
  outer loop
    vertex 4.7411809548974775 7.0 4.465925826289069
    vertex 4.499999999999999 3.0 4.366025403784438
    vertex 4.499999999999999 7.0 4.366025403784438
  endloop
endfacet
facet normal 0.5000000000000017 2.828885987315762e-31 -0.8660254037844377
  outer loop
    vertex 4.499999999999999 3.0 4.366025403784438
    vertex 4.7411809548974775 7.0 4.465925826289069
    vertex 4.7411809548974775 3.0 4.465925826289069
  endloop
endfacet
facet normal 0.5000000000000017 2.828885987315762e-31 -0.8660254037844377
  outer loop
    vertex 4.499999999999999 7.0 4.366025403784438
    vertex 4.292893218813451 3.0 4.207106781186547
    vertex 4.292893218813451 7.0 4.207106781186547
  endloop
endfacet
facet normal 0.707106781186548 2.9286782797638674e-31 -0.7071067811865469
  outer loop
    vertex 4.292893218813451 3.0 4.207106781186547
    vertex 4.499999999999999 7.0 4.366025403784438
    vertex 4.499999999999999 3.0 4.366025403784438
  endloop
endfacet
facet normal 0.8660254037844397 2.8288859873157597e-31 -0.4999999999999981
  outer loop
    vertex 4.13397459621556 7.0 3.999999999999999
    vertex 4.292893218813451 3.0 4.207106781186547
    vertex 4.13397459621556 3.0 3.999999999999999
  endloop
endfacet
facet normal 0.707106781186548 2.9286782797638674e-31 -0.7071067811865469
  outer loop
    vertex 4.292893218813451 3.0 4.207106781186547
    vertex 4.13397459621556 7.0 3.999999999999999
    vertex 4.292893218813451 7.0 4.207106781186547
  endloop
endfacet
facet normal 0.9659258262890686 2.5363097897872167e-31 -0.2588190451025194
  outer loop
    vertex 4.034074173710931 7.0 3.75881904510252
    vertex 4.13397459621556 3.0 3.999999999999999
    vertex 4.034074173710931 3.0 3.75881904510252
  endloop
endfacet
facet normal 0.8660254037844397 2.8288859873157597e-31 -0.4999999999999981
  outer loop
    vertex 4.13397459621556 3.0 3.999999999999999
    vertex 4.034074173710931 7.0 3.75881904510252
    vertex 4.13397459621556 7.0 3.999999999999999
  endloop
endfacet
facet normal 1.0 2.0708882715347844e-31 -3.6535550572152315e-16
  outer loop
    vertex 3.9999999999999996 7.0 3.5
    vertex 4.034074173710931 3.0 3.75881904510252
    vertex 3.9999999999999996 3.0 3.5
  endloop
endfacet
facet normal 0.9659258262890686 2.5363097897872167e-31 -0.2588190451025194
  outer loop
    vertex 4.034074173710931 3.0 3.75881904510252
    vertex 3.9999999999999996 7.0 3.5
    vertex 4.034074173710931 7.0 3.75881904510252
  endloop
endfacet
facet normal 0.9659258262890681 1.4643391398819313e-31 0.2588190451025218
  outer loop
    vertex 4.034074173710931 7.0 3.2411809548974784
    vertex 3.9999999999999996 3.0 3.5
    vertex 4.034074173710931 3.0 3.2411809548974784
  endloop
endfacet
facet normal 1.0 2.0708882715347844e-31 -3.6535550572152315e-16
  outer loop
    vertex 3.9999999999999996 3.0 3.5
    vertex 4.034074173710931 7.0 3.2411809548974784
    vertex 3.9999999999999996 7.0 3.5
  endloop
endfacet
facet normal 0.8660254037844379 7.579977157809731e-32 0.5000000000000013
  outer loop
    vertex 4.133974596215562 7.0 3.0
    vertex 4.034074173710931 3.0 3.2411809548974784
    vertex 4.133974596215562 3.0 3.0
  endloop
endfacet
facet normal 0.9659258262890681 1.4643391398819313e-31 0.2588190451025218
  outer loop
    vertex 4.034074173710931 3.0 3.2411809548974784
    vertex 4.133974596215562 7.0 3.0
    vertex 4.034074173710931 7.0 3.2411809548974784
  endloop
endfacet
facet normal 0.7071067811865468 -3.093035536273731e-46 0.7071067811865482
  outer loop
    vertex 4.292893218813453 7.0 2.7928932188134525
    vertex 4.133974596215562 3.0 3.0
    vertex 4.292893218813453 3.0 2.7928932188134525
  endloop
endfacet
facet normal 0.8660254037844379 7.579977157809731e-32 0.5000000000000013
  outer loop
    vertex 4.133974596215562 3.0 3.0
    vertex 4.292893218813453 7.0 2.7928932188134525
    vertex 4.133974596215562 7.0 3.0
  endloop
endfacet
facet normal 0.49999999999999906 -7.579977157809803e-32 0.8660254037844393
  outer loop
    vertex 4.5 3.0 2.6339745962155616
    vertex 4.292893218813453 7.0 2.7928932188134525
    vertex 4.292893218813453 3.0 2.7928932188134525
  endloop
endfacet
facet normal 0.7071067811865468 -3.093035536273731e-46 0.7071067811865482
  outer loop
    vertex 4.292893218813453 7.0 2.7928932188134525
    vertex 4.5 3.0 2.6339745962155616
    vertex 4.5 7.0 2.6339745962155616
  endloop
endfacet
facet normal 0.25881904510251985 -1.4643391398819365e-31 0.9659258262890686
  outer loop
    vertex 4.741180954897479 3.0 2.5340741737109322
    vertex 4.5 7.0 2.6339745962155616
    vertex 4.5 3.0 2.6339745962155616
  endloop
endfacet
facet normal 0.49999999999999906 -7.579977157809803e-32 0.8660254037844393
  outer loop
    vertex 4.5 7.0 2.6339745962155616
    vertex 4.741180954897479 3.0 2.5340741737109322
    vertex 4.741180954897479 7.0 2.5340741737109322
  endloop
endfacet
facet normal -6.683332421735178e-16 -2.0708882715347857e-31 1.0
  outer loop
    vertex 5.0 3.0 2.500000000000001
    vertex 4.741180954897479 7.0 2.5340741737109322
    vertex 4.741180954897479 3.0 2.5340741737109322
  endloop
endfacet
facet normal 0.25881904510251985 -1.4643391398819365e-31 0.9659258262890686
  outer loop
    vertex 4.741180954897479 7.0 2.5340741737109322
    vertex 5.0 3.0 2.500000000000001
    vertex 5.0 7.0 2.500000000000001
  endloop
endfacet
facet normal -0.2588190451025216 -2.53630978978722e-31 0.9659258262890681
  outer loop
    vertex 5.258819045102521 3.0 2.5340741737109327
    vertex 5.0 7.0 2.500000000000001
    vertex 5.0 3.0 2.500000000000001
  endloop
endfacet
facet normal -6.683332421735178e-16 -2.0708882715347857e-31 1.0
  outer loop
    vertex 5.0 7.0 2.500000000000001
    vertex 5.258819045102521 3.0 2.5340741737109327
    vertex 5.258819045102521 7.0 2.5340741737109327
  endloop
endfacet
facet normal -0.500000000000001 -2.828885987315761e-31 0.8660254037844379
  outer loop
    vertex 5.5 3.0 2.633974596215563
    vertex 5.258819045102521 7.0 2.5340741737109327
    vertex 5.258819045102521 3.0 2.5340741737109327
  endloop
endfacet
facet normal -0.2588190451025216 -2.53630978978722e-31 0.9659258262890681
  outer loop
    vertex 5.258819045102521 7.0 2.5340741737109327
    vertex 5.5 3.0 2.633974596215563
    vertex 5.5 7.0 2.633974596215563
  endloop
endfacet
facet normal -0.7071067811865482 -2.9286782797638682e-31 0.7071067811865468
  outer loop
    vertex 5.707106781186547 3.0 2.7928932188134543
    vertex 5.5 7.0 2.633974596215563
    vertex 5.5 3.0 2.633974596215563
  endloop
endfacet
facet normal -0.500000000000001 -2.828885987315761e-31 0.8660254037844379
  outer loop
    vertex 5.5 7.0 2.633974596215563
    vertex 5.707106781186547 3.0 2.7928932188134543
    vertex 5.707106781186547 7.0 2.7928932188134543
  endloop
endfacet
facet normal -0.8660254037844393 -2.8288859873157597e-31 0.49999999999999906
  outer loop
    vertex 5.8660254037844375 7.0 3.0000000000000013
    vertex 5.707106781186547 3.0 2.7928932188134543
    vertex 5.8660254037844375 3.0 3.0000000000000013
  endloop
endfacet
facet normal -0.7071067811865482 -2.9286782797638682e-31 0.7071067811865468
  outer loop
    vertex 5.707106781186547 3.0 2.7928932188134543
    vertex 5.8660254037844375 7.0 3.0000000000000013
    vertex 5.707106781186547 7.0 2.7928932188134543
  endloop
endfacet
facet normal -0.9659258262890684 -2.536309789787218e-31 0.2588190451025204
  outer loop
    vertex 5.965925826289067 7.0 3.2411809548974806
    vertex 5.8660254037844375 3.0 3.0000000000000013
    vertex 5.965925826289067 3.0 3.2411809548974806
  endloop
endfacet
facet normal -0.8660254037844393 -2.8288859873157597e-31 0.49999999999999906
  outer loop
    vertex 5.8660254037844375 3.0 3.0000000000000013
    vertex 5.965925826289067 7.0 3.2411809548974806
    vertex 5.8660254037844375 7.0 3.0000000000000013
  endloop
endfacet
facet normal -1.0 -2.070888271534784e-31 0.0
  outer loop
    vertex 5.999999999999999 7.0 3.5000000000000013
    vertex 5.965925826289067 3.0 3.2411809548974806
    vertex 5.999999999999999 3.0 3.5000000000000013
  endloop
endfacet
facet normal -0.9659258262890684 -2.536309789787218e-31 0.2588190451025204
  outer loop
    vertex 5.965925826289067 3.0 3.2411809548974806
    vertex 5.999999999999999 7.0 3.5000000000000013
    vertex 5.965925826289067 7.0 3.2411809548974806
  endloop
endfacet
facet normal -0.9659258262890681 -1.4643391398819315e-31 -0.2588190451025216
  outer loop
    vertex 5.965925826289067 7.0 3.758819045102522
    vertex 5.999999999999999 3.0 3.5000000000000013
    vertex 5.965925826289067 3.0 3.758819045102522
  endloop
endfacet
facet normal -1.0 -2.070888271534784e-31 0.0
  outer loop
    vertex 5.999999999999999 3.0 3.5000000000000013
    vertex 5.965925826289067 7.0 3.758819045102522
    vertex 5.999999999999999 7.0 3.5000000000000013
  endloop
endfacet
facet normal -0.8660254037844379 -7.579977157809737e-32 -0.500000000000001
  outer loop
    vertex 5.8660254037844375 7.0 4.000000000000001
    vertex 5.965925826289067 3.0 3.758819045102522
    vertex 5.8660254037844375 3.0 4.000000000000001
  endloop
endfacet
facet normal -0.9659258262890681 -1.4643391398819315e-31 -0.2588190451025216
  outer loop
    vertex 5.965925826289067 3.0 3.758819045102522
    vertex 5.8660254037844375 7.0 4.000000000000001
    vertex 5.965925826289067 7.0 3.758819045102522
  endloop
endfacet
facet normal -0.7071067811865468 3.093035536273731e-46 -0.7071067811865482
  outer loop
    vertex 5.707106781186546 7.0 4.207106781186549
    vertex 5.8660254037844375 3.0 4.000000000000001
    vertex 5.707106781186546 3.0 4.207106781186549
  endloop
endfacet
facet normal -0.8660254037844379 -7.579977157809737e-32 -0.500000000000001
  outer loop
    vertex 5.8660254037844375 3.0 4.000000000000001
    vertex 5.707106781186546 7.0 4.207106781186549
    vertex 5.8660254037844375 7.0 4.000000000000001
  endloop
endfacet
facet normal -0.7071067811865468 3.093035536273731e-46 -0.7071067811865482
  outer loop
    vertex 5.707106781186546 7.0 4.207106781186549
    vertex 5.499999999999998 3.0 4.366025403784439
    vertex 5.499999999999998 7.0 4.366025403784439
  endloop
endfacet
facet normal -0.49999999999999906 7.579977157809803e-32 -0.8660254037844393
  outer loop
    vertex 5.499999999999998 3.0 4.366025403784439
    vertex 5.707106781186546 7.0 4.207106781186549
    vertex 5.707106781186546 3.0 4.207106781186549
  endloop
endfacet
facet normal -0.49999999999999906 7.579977157809803e-32 -0.8660254037844393
  outer loop
    vertex 5.499999999999998 7.0 4.366025403784439
    vertex 5.258819045102519 3.0 4.465925826289069
    vertex 5.258819045102519 7.0 4.465925826289069
  endloop
endfacet
facet normal -0.2588190451025204 1.4643391398819346e-31 -0.9659258262890684
  outer loop
    vertex 5.258819045102519 3.0 4.465925826289069
    vertex 5.499999999999998 7.0 4.366025403784439
    vertex 5.499999999999998 3.0 4.366025403784439
  endloop
endfacet
endsolid door_opener
